<svg width="128" height="128" viewBox="0 0 128 128" fill="none" xmlns="http://www.w3.org/2000/svg">
<circle cx="64" cy="64" r="64" fill="white"/>
<g clip-path="url(#clip0_165_4025)">
<path fill-rule="evenodd" clip-rule="evenodd" d="M74.3201 58.7828H83.0531C83.6647 58.7828 84.1653 59.2862 84.1653 59.895V65.7709C80.8146 65.8089 77.6665 66.7144 74.9317 68.2723H74.3201C73.7112 68.2723 73.2079 67.7718 73.2079 67.1601V59.895C73.2079 59.2834 73.7084 58.7828 74.3201 58.7828ZM35.0953 34.1332H40.7167V41.6345C40.7167 43.7197 41.6869 45.5631 43.2518 46.8454C44.5749 47.9295 46.3339 48.6016 48.2152 48.6016C50.0937 48.6016 51.8555 47.9295 53.1772 46.8454C54.7421 45.5631 55.7123 43.7197 55.7123 41.6345V34.1332H67.0648V41.6345C67.0648 43.7197 68.0336 45.5631 69.5985 46.8454C70.9216 47.9295 72.6806 48.6016 74.5619 48.6016C76.4418 48.6016 78.2022 47.9295 79.5239 46.8454C81.0902 45.5631 82.059 43.7197 82.059 41.6345V34.1332H87.9279C89.6011 34.1332 91.1253 34.8208 92.2318 35.9259C93.3384 37.0283 94.0246 38.5525 94.0246 40.2285V68.3792C93.3946 68.0108 92.7436 67.6775 92.0715 67.3823V51.7807H30.953V87.8854C30.953 90.5204 33.1099 92.6787 35.7463 92.6787H66.8469C67.1449 93.3493 67.481 94.0018 67.8522 94.6303H35.0953C33.4235 94.6303 31.9007 93.9441 30.7955 92.8404C29.6862 91.7296 29 90.2068 29 88.5364V40.2285C29 38.5553 29.6862 37.0325 30.7899 35.9274C31.8979 34.8194 33.4221 34.1332 35.0953 34.1332ZM45.2709 30.4128C45.2709 29.0813 46.5884 28 48.2152 28C49.842 28 51.1581 29.0813 51.1581 30.4128V41.6345C51.1581 42.9647 49.842 44.0473 48.2152 44.0473C46.5884 44.0473 45.2709 42.9647 45.2709 41.6345V30.4128ZM71.619 30.4128C71.619 29.0813 72.9351 28 74.5619 28C76.1887 28 77.5048 29.0813 77.5048 30.4128V41.6345C77.5048 42.9647 76.1887 44.0473 74.5619 44.0473C72.9351 44.0473 71.619 42.9647 71.619 41.6345V30.4128ZM39.9715 58.7828H48.7045C49.3161 58.7828 49.8167 59.2862 49.8167 59.895V67.1601C49.8167 67.7689 49.3133 68.2723 48.7045 68.2723H39.9715C39.3612 68.2723 38.8579 67.7718 38.8579 67.1601V59.895C38.8579 59.2834 39.3598 58.7828 39.9715 58.7828ZM39.9715 74.234H48.7045C49.3161 74.234 49.8167 74.7374 49.8167 75.3462V82.6113C49.8167 83.2201 49.3133 83.7235 48.7045 83.7235H39.9715C39.3612 83.7235 38.8579 83.2229 38.8579 82.6113V75.3462C38.8579 74.7346 39.3598 74.234 39.9715 74.234ZM57.2365 58.7828H65.9695C66.5811 58.7828 67.0817 59.2862 67.0817 59.895V67.1601C67.0817 67.7689 66.5783 68.2723 65.9695 68.2723H57.2365C56.6276 68.2723 56.1243 67.7718 56.1243 67.1601V59.895C56.1243 59.2834 56.6248 58.7828 57.2365 58.7828ZM57.2365 74.234H65.9695C66.5811 74.234 67.0817 74.7374 67.0817 75.3462V76.6974C66.0267 78.9004 65.4051 81.2857 65.251 83.7235H57.2365C56.6276 83.7235 56.1243 83.2229 56.1243 82.6113V75.3462C56.1243 74.7346 56.6248 74.234 57.2365 74.234Z" fill="#4283F0"/>
<path fill-rule="evenodd" clip-rule="evenodd" d="M84.3846 69.8838C92.7 69.8838 99.4435 76.6272 99.4435 84.9427C99.4435 93.2567 92.7 100 84.3846 100C76.0706 100 69.3271 93.2567 69.3271 84.9427C69.3271 76.6272 76.0706 69.8838 84.3846 69.8838ZM80.0357 82.8125L82.5005 85.1409L88.3933 79.0738C88.877 78.5859 89.1793 78.1908 89.774 78.8038L91.7046 80.7835C92.3401 81.4092 92.3078 81.779 91.7102 82.3626L83.6043 90.4319C82.3416 91.6678 82.5624 91.7438 81.2843 90.4755L76.7849 86.0014C76.5191 85.7146 76.5458 85.4221 76.8397 85.1353L79.081 82.8097C79.4212 82.4511 79.6912 82.4821 80.0357 82.8125Z" fill="#4283F0"/>
</g>
<defs>
<clipPath id="clip0_165_4025">
<rect width="70.4435" height="72" fill="white" transform="translate(29 28)"/>
</clipPath>
</defs>
</svg>
