<svg width="26" height="24" viewBox="0 0 26 24" fill="none" xmlns="http://www.w3.org/2000/svg">
    <g clip-path="url(#clip0_4938_1478)">
        <path fill-rule="evenodd" clip-rule="evenodd" d="M13.3001 5.56283C13.7713 4.49652 14.2945 3.48812 14.9195 2.63347C16.1855 0.896219 19.2766 -1.19447 21.1676 0.830323C22.8609 2.64146 21.4252 4.62032 19.4084 5.56283H23.9712C24.3246 5.56283 24.6561 5.7106 24.8837 5.94622C25.1194 6.18185 25.2671 6.50534 25.2671 6.85878V9.31689C25.2671 9.67033 25.1194 10.0018 24.8837 10.2294C24.6701 10.4431 24.3905 10.5829 24.075 10.6048V22.6019C24.075 22.9852 23.9213 23.3387 23.6637 23.5883C23.4141 23.8379 23.0606 23.9996 22.6772 23.9996H3.34983C2.96644 23.9996 2.613 23.8459 2.36339 23.5883C2.11379 23.3387 1.95205 22.9852 1.95205 22.6019V10.6128C1.62856 10.5909 1.33303 10.4511 1.11337 10.2374C0.877746 10.0018 0.72998 9.67831 0.72998 9.32487V6.86677C0.72998 6.51333 0.877746 6.18185 1.11337 5.95421C1.349 5.71858 1.67249 5.57082 2.02593 5.57082H6.67057C4.66175 4.62831 3.22603 2.64944 4.91136 0.838311C6.80237 -1.19247 9.89347 0.904206 11.1595 2.64146C11.7845 3.50209 12.3076 4.5105 12.7789 5.57082H13.2861L13.3001 5.56283ZM17.4295 5.56283C22.0442 3.51807 20.5127 0.0735217 17.5913 1.73689C16.9064 2.12627 16.3333 2.85512 15.8181 3.58396C15.3329 4.26888 14.8975 4.98974 14.5741 5.56283H17.4295ZM8.65543 5.56283C4.04273 3.51807 5.57231 0.0735217 8.49369 1.73689C9.1786 2.12627 9.75169 2.85512 10.2669 3.58396C10.7521 4.26888 11.1874 4.98974 11.5109 5.56283H8.65543ZM23.0007 18.1848H14.8097V22.9174H22.6852C22.7731 22.9174 22.8549 22.8814 22.9129 22.8215C22.9728 22.7616 23.0087 22.6817 23.0087 22.5939V18.1848H23.0007ZM11.3352 18.1848H3.02634V22.5939C3.02634 22.6817 3.06229 22.7636 3.12219 22.8215C3.1821 22.8814 3.26197 22.9174 3.34983 22.9174H11.3352V18.1848ZM3.02634 15.3074H11.3352V10.0977H3.02634V15.3074ZM14.8017 15.3074H22.9927V10.0977H14.8017V15.3074Z" fill="#4283F0"/>
    </g>
    <defs>
        <clipPath id="clip0_4938_1478">
            <rect width="24.5371" height="24" fill="white" transform="translate(0.72998)"/>
        </clipPath>
    </defs>
</svg>
