<svg width="90" height="76" viewBox="0 0 90 76" fill="none" xmlns="http://www.w3.org/2000/svg">
<path fill-rule="evenodd" clip-rule="evenodd" d="M62.8505 27.8161C65.2067 22.4845 67.8226 17.4425 70.9477 13.1693C77.2776 4.48305 92.7332 -5.9704 102.188 4.15357C110.655 13.2092 103.476 23.1036 93.3921 27.8161H116.206C117.973 27.8161 119.631 28.5549 120.769 29.7331C121.947 30.9112 122.686 32.5286 122.686 34.2958V46.5864C122.686 48.3536 121.947 50.011 120.769 51.1492C119.7 52.2175 118.303 52.9164 116.725 53.0262V113.011C116.725 114.928 115.956 116.695 114.668 117.943C113.42 119.191 111.653 120 109.736 120H13.0993C11.1823 120 9.41509 119.231 8.16707 117.943C6.91904 116.695 6.11032 114.928 6.11032 113.011V53.0661C4.49289 52.9563 3.01523 52.2574 1.91696 51.1891C0.73883 50.011 0 48.3935 0 46.6263V34.3358C0 32.5686 0.73883 30.9112 1.91696 29.773C3.0951 28.5949 4.71254 27.856 6.47974 27.856H29.703C19.6589 23.1435 12.4802 13.2492 20.9069 4.19351C30.3619 -5.96042 45.8175 4.52298 52.1474 13.2092C55.2725 17.5124 57.8883 22.5544 60.2446 27.856H62.7806L62.8505 27.8161ZM83.4978 27.8161C106.571 17.5923 98.9134 0.369562 84.3065 8.68639C80.8819 10.6333 78.0165 14.2775 75.4405 17.9218C73.0144 21.3463 70.8378 24.9506 69.2204 27.8161H83.4978ZM39.6273 27.8161C16.5638 17.5923 24.2117 0.369562 38.8185 8.68639C42.2431 10.6333 45.1086 14.2775 47.6845 17.9218C50.1107 21.3463 52.2872 24.9506 53.9046 27.8161H39.6273ZM111.354 90.9262H70.3985V114.589H109.776C110.215 114.589 110.625 114.409 110.914 114.109C111.214 113.81 111.394 113.411 111.394 112.971V90.9262H111.354ZM53.026 90.9262H11.4818V112.971C11.4818 113.411 11.6615 113.82 11.9611 114.109C12.2606 114.409 12.66 114.589 13.0993 114.589H53.026V90.9262ZM11.4818 76.539H53.026V50.4902H11.4818V76.539ZM70.3586 76.539H111.314V50.4902H70.3586V76.539Z" fill="#4283F0"/>
</svg>
