<svg width="128" height="128" viewBox="0 0 128 128" fill="none" xmlns="http://www.w3.org/2000/svg">
<circle cx="64" cy="64" r="64" fill="white"/>
<path d="M82.3981 62.3326V31.9411C82.3981 29.8189 80.6813 28 78.5167 28H33.8813C31.7914 28 30 29.7432 30 31.9411V92.0421C30 93.4063 30.8211 94.6947 32.09 95.1495C32.4632 95.3011 32.8364 95.3768 33.2096 95.3768C34.1053 95.3768 35.001 94.9979 35.6727 94.24L43.8833 84.6147H60.3789C62.021 93.4063 69.6344 100 78.7407 100C89.0411 100 97.4756 91.4358 97.4756 80.9768C97.5502 71.7305 90.9818 64 82.3981 62.3326ZM41.1215 39.2168C41.1215 39.1411 41.1962 39.0653 41.2708 39.0653H71.2019C71.2766 39.0653 71.3512 39.1411 71.3512 39.2168V44.0674C71.3512 44.1432 71.2766 44.2189 71.2019 44.2189H41.2708C41.1962 44.2189 41.1215 44.1432 41.1215 44.0674V39.2168ZM41.1215 53.8442C41.1215 53.7684 41.1962 53.6926 41.2708 53.6926H71.2019C71.2766 53.6926 71.3512 53.7684 71.3512 53.8442V58.6947C71.3512 58.7705 71.2766 58.8463 71.2019 58.8463H41.2708C41.1962 58.8463 41.1215 58.7705 41.1215 58.6947V53.8442ZM41.2708 73.5495C41.1962 73.5495 41.1215 73.4737 41.1215 73.3979V68.5474C41.1215 68.4716 41.1962 68.3958 41.2708 68.3958H64.9321C63.5885 69.9116 62.4689 71.6547 61.6478 73.5495H41.2708ZM78.8153 94.6947C71.3512 94.6947 65.3053 88.5558 65.3053 80.9768C65.3053 73.3979 71.3512 67.2589 78.8153 67.2589C86.2794 67.2589 92.3254 73.3979 92.3254 80.9768C92.3254 88.5558 86.2794 94.6947 78.8153 94.6947Z" fill="#4283F0"/>
<path d="M82.3984 75.3684L77.0989 81.5074L74.6357 79.0063C73.5908 77.9453 71.9486 77.9453 70.9783 79.0063C69.9333 80.0674 69.9333 81.7347 70.9783 82.72L75.3821 87.1916C75.9046 87.7221 76.5018 87.9495 77.2482 87.9495H77.3228C78.0692 87.9495 78.741 87.5705 79.1888 87.04L86.3544 78.7789C87.3247 77.6421 87.1754 75.9747 86.1305 75.0652C85.0108 74.1558 83.3687 74.2316 82.3984 75.3684Z" fill="#4283F0"/>
</svg>
