<svg width="136" height="136" viewBox="0 0 136 136" fill="none" xmlns="http://www.w3.org/2000/svg">
    <circle opacity="0.12" cx="68" cy="68" r="60" fill="#4283F0"/>
    <circle opacity="0.18" cx="68" cy="68" r="52" fill="#4283F0"/>
    <circle opacity="0.24" cx="68" cy="68" r="44" fill="#4283F0"/>
    <circle opacity="0.3" cx="68" cy="68" r="36" fill="#4283F0"/>
    <circle opacity="0.36" cx="68" cy="68" r="28" fill="#4283F0"/>
    <g clip-path="url(#clip0_4657_5528)">
        <path fill-rule="evenodd" clip-rule="evenodd" d="M64.0751 62.821C59.9556 62.8494 57.9325 62.5571 56.7124 65.9207C56.4309 66.6967 56.2206 67.4852 56.1676 68.2703C49.9987 70.6972 50.9788 69.1907 50 76.0016H51.6991C52.4839 69.8833 60.1937 70.6253 60.4302 76.0016H69.4618C69.5784 74.9196 70.0663 73.9509 70.7943 73.2229C71.6354 72.3819 72.7978 71.8621 74.078 71.8621C75.3564 71.8621 76.5148 72.3824 77.356 73.2216L77.3629 73.2286C78.0908 73.9592 78.5769 74.9274 78.6938 76.0016H83.2827C84.1533 76.0016 85.5356 74.9736 84.8663 74.4179L79.7285 70.1518H74.7666V66.5486C74.1649 66.9527 73.4406 67.1885 72.6613 67.1885C71.8354 67.1897 71.032 66.9194 70.3748 66.4191V70.1518H64.0751V62.821ZM72.6613 60.5052C74.2636 60.5052 75.5626 61.8042 75.5626 63.4068C75.5626 65.0091 74.2636 66.3081 72.6613 66.3081C71.0588 66.3081 69.7598 65.0091 69.7598 63.4068C69.7598 61.8042 71.0588 60.5052 72.6613 60.5052ZM72.6613 62.1171C73.3735 62.1171 73.9508 62.6944 73.9508 63.4068C73.9508 64.1189 73.3735 64.6962 72.6613 64.6962C71.9489 64.6962 71.3716 64.1189 71.3716 63.4068C71.3716 62.6944 71.9489 62.1171 72.6613 62.1171ZM81.176 62.1646H81.3675V60.1622L76.4421 63.3196C76.4193 62.3101 76.0006 61.3977 75.3353 60.7325C74.9359 60.3326 74.4519 60.0273 73.919 59.8391L83.3895 56.0174C83.4443 55.9945 83.506 55.9942 83.561 56.0167C83.6161 56.0392 83.6599 56.0826 83.6829 56.1374L84.4506 57.9655C84.4709 58.0141 84.4734 58.0683 84.4578 58.1186C84.4421 58.1689 84.4092 58.2121 84.3648 58.2405L82.5313 59.416V62.1646H82.8068C82.8438 62.1646 82.8792 62.1793 82.9054 62.2055C82.9315 62.2316 82.9462 62.267 82.9463 62.304V63.5549C82.9462 63.5918 82.9315 63.6273 82.9053 63.6534C82.8792 63.6795 82.8438 63.6942 82.8068 63.6942H82.557V64.8438C82.3307 64.9729 82.1203 65.1171 81.933 65.2827C81.5459 65.6253 80.9889 66.2166 81.1252 66.761C81.3082 67.492 82.4826 67.8158 82.9721 66.4491C83.0717 66.1708 83.0902 66.0852 83.2758 65.8322C83.3439 65.7385 83.419 65.65 83.5004 65.5676C83.6038 65.4546 83.7656 65.4886 83.8248 65.6113C83.9082 65.7855 83.7392 65.9218 83.6858 66.0968C83.5363 66.5853 83.755 67.074 83.4777 67.759C83.071 68.7636 81.8619 69.0935 80.9162 68.7079C80.0017 68.3348 79.4075 67.3851 79.5334 66.394C79.6549 65.4369 80.4829 64.7124 81.304 64.2859V63.6942H81.176C81.1391 63.6942 81.1037 63.6795 81.0775 63.6534C81.0514 63.6273 81.0367 63.5918 81.0366 63.5549V62.304C81.0367 62.267 81.0514 62.2316 81.0775 62.2055C81.1036 62.1793 81.1391 62.1646 81.176 62.1646ZM56.0647 72.7005C58.0002 72.7005 59.5593 74.2704 59.5593 76.1952C59.5593 78.1306 57.9893 79.6898 56.0647 79.6898C54.1292 79.6898 52.5699 78.12 52.5699 76.1952C52.5699 74.2597 54.1398 72.7005 56.0647 72.7005ZM56.0647 74.8511C56.8065 74.8511 57.4087 75.4531 57.4087 76.1952C57.4087 76.9372 56.8065 77.5393 56.0647 77.5393C55.3227 77.5393 54.7206 76.9372 54.7206 76.1952C54.7206 75.4531 55.3227 74.8511 56.0647 74.8511ZM74.078 73.0107C76.0135 73.0107 77.5726 74.5805 77.5726 76.5053C77.5726 78.4406 76.0026 80 74.078 80C72.1425 80 70.5834 78.43 70.5834 76.5053C70.5834 74.5699 72.1534 73.0107 74.078 73.0107ZM74.078 75.161C74.82 75.161 75.4221 75.7633 75.4221 76.5053C75.4221 77.2473 74.82 77.8492 74.078 77.8492C73.336 77.8492 72.7339 77.2473 72.7339 76.5053C72.7339 75.7633 73.336 75.161 74.078 75.161ZM60.0528 64.6586L62.0295 64.6262V68.2703H58.3708C58.5531 67.0818 59.0251 65.678 60.0528 64.6586Z" fill="white"/>
    </g>
    <circle opacity="0.06" cx="68" cy="68" r="68" fill="#4283F0"/>
    <defs>
        <clipPath id="clip0_4657_5528">
            <rect width="35.0434" height="24" fill="white" transform="translate(50 56)"/>
        </clipPath>
    </defs>
</svg>
