<svg width="32" height="32" viewBox="0 0 32 32" fill="none" xmlns="http://www.w3.org/2000/svg">
<path d="M4.86949 16.2578C2.98605 16.2578 1.4585 17.7847 1.4585 19.6688C1.4585 19.8145 1.47045 19.9566 1.48885 20.0977C1.70039 21.7786 3.13137 23.0795 4.86949 23.0795C6.65411 23.0795 8.11771 21.7069 8.26562 19.9598C8.27337 19.8635 8.28016 19.767 8.28016 19.6688C8.28016 17.7847 6.75325 16.2578 4.86949 16.2578ZM3.58706 18.7029L4.10926 19.2254C4.06857 19.2952 4.0366 19.3704 4.01658 19.4505H3.28025C3.31804 19.1721 3.42494 18.917 3.58706 18.7029ZM3.27702 19.8945H4.01916C4.03983 19.9737 4.07083 20.0479 4.11185 20.1167L3.58835 20.6402C3.42623 20.4261 3.31675 20.1723 3.27702 19.8945ZM4.64794 21.2593C4.37053 21.2206 4.11798 21.1117 3.90484 20.9506L4.42511 20.4303C4.4939 20.4707 4.56882 20.4998 4.64762 20.5198L4.64794 21.2593ZM4.64794 18.8165C4.56688 18.8369 4.49196 18.8695 4.42156 18.9108L3.89999 18.3886C4.11443 18.2259 4.36892 18.118 4.64794 18.0792V18.8165ZM5.09168 18.0796C5.37071 18.1183 5.62551 18.2262 5.83963 18.3893L5.31774 18.9112C5.24798 18.8698 5.17209 18.8372 5.09168 18.8169V18.0796ZM5.09168 21.2587V20.5198C5.17048 20.4998 5.24508 20.4697 5.31387 20.4297L5.83446 20.9503C5.62131 21.1114 5.36844 21.2199 5.09168 21.2587ZM6.15192 20.6415L5.6268 20.1161C5.66814 20.047 5.70108 19.974 5.72207 19.8942H6.4584C6.41868 20.1716 6.31436 20.4287 6.15192 20.6415ZM5.72304 19.4508C5.7027 19.3704 5.67073 19.2955 5.63036 19.2257L6.15289 18.7032C6.31436 18.9176 6.42126 19.1721 6.45937 19.4508H5.72304Z" fill="#4283F0"/>
<path d="M25.9281 16.2578C24.045 16.2578 22.5171 17.7847 22.5171 19.6688C22.5171 19.8145 22.529 19.9566 22.5478 20.0977C22.7593 21.7786 24.19 23.0795 25.9281 23.0795C27.713 23.0795 29.177 21.7069 29.3245 19.9598C29.332 19.8635 29.3391 19.767 29.3391 19.6688C29.3391 17.7847 27.8122 16.2578 25.9281 16.2578ZM24.6457 18.7029L25.1682 19.2254C25.1272 19.2952 25.0952 19.3704 25.0748 19.4505H24.3392C24.377 19.1721 24.4835 18.917 24.6457 18.7029ZM24.3359 19.8945H25.0781C25.0981 19.9737 25.1298 20.0479 25.1708 20.1167L24.6469 20.6402C24.4848 20.4261 24.3757 20.1723 24.3359 19.8945ZM25.7065 21.2593C25.4294 21.2206 25.1766 21.1117 24.9634 20.9506L25.484 20.4303C25.5525 20.4707 25.6274 20.4998 25.7062 20.5198L25.7065 21.2593ZM25.7065 18.8165C25.6258 18.8369 25.5509 18.8695 25.4805 18.9108L24.9589 18.3886C25.1734 18.2259 25.4278 18.118 25.7065 18.0792V18.8165ZM26.1506 18.0796C26.4299 18.1183 26.6841 18.2262 26.8982 18.3893L26.377 18.9112C26.3066 18.8698 26.2307 18.8372 26.1506 18.8169V18.0796ZM26.1506 21.2587V20.5198C26.2294 20.4998 26.3043 20.4697 26.3728 20.4297L26.8937 20.9503C26.6802 21.1114 26.4274 21.2199 26.1506 21.2587ZM27.2108 20.6415L26.6854 20.1161C26.7271 20.047 26.7597 19.974 26.7813 19.8942H27.517C27.4776 20.1716 27.3736 20.4287 27.2108 20.6415ZM26.782 19.4508C26.7616 19.3704 26.7296 19.2955 26.6893 19.2257L27.2121 18.7032C27.3736 18.9176 27.4802 19.1721 27.518 19.4508H26.782Z" fill="#4283F0"/>
<path d="M24.5164 8.00034L15.3656 8.11563C15.0911 8.11886 14.8715 8.34428 14.875 8.61879C14.8779 8.8891 15.0972 9.10612 15.3659 9.10935C15.3704 9.10935 15.374 9.10935 15.3782 9.10935L24.529 8.99406C24.8035 8.99083 25.0231 8.76541 25.0199 8.4909C25.016 8.21639 24.7831 7.99001 24.5164 8.00034Z" fill="#4283F0"/>
<path d="M20.8973 19.5762H10.0934C9.81887 19.5762 9.59668 19.7987 9.59668 20.0732C9.59668 20.348 9.81887 20.5702 10.0934 20.5702H20.8973C21.1718 20.5702 21.394 20.348 21.394 20.0732C21.394 19.7987 21.1718 19.5762 20.8973 19.5762Z" fill="#4283F0"/>
<path d="M31.8615 16.7397C31.7463 16.5989 31.5725 16.5175 31.3907 16.5175H30.8258L30.252 10.2335C30.2203 9.88669 29.9271 9.62284 29.5783 9.628L13.4218 9.87022C13.1705 9.87409 12.9341 9.99165 12.7798 10.1903L10.6383 12.9428L3.62575 13.3771C3.24435 13.401 2.89524 13.5996 2.6808 13.9158L2.28584 14.4968C2.28584 14.4968 1.60958 14.7348 1.42841 14.8847C1.27113 15.0148 0.958191 15.5528 0.958191 15.5528C0.898768 15.6368 0.891663 15.7476 0.939137 15.8383C0.986288 15.9297 1.08059 15.9869 1.18361 15.9869V16.5992H0.60004C0.268371 16.5995 0 16.8682 0 17.1992V18.305C0 18.7158 0.332961 19.0494 0.744398 19.0494H1.14324L2.17119 16.2133C2.26484 15.9549 2.51029 15.7828 2.78479 15.7828H6.37276C6.57622 15.7828 6.76837 15.8777 6.89174 16.0398L9.30869 19.2125H21.9244L23.6948 16.2252C23.812 16.0269 24.0252 15.9055 24.2561 15.9055H27.5505C27.783 15.9055 27.9978 16.0292 28.115 16.2301L29.8509 19.2128H30.4735C31.1281 19.2128 31.692 18.7494 31.8186 18.1067L31.9878 17.2457C32.0243 17.0665 31.9778 16.8811 31.8615 16.7397ZM16.4924 13.5774H12.7694V12.4338H12.0153L13.1437 10.944C13.1922 10.8798 13.2677 10.8416 13.3481 10.8404L17.1247 10.7842V12.4338L16.4924 13.5774ZM22.6488 13.5774H18.6339V10.7616L23.4758 10.6895V12.75L22.6488 13.5774ZM24.7179 13.5774V10.6708L28.8862 10.6088C28.9573 10.6078 29.016 10.6624 29.0215 10.7331L29.2172 13.5774H24.7179Z" fill="#4283F0"/>
</svg>
