<svg width="67" height="64" viewBox="0 0 67 64" fill="none" xmlns="http://www.w3.org/2000/svg">
<path d="M65.7982 60.2616C66.3524 61.2419 66.1857 62.4708 65.3899 63.2666C64.9077 63.7491 64.267 64 63.6181 64C63.1962 64 62.7713 63.8936 62.3849 63.6749C54.7234 59.3336 45.9892 57.0398 37.128 57.0398H34.624V52.5335C37.4395 49.092 40.2549 45.6495 43.0727 42.2077C43.6831 41.462 44.2601 40.6828 44.9184 39.9809C48.8662 35.7808 50.4183 30.8383 49.3902 25.1707C48.0476 17.7667 41.8092 12.4023 34.624 11.7219V6.9607H37.128C45.9904 6.9607 54.7234 4.66695 62.3849 0.325336C63.3639 -0.229805 64.5931 -0.0621033 65.3899 0.733654C66.1857 1.52967 66.3524 2.75863 65.7982 3.73793C61.6432 11.072 59.1619 22.578 59.1619 32.0006C59.1619 41.4223 61.6432 52.9285 65.7982 60.2616Z" fill="#4283F0"/>
<path d="M16.484 26.9123C16.1204 31.4037 17.4007 35.4132 20.2496 38.91C20.637 39.386 21.0838 39.8129 21.4735 40.2868C24.8182 44.3682 28.1587 48.4524 31.4994 52.5368V57.0398H28.9952C20.1339 57.0398 11.3997 59.3333 3.73851 63.6749C3.35207 63.8936 2.92691 64 2.50527 64C1.85609 64 1.21571 63.7488 0.733222 63.2666C-0.0625379 62.4708 -0.229232 61.2416 0.324909 60.2616C4.48021 52.9282 6.96127 41.4223 6.96127 32.0006C6.96127 22.578 4.48021 11.072 0.324909 3.73793C-0.229232 2.75863 -0.0625379 1.52942 0.733222 0.733654C1.53024 -0.0621033 2.75921 -0.229805 3.73851 0.325336C11.3997 4.66695 20.1329 6.9607 28.9952 6.9607H31.4994V11.7239C31.0254 11.769 30.5502 11.8356 30.0743 11.9241C22.6577 13.2981 17.0935 19.4042 16.484 26.9123Z" fill="#4283F0"/>
<path d="M40.1874 28.3175C40.1811 31.7122 37.8042 34.5445 34.6239 35.2548C34.1188 35.3672 33.5938 35.4258 33.0552 35.4258C32.521 35.4258 32 35.3662 31.4992 35.2548C28.3076 34.5445 25.9294 31.6987 25.9326 28.2873C25.9356 24.8853 28.3116 22.051 31.4992 21.3417C32.0063 21.2271 32.5335 21.1677 33.0751 21.1687C33.6074 21.1697 34.1261 21.2281 34.6239 21.3404C37.8167 22.051 40.1947 24.9029 40.1874 28.3175Z" fill="#4283F0"/>
</svg>
