<svg width="320" height="320" viewBox="0 0 320 320" fill="none" xmlns="http://www.w3.org/2000/svg">
<g clip-path="url(#clip0_285_3907)">
<path d="M160.117 320.001C227.008 320.001 281.233 265.775 281.233 198.884C281.233 131.993 227.008 77.7671 160.117 77.7671C93.2258 77.7671 39 131.993 39 198.884C39 265.775 93.2258 320.001 160.117 320.001Z" fill="#4283F0"/>
<path opacity="0.86" d="M160.117 320C227.008 320 281.233 265.775 281.233 198.884C281.233 131.993 227.008 77.7671 160.117 77.7671C93.2258 77.7671 39 131.993 39 198.884C39 265.775 93.2258 320 160.117 320Z" fill="#F5F5F5"/>
<path opacity="0.1" d="M96.3556 200.747L121.603 236.681L79.3898 243.704L65.2515 224.626L96.3556 200.747Z" fill="#4283F0"/>
<path opacity="0.1" d="M258.944 145.487L241.978 131.361L223.127 158.038L229.024 164.86L258.944 145.487Z" fill="#4283F0"/>
<path opacity="0.1" d="M85.5161 158.038L101.117 146.391L114.276 167.772L99.0928 175.748L85.5161 158.038Z" fill="#4283F0"/>
<path opacity="0.1" d="M177.591 287.2L195.545 272.591L206.633 287.2L186.638 300.867L177.591 287.2Z" fill="#4283F0"/>
<path opacity="0.1" d="M105.711 181.635L122.004 169.731L134.999 186.819L127.931 194.039L138.46 207.622L148.195 200.746L159.539 215.096L138.46 230.647L105.711 181.635Z" fill="#4283F0"/>
<path d="M281.055 205.499L220.379 246.58L248.328 281.875C247.497 282.763 246.651 283.635 245.791 284.493L217.428 248.675L168.147 285.412L189.974 316.292C188.718 316.613 187.453 316.912 186.181 317.187L164.181 286.059L133.313 243.015L79.2736 253.902L83.5973 292.767C82.2323 291.655 80.8942 290.513 79.5828 289.342L75.5642 253.216L39.6743 211.697C39.4576 209.682 39.2943 207.652 39.1846 205.607L77.9729 250.482L131.001 239.795L56.5743 136.016C57.2487 134.904 57.9419 133.804 58.6538 132.716L134.886 239.012L135.303 238.928L190.912 199.798L151.522 148.661L157.21 77.8049C158.178 77.7808 159.147 77.7688 160.117 77.7688C160.358 77.7688 160.599 77.7688 160.84 77.7728L155.235 147.561L193.871 197.715L268.658 145.092C269.204 146.184 269.731 147.287 270.24 148.4L137.09 242.087L166.05 282.47L218.083 243.682L218.131 243.742L281.211 201.032C281.187 202.528 281.135 204.014 281.055 205.499Z" fill="#F5F5F5"/>
<path d="M160.114 5.14795C121.991 5.14795 91.209 35.9619 91.209 73.9682C91.209 85.919 95.7454 99.3801 99.6158 106.96C112.321 131.857 159.348 201.472 159.348 201.472C159.427 201.605 159.54 201.715 159.675 201.792C159.81 201.868 159.962 201.909 160.117 201.909C160.272 201.909 160.424 201.868 160.559 201.792C160.693 201.715 160.806 201.605 160.886 201.472C160.886 201.472 207.912 131.857 220.617 106.96C224.486 99.3785 229.024 85.919 229.024 73.9682C229.024 35.9603 198.242 5.14795 160.12 5.14795H160.114Z" fill="#4283F0"/>
<path opacity="0.12" d="M160.114 5.14795C121.991 5.14795 91.209 35.9619 91.209 73.9682C91.209 85.919 95.7454 99.3801 99.6158 106.96C112.321 131.857 159.348 201.472 159.348 201.472C159.427 201.605 159.54 201.715 159.675 201.792C159.81 201.868 159.962 201.909 160.117 201.909C160.272 201.909 160.424 201.868 160.559 201.792C160.693 201.715 160.806 201.605 160.886 201.472C160.886 201.472 207.912 131.857 220.617 106.96C224.486 99.3785 229.024 85.919 229.024 73.9682C229.024 35.9603 198.242 5.14795 160.12 5.14795H160.114Z" fill="#F5F5F5"/>
<path d="M158.633 15.9406C159.128 15.9281 159.617 15.9406 160.115 15.9406C167.755 15.9407 175.318 17.4592 182.366 20.4081C189.414 23.3569 195.805 27.6771 201.169 33.1177C206.533 38.5583 210.761 45.0106 213.609 52.0998C216.457 59.1889 217.868 66.7735 217.759 74.4126C217.325 105.462 191.985 130.805 160.934 131.235C145.725 131.413 131.062 125.574 120.138 114.991C109.214 104.407 102.914 89.9359 102.611 74.7289C102.307 59.5219 108.024 44.8109 118.517 33.7999C129.01 22.7888 143.429 16.3697 158.633 15.9406Z" fill="#F5F5F5"/>
<path d="M177.591 0.913818C177.591 0.913818 194.269 1.11775 188.519 24.1025L186.953 24.1788L183.774 24.3338L177.591 0.913818Z" fill="black"/>
<path d="M158.968 48.2172C159.046 48.21 159.353 62.5463 176.017 61.9441C187.554 61.5286 192.129 49.4834 192.392 49.4935C191.162 49.1819 189.089 48.7175 188.549 48.4023C186.776 47.3585 184.575 46.259 184.126 42.719C183.869 40.6784 184.842 30.3285 184.746 28.2703L166.936 31.5264C167.014 35.8682 168.351 45.9787 162.23 47.5211C161.211 47.7761 160.118 48.0045 158.968 48.2172Z" fill="#EB8D65"/>
<path opacity="0.52" d="M166.221 43.5653C166.532 42.6848 166.746 41.7727 166.858 40.8455C167.135 38.7306 167.179 36.5918 166.99 34.4672C170.598 34.1222 174.036 32.7721 176.915 30.5703C177.196 31.7939 178.794 37.1541 178.25 38.2862C177.221 40.4264 172.649 43.815 166.221 43.5653Z" fill="black"/>
<path d="M170.264 41.0325C177.245 40.5343 185.668 36.2821 185.96 26.823L186.224 18.2878C186.517 8.82872 181.786 1.00682 172.879 0.731018C163.973 0.455621 157.079 7.91702 156.786 17.3773L156.67 21.1557C156.652 22.4537 156.723 23.7514 156.882 25.0398C157.277 28.4481 157.891 33.6309 160.134 37.1697C162.254 40.5106 165.803 41.3496 170.264 41.0325Z" fill="#EB8D65"/>
<path d="M185.318 29.6873C188.025 29.7712 190.308 26.9434 190.392 24.2368C190.476 21.5302 188.328 19.9697 185.621 19.8862L184.17 21.6566L182.991 29.6154L185.318 29.6873Z" fill="#EB8D65"/>
<path d="M157.245 27.8961C157.734 28.4759 158.36 28.9243 159.066 29.2002C159.773 29.4762 160.537 29.5711 161.289 29.4762C162.898 29.2755 163.967 29.9343 165.31 29.8014C166.438 29.6902 166.635 29.1695 168.558 29.0555C175.991 28.6139 181.566 28.147 181.929 18.8212L186.658 14.6208C186.658 14.6208 188.772 40.4628 174.794 43.898C166.206 46.0088 158.15 45.2364 157.114 37.1696C156.272 30.6151 157.245 27.8961 157.245 27.8961Z" fill="black"/>
<path d="M160.765 22.4998C161.371 22.4998 161.863 22.0084 161.863 21.4023C161.863 20.7961 161.371 20.3047 160.765 20.3047C160.159 20.3047 159.667 20.7961 159.667 21.4023C159.667 22.0084 160.159 22.4998 160.765 22.4998Z" fill="black"/>
<path d="M170.569 22.295C171.175 22.295 171.667 21.8036 171.667 21.1974C171.667 20.5913 171.175 20.0999 170.569 20.0999C169.963 20.0999 169.472 20.5913 169.472 21.1974C169.472 21.8036 169.963 22.295 170.569 22.295Z" fill="black"/>
<path d="M182.704 25.2883C182.704 25.2883 182.033 11.8838 177.989 10.9829C175.295 10.3831 168.669 14.099 162.617 12.8296C159.968 12.2748 157.435 12.8862 157.157 14.1367C157.047 14.6317 154.949 10.2402 159.21 4.89649C162.602 0.641088 173.629 -0.55484 178.536 0.949805C192.119 5.11648 186.169 20.4861 186.169 20.4861L185.475 25.0908L182.704 25.2883Z" fill="black"/>
<path d="M188.877 14.4796C192.875 14.4796 196.117 11.2382 196.117 7.2398C196.117 3.24137 192.875 0 188.877 0C184.879 0 181.637 3.24137 181.637 7.2398C181.637 11.2382 184.879 14.4796 188.877 14.4796Z" fill="black"/>
<path d="M165.443 29.3712H165.425C164.553 29.3467 163.093 29.2082 163.111 28.5554C163.127 28.0147 164.771 22.2205 164.957 21.5617C164.964 21.5322 164.976 21.5044 164.994 21.48C165.012 21.4556 165.034 21.435 165.06 21.4195C165.086 21.4041 165.115 21.3941 165.145 21.3901C165.175 21.3861 165.205 21.3883 165.234 21.3965C165.264 21.4047 165.291 21.4187 165.314 21.4377C165.338 21.4567 165.357 21.4803 165.371 21.507C165.385 21.5338 165.394 21.5631 165.396 21.5932C165.398 21.6233 165.394 21.6535 165.385 21.6821C164.655 24.2478 163.566 28.2005 163.555 28.5679C163.635 28.7244 164.535 28.9015 165.438 28.9272C165.497 28.9265 165.553 28.9492 165.595 28.9903C165.638 29.0315 165.662 29.0877 165.662 29.1465C165.663 29.2054 165.64 29.2622 165.599 29.3043C165.558 29.3464 165.502 29.3705 165.443 29.3712Z" fill="black"/>
<path d="M162.786 17.6737C161.884 17.4058 160.928 17.386 160.016 17.6163C159.567 17.7266 159.138 17.9036 158.742 18.1414C158.35 18.3747 157.99 18.6564 157.668 18.98C157.64 19.0047 157.618 19.0346 157.602 19.068C157.586 19.1014 157.577 19.1377 157.575 19.1747C157.573 19.2117 157.578 19.2487 157.59 19.2837C157.602 19.3186 157.622 19.3508 157.646 19.3784C157.671 19.406 157.701 19.4285 157.734 19.4445C157.768 19.4606 157.804 19.4699 157.841 19.4719C157.878 19.4739 157.915 19.4686 157.95 19.4564C157.985 19.4441 158.017 19.425 158.045 19.4003L158.062 19.3859C158.361 19.1158 158.694 18.8845 159.051 18.6974C159.402 18.511 159.78 18.3789 160.172 18.3055C160.944 18.1544 161.742 18.2098 162.486 18.4661L162.514 18.4766C162.62 18.5153 162.737 18.5106 162.839 18.4633C162.941 18.4161 163.02 18.3302 163.059 18.2247C163.097 18.1191 163.093 18.0025 163.045 17.9004C162.998 17.7983 162.912 17.7192 162.807 17.6805L162.786 17.6737Z" fill="black"/>
<path d="M169.253 18.4693C169.969 18.1412 170.758 18.0081 171.542 18.0835C171.938 18.1186 172.327 18.2133 172.695 18.3646C173.069 18.5163 173.422 18.7143 173.746 18.9539L173.765 18.9659C173.794 18.9879 173.828 19.0038 173.864 19.0126C173.9 19.0215 173.937 19.0232 173.974 19.0177C174.011 19.0121 174.046 18.9994 174.078 18.9803C174.109 18.9611 174.137 18.9359 174.159 18.9061C174.181 18.8763 174.197 18.8425 174.205 18.8065C174.214 18.7706 174.216 18.7332 174.211 18.6966C174.205 18.66 174.192 18.6249 174.173 18.5932C174.154 18.5615 174.129 18.5339 174.099 18.5119C173.748 18.2209 173.361 17.9754 172.948 17.7813C172.531 17.5831 172.087 17.4485 171.63 17.3822C170.701 17.2418 169.751 17.3544 168.88 17.7082C168.829 17.7295 168.782 17.7608 168.743 17.8002C168.703 17.8396 168.672 17.8864 168.651 17.9379C168.63 17.9893 168.619 18.0445 168.619 18.1002C168.619 18.1558 168.63 18.211 168.651 18.2624C168.672 18.3138 168.704 18.3605 168.743 18.3999C168.782 18.4392 168.829 18.4704 168.881 18.4917C168.932 18.513 168.987 18.5239 169.043 18.5238C169.099 18.5238 169.154 18.5128 169.205 18.4914L169.226 18.4826L169.253 18.4693Z" fill="black"/>
<path d="M121.125 48.6062L121.601 36.8179C121.611 36.5589 121.568 36.3006 121.473 36.0594C121.378 35.8182 121.234 35.5994 121.05 35.4169C120.866 35.2344 120.646 35.0923 120.404 34.9995C120.161 34.9068 119.903 34.8654 119.644 34.8781C119.166 34.9163 118.72 35.1305 118.392 35.4792C118.063 35.8278 117.876 36.2861 117.867 36.7649L117.765 39.2941L114.437 31.1956C114.083 30.2891 113.068 29.4031 112.077 29.8676C111.685 30.0217 111.356 30.3043 111.144 30.6692C110.933 31.0342 110.852 31.46 110.913 31.8772C110.904 31.8784 110.894 31.8804 110.885 31.8833C110.879 31.8865 110.874 31.8917 110.867 31.8953L110.321 30.4974C110.22 30.2385 110.062 30.0053 109.86 29.815C109.657 29.6247 109.414 29.4821 109.149 29.3975C108.884 29.3129 108.604 29.2884 108.328 29.3259C108.053 29.3634 107.789 29.4619 107.557 29.6142C107.195 29.8616 106.93 30.2255 106.805 30.6451C106.68 31.0647 106.702 31.5146 106.869 31.9194L107.1 32.5176C107.086 32.5321 107.075 32.5491 107.066 32.5677C106.816 32.2023 106.444 31.9378 106.017 31.8215C105.589 31.7052 105.134 31.7447 104.734 31.933C104.301 32.152 103.967 32.5261 103.798 32.9806C103.629 33.4351 103.637 33.9366 103.821 34.3851L104.399 35.8625C104.376 35.8474 104.35 35.838 104.323 35.835C104.295 35.832 104.268 35.8355 104.242 35.8452C104.212 35.8585 104.187 35.8801 104.169 35.9074C103.856 35.6439 103.465 35.4906 103.056 35.471C102.647 35.4515 102.243 35.5669 101.906 35.7994C101.557 36.0507 101.302 36.4125 101.185 36.8263C101.067 37.24 101.092 37.6814 101.257 38.0789L106.129 50.5464C106.811 52.2904 107.998 53.7912 109.538 54.8563C111.078 55.9213 112.901 56.5022 114.773 56.5244C116.388 56.5435 117.946 55.9324 119.118 54.8209C120.289 53.7094 120.98 52.185 121.046 50.5717L121.125 48.6062Z" fill="#EB8D65"/>
<g opacity="0.2">
<path d="M114.165 39.907C114.123 39.9231 114.077 39.922 114.036 39.9042C113.994 39.8863 113.962 39.8531 113.945 39.8115L110.79 32.108C110.781 32.087 110.776 32.0645 110.776 32.0417C110.776 32.0189 110.781 31.9963 110.789 31.9752C110.798 31.9542 110.811 31.935 110.827 31.9189C110.843 31.9029 110.862 31.8901 110.883 31.8815C110.904 31.8729 110.927 31.8685 110.95 31.8687C110.973 31.8688 110.995 31.8735 111.016 31.8824C111.037 31.8914 111.056 31.9044 111.072 31.9207C111.088 31.937 111.1 31.9563 111.109 31.9775L114.263 39.681C114.272 39.702 114.276 39.7244 114.276 39.747C114.276 39.7697 114.272 39.7921 114.263 39.813C114.254 39.8339 114.241 39.8528 114.225 39.8687C114.209 39.8847 114.19 39.8973 114.169 39.9058L114.165 39.907Z" fill="black"/>
</g>
<g opacity="0.2">
<path d="M110.806 41.3922C110.764 41.4082 110.718 41.4072 110.676 41.3893C110.635 41.3715 110.602 41.3382 110.585 41.2966L107.065 32.6995C107.056 32.6786 107.052 32.6562 107.052 32.6336C107.052 32.611 107.056 32.5887 107.065 32.5678C107.074 32.547 107.087 32.528 107.103 32.5121C107.119 32.4962 107.138 32.4836 107.159 32.4751C107.201 32.4593 107.248 32.4602 107.29 32.4776C107.331 32.4951 107.365 32.5278 107.383 32.569L110.904 41.1661C110.921 41.2085 110.921 41.2559 110.903 41.298C110.886 41.3402 110.852 41.3736 110.81 41.391L110.806 41.3922Z" fill="black"/>
</g>
<g opacity="0.2">
<path d="M107.177 43.0216C107.135 43.0376 107.088 43.0366 107.047 43.0188C107.006 43.0009 106.973 42.9676 106.956 42.9261L104.146 36.0684C104.138 36.0475 104.133 36.025 104.133 36.0024C104.133 35.9798 104.138 35.9574 104.147 35.9365C104.155 35.9156 104.168 35.8967 104.184 35.8807C104.2 35.8648 104.22 35.8522 104.24 35.8436C104.261 35.8351 104.284 35.8307 104.307 35.8308C104.329 35.8309 104.352 35.8355 104.372 35.8442C104.393 35.853 104.412 35.8658 104.428 35.8819C104.444 35.898 104.457 35.917 104.465 35.938L107.275 42.7956C107.293 42.8379 107.293 42.8853 107.275 42.9274C107.257 42.9695 107.224 43.003 107.182 43.0204L107.177 43.0216Z" fill="black"/>
</g>
<path d="M163.51 31.7774C166.141 31.9521 168.756 31.2449 170.941 29.7673C171.017 29.7171 171.105 29.6894 171.196 29.6874C171.287 29.6854 171.377 29.7092 171.455 29.7561C171.533 29.803 171.596 29.871 171.637 29.9523C171.678 30.0336 171.695 30.1248 171.686 30.2154C171.511 31.7702 170.742 34.6285 167.481 34.9927C165.376 35.2275 163.85 33.6105 163.081 32.5354C163.029 32.4608 162.998 32.3728 162.994 32.2817C162.989 32.1906 163.011 32.1001 163.056 32.0207C163.101 31.9413 163.167 31.8763 163.247 31.8332C163.328 31.7902 163.419 31.7708 163.51 31.7774Z" fill="#F5F5F5"/>
<path d="M214.716 64.2089C213.136 59.7166 211.859 57.4765 210.236 55.7049C208.015 53.2801 204.673 50.8927 198.477 49.8091C194.692 49.1508 188.987 48.5582 188.987 48.5582C188.986 48.5683 188.985 48.5784 188.984 48.5883C188.918 49.1837 187.739 58.3436 176.542 58.4356C161.113 58.5644 162.221 47.9657 162.188 47.5325C162.191 47.5241 162.191 47.5185 162.188 47.5185C157.402 47.3322 145.467 47.225 140.661 51.9264C140.158 52.4155 139.694 52.9439 139.274 53.5065L139.208 53.4664L128.191 70.4029L125.44 47.9135L121.125 48.6048L107.123 50.8485L106.313 50.9774L101.324 51.7803L103.063 65.2595L107.049 96.1613C110.937 105.281 117.107 113.247 124.965 119.293C128.217 114.704 133.597 106.787 139.182 98.4901C139.27 98.3584 139.358 98.2268 139.448 98.0951V98.0979C139.448 98.1882 139.451 98.2814 139.454 98.3749C139.467 98.9674 139.484 99.6395 139.498 100.38C139.629 107.18 139.764 119.643 139.873 127.59C149.816 131.314 160.595 132.214 171.018 130.19C181.441 128.167 191.1 123.298 198.927 116.124C198.982 116.078 199.034 116.028 199.088 115.976C199.192 115.883 199.296 115.787 199.398 115.691C204.752 110.696 209.115 104.734 212.256 98.1196C215.727 90.8071 217.602 82.8398 217.756 74.747V74.7442L214.716 64.2089Z" fill="#09BA85"/>
<path d="M199.395 115.689C199.294 115.785 199.19 115.881 199.085 115.974C199.033 116.026 198.981 116.076 198.925 116.122L195.949 100.979L195.946 100.962L191.69 79.3174L192.228 79.1777L199.395 115.689Z" fill="black"/>
<path d="M139.524 100.38C139.455 100.378 139.389 100.349 139.339 100.3C139.29 100.251 139.261 100.185 139.258 100.115L138.708 88.014C138.706 87.9776 138.712 87.9412 138.724 87.907C138.736 87.8727 138.755 87.8412 138.78 87.8143C138.805 87.7874 138.834 87.7656 138.867 87.7501C138.9 87.7346 138.936 87.7258 138.972 87.7242C139.009 87.7225 139.045 87.728 139.079 87.7404C139.114 87.7528 139.145 87.7719 139.172 87.7964C139.199 87.821 139.221 87.8506 139.236 87.8836C139.252 87.9166 139.261 87.9523 139.262 87.9887L139.813 100.091C139.814 100.127 139.809 100.163 139.796 100.198C139.784 100.232 139.765 100.263 139.74 100.29C139.716 100.317 139.686 100.339 139.653 100.354C139.62 100.37 139.584 100.378 139.548 100.38C139.538 100.38 139.53 100.381 139.524 100.38Z" fill="black"/>
</g>
<defs>
<clipPath id="clip0_285_3907">
<rect width="242.233" height="320" fill="white" transform="translate(39)"/>
</clipPath>
</defs>
</svg>
