<svg width="320" height="320" viewBox="0 0 320 320" fill="none" xmlns="http://www.w3.org/2000/svg">
<g clip-path="url(#clip0_285_3968)">
<path d="M35.7206 320C32.8547 320.007 30.0905 318.271 27.9701 315.132C25.8496 311.992 24.5259 307.676 24.2585 303.03C22.7722 276.512 26.3646 226.036 71.0915 204.262C119.452 180.718 106.082 84 144.708 84C183.334 84 189.314 135.068 199.673 144.613C218.138 161.629 229.138 147.121 242.702 188.475C258.818 237.609 291.137 211.534 307.742 272.69C309.331 278.649 310.61 284.816 311.564 291.124C313.833 305.795 306.958 320 297.668 320H35.7206Z" fill="#E3EEFF"/>
<path d="M87.0669 8.66164V15.3704H56.2964C53.0352 15.3705 49.9077 16.6661 47.6017 18.9721C45.2957 21.2781 44.0001 24.4057 44 27.6668V247.704C44 250.965 45.2955 254.092 47.6015 256.398C49.9076 258.704 53.0352 260 56.2964 260H220.566C222.181 260 223.78 259.683 225.273 259.065C226.765 258.447 228.121 257.542 229.263 256.4C230.405 255.258 231.311 253.902 231.929 252.41C232.547 250.918 232.866 249.319 232.865 247.704V27.6668C232.865 26.0518 232.547 24.4526 231.929 22.9605C231.311 21.4684 230.405 20.1128 229.263 18.9709C228.121 17.829 226.765 16.9233 225.273 16.3056C223.78 15.6878 222.181 15.37 220.566 15.3704H189.796V8.66164C189.796 7.52421 189.573 6.39791 189.137 5.34704C188.702 4.29616 188.064 3.3413 187.26 2.53699C186.456 1.73267 185.501 1.09464 184.45 0.659344C183.399 0.224046 182.273 -5.60888e-09 181.136 0L95.7277 0C94.5903 -5.60887e-09 93.464 0.224046 92.4132 0.659344C91.3623 1.09464 90.4075 1.73267 89.6033 2.53699C88.7991 3.3413 88.1611 4.29616 87.7259 5.34704C87.2907 6.39791 87.0668 7.52421 87.0669 8.66164Z" fill="#C5DAF0"/>
<path d="M55.3726 31.1563L55.3726 244.214C55.3726 247.27 57.8504 249.748 60.9069 249.748H215.956C219.012 249.748 221.49 247.27 221.49 244.214V31.1563C221.49 28.0998 219.012 25.622 215.956 25.622H60.9069C57.8504 25.622 55.3726 28.0998 55.3726 31.1563Z" fill="white"/>
<path d="M98.0835 15.744V35.5001C98.0835 37.5785 99.7684 39.2634 101.847 39.2634L175.015 39.2634C177.094 39.2634 178.778 37.5785 178.778 35.5001V15.744C178.778 13.6655 177.094 11.9806 175.015 11.9806L101.847 11.9806C99.7684 11.9806 98.0835 13.6655 98.0835 15.744Z" fill="#09BA85"/>
<path d="M90.5748 112.336H72.4697C70.6274 112.334 68.8612 111.601 67.5585 110.298C66.2558 108.996 65.523 107.229 65.521 105.387V87.2818C65.5233 85.4396 66.2561 83.6736 67.5588 82.371C68.8614 81.0684 70.6276 80.3357 72.4697 80.3335H90.5748C92.4172 80.3357 94.1834 81.0685 95.4861 82.3713C96.7888 83.674 97.5215 85.4403 97.5236 87.2827V105.388C97.5213 107.23 96.7885 108.996 95.4858 110.299C94.1831 111.601 92.417 112.334 90.5748 112.336ZM72.4697 83.8543C71.561 83.8555 70.6898 84.217 70.0472 84.8596C69.4047 85.5022 69.0433 86.3735 69.0422 87.2822V105.387C69.0433 106.296 69.4047 107.167 70.0472 107.81C70.6898 108.453 71.561 108.814 72.4697 108.815H90.5748C91.4836 108.814 92.3549 108.453 92.9975 107.81C93.64 107.167 94.0014 106.296 94.0023 105.387V87.2822C94.0014 86.3734 93.64 85.5021 92.9975 84.8595C92.3549 84.2168 91.4836 83.8553 90.5748 83.8543H72.4697Z" fill="#E3EEFF"/>
<path d="M77.7463 103.321C77.5205 103.321 77.2973 103.273 77.0916 103.18C76.8859 103.087 76.7025 102.951 76.5537 102.782L71.1781 96.6388C70.9065 96.3218 70.771 95.9104 70.801 95.494C70.831 95.0776 71.024 94.6899 71.3383 94.415C71.6525 94.1402 72.0625 94.0004 72.4791 94.0261C72.8958 94.0518 73.2855 94.2409 73.5636 94.5522L77.9183 99.5271L89.6548 89.7159C89.9781 89.4544 90.3913 89.3304 90.8052 89.3708C91.2191 89.4111 91.6006 89.6126 91.8673 89.9317C92.134 90.2508 92.2646 90.6619 92.2309 91.0764C92.1972 91.4909 92.0019 91.8756 91.6872 92.1474L78.7625 102.954C78.4775 103.192 78.1177 103.322 77.7463 103.321Z" fill="black"/>
<g opacity="0.62">
<path d="M105.207 96.3346V96.3351C105.207 97.5005 106.152 98.4453 107.317 98.4453H207.535C208.701 98.4453 209.645 97.5005 209.645 96.3351V96.3346C209.645 95.1692 208.701 94.2244 207.535 94.2244H107.317C106.152 94.2244 105.207 95.1692 105.207 96.3346Z" fill="#E3EEFF"/>
<path d="M105.207 83.3971V83.3976C105.207 84.563 106.152 85.5078 107.317 85.5078H207.535C208.701 85.5078 209.646 84.563 209.646 83.3976V83.3971C209.646 82.2317 208.701 81.2869 207.535 81.2869H107.317C106.152 81.2869 105.207 82.2317 105.207 83.3971Z" fill="#E3EEFF"/>
<path d="M105.207 109.272V109.272C105.207 110.438 106.151 111.382 107.317 111.382H189.929C191.094 111.382 192.039 110.438 192.039 109.272V109.272C192.039 108.106 191.094 107.161 189.929 107.161H107.317C106.151 107.161 105.207 108.106 105.207 109.272Z" fill="#E3EEFF"/>
</g>
<path d="M90.5748 153.004H72.4697C70.6274 153.002 68.8612 152.269 67.5585 150.966C66.2558 149.663 65.523 147.897 65.521 146.055V127.95C65.523 126.107 66.2558 124.341 67.5585 123.038C68.8612 121.736 70.6275 121.003 72.4697 121.001H90.5748C92.4171 121.003 94.1834 121.736 95.4861 123.038C96.7888 124.341 97.5215 126.107 97.5236 127.95V146.055C97.5215 147.897 96.7888 149.663 95.4861 150.966C94.1834 152.269 92.4172 153.002 90.5748 153.004ZM72.4697 124.522C71.561 124.523 70.6898 124.885 70.0472 125.528C69.4047 126.17 69.0433 127.041 69.0422 127.95V146.055C69.0433 146.964 69.4047 147.835 70.0472 148.478C70.6898 149.121 71.561 149.482 72.4697 149.483H90.5748C91.4836 149.482 92.3549 149.121 92.9975 148.478C93.64 147.835 94.0014 146.964 94.0023 146.055V127.95C94.0014 127.041 93.64 126.17 92.9975 125.527C92.3549 124.885 91.4836 124.523 90.5748 124.522H72.4697Z" fill="#E3EEFF"/>
<path d="M77.7464 143.99C77.5204 143.99 77.2969 143.942 77.0911 143.849C76.8852 143.755 76.7018 143.619 76.553 143.449L71.1774 137.306C70.9008 136.989 70.7611 136.576 70.7892 136.157C70.8173 135.737 71.0107 135.346 71.3271 135.07C71.6434 134.793 72.0567 134.653 72.476 134.682C72.8953 134.71 73.2863 134.903 73.5629 135.219L77.9184 140.197L89.6549 130.386C89.8146 130.252 89.9989 130.152 90.1975 130.089C90.396 130.027 90.6049 130.005 90.8121 130.023C91.0193 130.042 91.2209 130.101 91.4053 130.197C91.5896 130.294 91.7532 130.425 91.8867 130.585C92.0201 130.745 92.1208 130.929 92.183 131.128C92.2452 131.326 92.2677 131.535 92.2492 131.742C92.2307 131.949 92.1716 132.151 92.0752 132.335C91.9788 132.52 91.847 132.683 91.6874 132.817L78.7622 143.621C78.4776 143.86 78.1178 143.99 77.7464 143.99Z" fill="black"/>
<g opacity="0.62">
<path d="M105.208 137.002V137.003C105.208 138.168 106.152 139.113 107.318 139.113H207.536C208.701 139.113 209.646 138.168 209.646 137.003V137.002C209.646 135.837 208.701 134.892 207.536 134.892H107.318C106.152 134.892 105.208 135.837 105.208 137.002Z" fill="#E3EEFF"/>
<path d="M105.207 124.065V124.065C105.207 125.231 106.152 126.176 107.317 126.176H207.535C208.701 126.176 209.645 125.231 209.645 124.065V124.065C209.645 122.899 208.701 121.955 207.535 121.955H107.317C106.152 121.955 105.207 122.899 105.207 124.065Z" fill="#E3EEFF"/>
<path d="M105.208 149.939V149.94C105.208 151.105 106.152 152.05 107.318 152.05H189.93C191.095 152.05 192.04 151.105 192.04 149.94V149.939C192.04 148.774 191.095 147.829 189.93 147.829H107.318C106.152 147.829 105.208 148.774 105.208 149.939Z" fill="#E3EEFF"/>
</g>
<path d="M90.5748 193.672H72.4697C70.6274 193.67 68.8612 192.937 67.5585 191.634C66.2558 190.332 65.523 188.565 65.521 186.723V168.618C65.5232 166.776 66.256 165.009 67.5586 163.707C68.8613 162.404 70.6275 161.671 72.4697 161.669H90.5748C92.4171 161.671 94.1834 162.404 95.4861 163.707C96.7888 165.009 97.5215 166.776 97.5236 168.618V186.723C97.5215 188.565 96.7888 190.332 95.4861 191.634C94.1834 192.937 92.4172 193.67 90.5748 193.672ZM72.4697 165.19C71.561 165.192 70.6898 165.553 70.0472 166.196C69.4047 166.838 69.0433 167.71 69.0422 168.618V186.723C69.0432 187.632 69.4045 188.504 70.0471 189.146C70.6897 189.789 71.561 190.15 72.4697 190.151H90.5748C91.4836 190.15 92.3549 189.789 92.9975 189.146C93.64 188.504 94.0014 187.632 94.0023 186.723V168.618C94.0014 167.71 93.64 166.838 92.9975 166.196C92.3549 165.553 91.4836 165.191 90.5748 165.19H72.4697Z" fill="#E3EEFF"/>
<path d="M77.7466 184.658C77.5206 184.658 77.2971 184.61 77.0912 184.517C76.8854 184.423 76.7019 184.287 76.5532 184.117L71.1776 177.974C70.906 177.657 70.7705 177.245 70.8005 176.829C70.8305 176.412 71.0235 176.025 71.3378 175.75C71.652 175.475 72.062 175.335 72.4786 175.361C72.8953 175.387 73.285 175.576 73.5631 175.887L77.9186 180.864L89.6551 171.053C89.9775 170.783 90.3938 170.653 90.8123 170.69C91.2308 170.728 91.6174 170.93 91.8869 171.252C92.1564 171.575 92.2868 171.991 92.2494 172.409C92.212 172.828 92.0099 173.214 91.6876 173.484L78.7624 184.289C78.4777 184.527 78.118 184.658 77.7466 184.658Z" fill="black"/>
<g opacity="0.62">
<path d="M105.208 177.671V177.671C105.208 178.836 106.152 179.781 107.318 179.781H207.536C208.701 179.781 209.646 178.836 209.646 177.671V177.671C209.646 176.505 208.701 175.56 207.536 175.56H107.318C106.152 175.56 105.208 176.505 105.208 177.671Z" fill="#E3EEFF"/>
<path d="M105.207 164.734V164.734C105.207 165.899 106.152 166.844 107.317 166.844H207.535C208.701 166.844 209.645 165.899 209.645 164.734V164.734C209.645 163.568 208.701 162.623 207.535 162.623H107.317C106.152 162.623 105.207 163.568 105.207 164.734Z" fill="#E3EEFF"/>
<path d="M105.208 190.608V190.608C105.208 191.773 106.152 192.718 107.318 192.718H189.93C191.095 192.718 192.04 191.773 192.04 190.608V190.608C192.04 189.442 191.095 188.497 189.93 188.497H107.318C106.152 188.497 105.208 189.442 105.208 190.608Z" fill="#E3EEFF"/>
</g>
<path d="M90.5748 234.542H72.4697C70.6275 234.54 68.8613 233.807 67.5586 232.504C66.256 231.202 65.5232 229.436 65.521 227.593V209.488C65.523 207.646 66.2558 205.88 67.5585 204.577C68.8612 203.274 70.6274 202.541 72.4697 202.539H90.5748C92.4172 202.541 94.1834 203.274 95.4861 204.577C96.7888 205.88 97.5215 207.646 97.5236 209.488V227.593C97.5215 229.436 96.7888 231.202 95.4861 232.505C94.1834 233.807 92.4171 234.54 90.5748 234.542ZM72.4697 206.061C71.561 206.062 70.6897 206.423 70.0471 207.066C69.4045 207.709 69.0432 208.58 69.0422 209.489V227.594C69.0433 228.503 69.4047 229.374 70.0472 230.016C70.6898 230.659 71.561 231.021 72.4697 231.022H90.5748C91.4836 231.021 92.3549 230.659 92.9975 230.017C93.64 229.374 94.0014 228.503 94.0023 227.594V209.489C94.0014 208.58 93.64 207.709 92.9975 207.066C92.3549 206.423 91.4836 206.062 90.5748 206.061H72.4697Z" fill="#E3EEFF"/>
<path d="M77.7466 225.528C77.5206 225.528 77.2971 225.48 77.0912 225.386C76.8853 225.293 76.7019 225.156 76.5532 224.986L71.1776 218.843C70.906 218.526 70.7705 218.115 70.8005 217.698C70.8305 217.282 71.0235 216.894 71.3378 216.619C71.652 216.345 72.062 216.205 72.4786 216.231C72.8953 216.256 73.285 216.445 73.5631 216.757L77.9186 221.734L89.6551 211.922C89.8143 211.785 89.9992 211.681 90.199 211.615C90.3989 211.55 90.6098 211.525 90.8193 211.542C91.0289 211.559 91.233 211.618 91.4197 211.715C91.6064 211.811 91.772 211.944 91.9069 212.106C92.0417 212.267 92.1431 212.453 92.2051 212.654C92.2672 212.855 92.2886 213.066 92.2682 213.276C92.2478 213.485 92.1859 213.688 92.0862 213.873C91.9866 214.058 91.851 214.222 91.6876 214.354L78.7624 225.159C78.4778 225.397 78.1181 225.528 77.7466 225.528Z" fill="black"/>
<g opacity="0.62">
<path d="M105.208 218.54V218.541C105.208 219.706 106.152 220.651 107.318 220.651H207.536C208.701 220.651 209.646 219.706 209.646 218.541V218.54C209.646 217.375 208.701 216.43 207.536 216.43H107.318C106.152 216.43 105.208 217.375 105.208 218.54Z" fill="#E3EEFF"/>
<path d="M105.208 205.603V205.604C105.208 206.769 106.152 207.714 107.318 207.714H207.536C208.701 207.714 209.646 206.769 209.646 205.604V205.603C209.646 204.438 208.701 203.493 207.536 203.493H107.318C106.152 203.493 105.208 204.438 105.208 205.603Z" fill="#E3EEFF"/>
<path d="M105.207 231.477V231.478C105.207 232.643 106.152 233.588 107.317 233.588H189.929C191.095 233.588 192.04 232.643 192.04 231.478V231.477C192.04 230.312 191.095 229.367 189.929 229.367H107.317C106.152 229.367 105.207 230.312 105.207 231.477Z" fill="#E3EEFF"/>
</g>
<path d="M95.7028 50.1942C94.3234 50.1942 93.2051 51.3125 93.2051 52.692C93.2051 54.0714 94.3234 55.1897 95.7028 55.1897L181.161 55.1897C182.54 55.1897 183.659 54.0714 183.659 52.692C183.659 51.3125 182.54 50.1942 181.161 50.1942L95.7028 50.1942Z" fill="#D7EAF7"/>
<path d="M106.121 61.4008C104.741 61.4008 103.623 62.519 103.623 63.8985C103.623 65.278 104.741 66.3962 106.121 66.3962H170.742C172.122 66.3962 173.24 65.278 173.24 63.8985C173.24 62.519 172.122 61.4008 170.742 61.4008L106.121 61.4008Z" fill="#D7EAF7"/>
<path d="M226.976 237.02C226.976 237.02 232.561 235.623 237.348 235.623C239.95 235.623 241.989 235.745 243.307 235.856C243.763 235.895 244.185 236.112 244.482 236.46C244.779 236.808 244.927 237.259 244.893 237.715L244.728 240.011L226.976 237.02Z" fill="#C5DAF0"/>
<path d="M57.98 305.977H276.042L267.067 275.261H72.1413L57.98 305.977Z" fill="#C5DAF0"/>
<g opacity="0.78">
<path d="M57.98 305.977H276.042L267.067 275.261H72.1413L57.98 305.977Z" fill="black"/>
</g>
<path d="M294.739 297.077C294.281 299.34 293.618 301.195 292.731 302.439C286.614 310.951 270.925 310.686 270.925 310.686C271.025 307.641 270.813 304.594 270.293 301.593C268.682 292.04 263.238 278.472 245.327 279.104C227.181 279.746 222.441 294.285 221.248 303.407C220.923 305.819 220.814 308.255 220.922 310.686H114.163C114.08 308.655 113.862 306.632 113.511 304.63C111.88 294.834 106.161 276.75 86.2413 278.502C68.2469 280.092 64.9145 295.537 64.5169 304.437C64.4049 306.521 64.4602 308.611 64.6824 310.686C64.6824 310.686 54.6205 309.218 49.5233 307.045C48.8221 306.748 48.1953 306.3 47.6875 305.733C47.1798 305.165 46.8038 304.492 46.5863 303.763L46.1991 302.478L44.0692 295.395C43.9196 294.895 43.8759 294.369 43.9408 293.851C44.0058 293.333 44.178 292.835 44.4464 292.387L46.0775 289.676C45.8221 288.14 45.7366 286.581 45.8227 285.027C45.9654 281.857 46.832 277.708 49.9208 274.67L49.9411 274.649C51.4065 273.242 53.1795 272.195 55.1198 271.591C69.9529 266.739 98.9965 261.284 102.463 260.153C109.429 258.003 116.148 255.118 122.506 251.549C139.07 242.231 164.819 234.031 185.232 233.29C217.847 232.108 247.246 234.096 293.793 256.432C293.793 256.432 293.864 256.941 293.976 257.849V257.859C294.292 260.417 294.935 266.137 295.363 272.722C295.891 281.021 296.064 290.685 294.739 297.077Z" fill="#E3EEFF"/>
<path d="M58.9814 278.044C58.9814 280.501 57.7172 283.977 45.8203 285.027C45.963 281.857 46.8296 277.708 49.9185 274.67L49.9387 274.65C50.4691 274.65 58.9814 275.577 58.9814 278.044Z" fill="#F5F5F5"/>
<path d="M295.361 272.723H279.632C278.337 272.723 275.34 271.621 276.543 266.239C277.735 260.856 293.975 257.849 293.975 257.849V257.859C294.291 260.418 294.933 266.137 295.361 272.723Z" fill="#ED5D5A"/>
<g opacity="0.76">
<path d="M235.775 241.477L234.256 256.881L185.474 258.908L187.768 235.675C188.818 235.644 189.878 235.624 190.949 235.624C212.408 235.626 224.428 237.858 235.775 241.477Z" fill="black"/>
</g>
<g opacity="0.76">
<path d="M248.905 256.299L236.601 256.789L238.038 242.231C242.508 243.775 246.828 245.724 250.944 248.052C254.798 250.234 253.33 256.126 248.905 256.299Z" fill="black"/>
</g>
<path d="M175.289 267.136H165.715C165.219 267.136 164.817 267.538 164.817 268.034C164.817 268.53 165.219 268.932 165.715 268.932H175.289C175.785 268.932 176.186 268.53 176.186 268.034C176.186 267.538 175.785 267.136 175.289 267.136Z" fill="#C5DAF0"/>
<path d="M64.6805 310.686C64.6805 310.686 54.6186 309.218 49.5215 307.046C48.8203 306.749 48.1934 306.3 47.6857 305.733C47.1779 305.165 46.8019 304.493 46.5844 303.763L46.1973 302.479C49.7345 303.161 55.5353 303.977 64.5163 304.436C64.4038 306.52 64.4587 308.61 64.6805 310.686Z" fill="#C5DAF0"/>
<path d="M221.248 303.408C220.923 305.819 220.814 308.255 220.922 310.686H114.164C114.08 308.656 113.862 306.633 113.511 304.631C147.988 304.325 191.715 303.764 221.248 303.408Z" fill="#C5DAF0"/>
<path d="M294.739 297.077C294.28 299.341 293.617 301.196 292.73 302.439C286.614 310.952 270.925 310.686 270.925 310.686C271.024 307.642 270.813 304.595 270.292 301.593C279.834 300.676 289.702 299.249 294.739 297.077Z" fill="#C5DAF0"/>
<path d="M181.524 306.599L180.699 306.571L183.868 258.526L184.693 258.553L181.524 306.599Z" fill="#C5DAF0"/>
<path d="M120.205 261.621H119.378V307.047H120.205V261.621Z" fill="#C5DAF0"/>
<g opacity="0.76">
<path d="M185.423 235.768L183.13 259.001L120.178 261.6C119.938 261.612 119.7 261.544 119.501 261.408C119.303 261.272 119.154 261.074 119.078 260.846C119.002 260.617 119.003 260.37 119.08 260.142C119.157 259.914 119.306 259.718 119.505 259.582C128.364 253.639 152.455 237.45 185.423 235.768Z" fill="black"/>
</g>
<path d="M118.115 259.955H123.101C124.556 259.955 125.951 260.533 126.98 261.562C128.009 262.591 128.586 263.986 128.586 265.441C128.586 265.89 128.408 266.322 128.09 266.64C127.772 266.958 127.34 267.137 126.89 267.137H118.115C117.665 267.137 117.234 266.958 116.916 266.64C116.598 266.322 116.419 265.89 116.419 265.441V261.651C116.419 261.201 116.598 260.77 116.916 260.452C117.234 260.134 117.665 259.955 118.115 259.955Z" fill="#C5DAF0"/>
<path d="M88.7855 321.027C99.8816 321.027 108.877 312.032 108.877 300.936C108.877 289.84 99.8816 280.845 88.7855 280.845C77.6895 280.845 68.6943 289.84 68.6943 300.936C68.6943 312.032 77.6895 321.027 88.7855 321.027Z" fill="black"/>
<path d="M88.7865 288.081C91.3291 288.081 93.8145 288.834 95.9286 290.247C98.0426 291.66 99.6903 293.667 100.663 296.016C101.636 298.365 101.891 300.95 101.395 303.444C100.899 305.938 99.6745 308.228 97.8766 310.026C96.0788 311.824 93.7882 313.048 91.2945 313.544C88.8008 314.04 86.216 313.786 83.8669 312.813C81.5179 311.84 79.5102 310.192 78.0976 308.078C76.6851 305.964 75.9311 303.478 75.9311 300.936C75.9349 297.528 77.2906 294.26 79.7006 291.85C82.1106 289.44 85.3782 288.084 88.7865 288.081ZM88.7865 286.729C85.9767 286.729 83.2301 287.563 80.8938 289.124C78.5576 290.685 76.7367 292.903 75.6615 295.499C74.5862 298.095 74.3049 300.952 74.8531 303.707C75.4012 306.463 76.7542 308.995 78.741 310.981C80.7278 312.968 83.2592 314.321 86.015 314.869C88.7707 315.418 91.6272 315.136 94.2231 314.061C96.8189 312.986 99.0377 311.165 100.599 308.829C102.16 306.492 102.993 303.746 102.993 300.936C102.993 297.168 101.496 293.555 98.8319 290.89C96.1677 288.226 92.5543 286.729 88.7865 286.729Z" fill="#F5F5F5"/>
<path d="M88.785 304.32C90.6542 304.32 92.1696 302.805 92.1696 300.936C92.1696 299.067 90.6542 297.551 88.785 297.551C86.9157 297.551 85.4004 299.067 85.4004 300.936C85.4004 302.805 86.9157 304.32 88.785 304.32Z" fill="#F5F5F5"/>
<path d="M92.7069 287.405L89.4613 300.936H88.1103L84.8643 287.405H92.7069Z" fill="#F5F5F5"/>
<path d="M84.8643 314.467L88.1103 300.936H89.4613L92.7069 314.467H84.8643Z" fill="#F5F5F5"/>
<path d="M98.3788 311.253L88.4385 301.516L89.1326 300.356L102.408 304.525L98.3788 311.253Z" fill="#F5F5F5"/>
<path d="M79.192 290.62L89.1323 300.356L88.4382 301.516L75.1621 297.347L79.192 290.62Z" fill="#F5F5F5"/>
<path d="M75.1621 304.525L88.4382 300.356L89.1323 301.516L79.192 311.253L75.1621 304.525Z" fill="#F5F5F5"/>
<path d="M102.408 297.347L89.1326 301.515L88.4385 300.356L98.3788 290.619L102.408 297.347Z" fill="#F5F5F5"/>
<path d="M88.7856 302.674C89.7456 302.674 90.5238 301.896 90.5238 300.936C90.5238 299.976 89.7456 299.198 88.7856 299.198C87.8256 299.198 87.0474 299.976 87.0474 300.936C87.0474 301.896 87.8256 302.674 88.7856 302.674Z" fill="black"/>
<path d="M245.771 321.027C256.867 321.027 265.862 312.032 265.862 300.936C265.862 289.84 256.867 280.845 245.771 280.845C234.675 280.845 225.68 289.84 225.68 300.936C225.68 312.032 234.675 321.027 245.771 321.027Z" fill="black"/>
<path d="M245.771 288.081C248.314 288.081 250.799 288.834 252.913 290.247C255.028 291.66 256.675 293.667 257.648 296.016C258.621 298.365 258.876 300.95 258.38 303.444C257.884 305.938 256.659 308.228 254.862 310.026C253.064 311.824 250.773 313.048 248.279 313.544C245.786 314.04 243.201 313.786 240.852 312.813C238.503 311.84 236.495 310.192 235.083 308.078C233.67 305.964 232.916 303.478 232.916 300.936C232.92 297.528 234.275 294.26 236.685 291.85C239.095 289.44 242.363 288.084 245.771 288.081ZM245.771 286.729C242.962 286.729 240.215 287.563 237.879 289.124C235.542 290.685 233.722 292.903 232.646 295.499C231.571 298.095 231.29 300.952 231.838 303.707C232.386 306.463 233.739 308.995 235.726 310.981C237.713 312.968 240.244 314.321 243 314.869C245.756 315.418 248.612 315.136 251.208 314.061C253.804 312.986 256.023 311.165 257.584 308.829C259.145 306.492 259.978 303.746 259.978 300.936C259.978 297.168 258.481 293.555 255.817 290.89C253.153 288.226 249.539 286.729 245.771 286.729Z" fill="#F5F5F5"/>
<path d="M245.771 304.32C247.64 304.32 249.155 302.805 249.155 300.936C249.155 299.067 247.64 297.551 245.771 297.551C243.902 297.551 242.386 299.067 242.386 300.936C242.386 302.805 243.902 304.32 245.771 304.32Z" fill="#F5F5F5"/>
<path d="M249.692 287.405L246.446 300.936H245.095L241.849 287.405H249.692Z" fill="#F5F5F5"/>
<path d="M241.849 314.467L245.095 300.936H246.446L249.692 314.467H241.849Z" fill="#F5F5F5"/>
<path d="M255.364 311.253L245.423 301.516L246.117 300.356L259.393 304.525L255.364 311.253Z" fill="#F5F5F5"/>
<path d="M236.177 290.62L246.118 300.356L245.423 301.516L232.147 297.347L236.177 290.62Z" fill="#F5F5F5"/>
<path d="M232.147 304.525L245.423 300.356L246.118 301.516L236.177 311.253L232.147 304.525Z" fill="#F5F5F5"/>
<path d="M259.393 297.347L246.117 301.515L245.423 300.356L255.364 290.619L259.393 297.347Z" fill="#F5F5F5"/>
<path d="M245.771 302.674C246.731 302.674 247.509 301.896 247.509 300.936C247.509 299.976 246.731 299.198 245.771 299.198C244.811 299.198 244.033 299.976 244.033 300.936C244.033 301.896 244.811 302.674 245.771 302.674Z" fill="black"/>
<path d="M185.424 235.768L187.768 235.677L185.475 258.909L183.13 259.001L185.424 235.768Z" fill="#C5DAF0"/>
<path d="M233.552 282.178L232.633 282.859L234.802 256.753L235.658 256.825L233.552 282.178Z" fill="#C5DAF0"/>
<path d="M235.775 241.477L238.038 242.231L236.601 256.788L234.256 256.88L235.775 241.477Z" fill="#C5DAF0"/>
<path d="M243.626 313.082L252.204 312.062C251.818 308.815 251.382 304.916 251.351 304.277C251.351 304.318 251.351 304.351 251.351 304.376H242.716C242.716 304.637 242.716 305.424 243.626 313.082Z" fill="#EB8D65"/>
<path d="M278.043 314.114L286.68 314.086C286.68 314.086 286.651 305.167 286.651 304.377H278.014C278.014 305.169 278.043 314.114 278.043 314.114Z" fill="#EB8D65"/>
<path d="M255.656 310.354L240.44 310.095C241.073 294.069 241.18 275.74 241.35 259.156C241.398 255.045 241.708 250.941 242.28 246.869C244.728 229.296 246.325 211.824 249.621 194.355L249.731 194.387L250.053 192.195L281.343 190.265L282.972 210.71C282.972 210.71 287.047 281.432 288.906 309.869L273.742 311.15C271.01 283.269 266.781 242.645 264.181 213.356C261.195 227.616 259.165 242.38 256.566 256.518C256.045 274.21 255.608 292.71 255.656 310.354Z" fill="black"/>
<path d="M267.543 317.455C267.31 317.454 267.081 317.405 266.868 317.311C266.656 317.217 266.465 317.08 266.308 316.91C266.15 316.739 266.03 316.537 265.954 316.318C265.878 316.098 265.848 315.865 265.866 315.634C265.892 315.313 266.008 315.006 266.202 314.748C266.395 314.491 266.658 314.295 266.96 314.182L277.013 310.816C277.208 310.752 277.414 310.73 277.618 310.753C277.822 310.775 278.019 310.842 278.194 310.948C279.576 311.907 281.23 312.397 282.911 312.347C284.221 312.253 285.478 311.794 286.539 311.021C286.632 310.944 286.746 310.896 286.866 310.881C286.985 310.867 287.107 310.886 287.216 310.938C287.325 310.99 287.417 311.072 287.481 311.174C287.546 311.277 287.579 311.395 287.579 311.516V316.432C287.579 316.577 287.55 316.721 287.494 316.855C287.439 316.989 287.357 317.11 287.255 317.213C287.152 317.315 287.03 317.396 286.896 317.451C286.762 317.506 286.618 317.534 286.473 317.534L267.543 317.455Z" fill="#C5DAF0"/>
<path d="M233.103 317.455C232.87 317.454 232.641 317.405 232.428 317.311C232.216 317.217 232.025 317.081 231.867 316.91C231.71 316.739 231.59 316.537 231.514 316.318C231.438 316.098 231.408 315.865 231.426 315.634C231.451 315.313 231.568 315.006 231.761 314.749C231.955 314.491 232.218 314.295 232.52 314.182L242.573 310.816C242.768 310.752 242.974 310.73 243.178 310.753C243.382 310.775 243.579 310.842 243.754 310.948C245.136 311.907 246.79 312.397 248.471 312.347C249.781 312.253 251.038 311.794 252.099 311.021C252.193 310.944 252.306 310.895 252.426 310.881C252.546 310.866 252.667 310.886 252.776 310.938C252.886 310.99 252.978 311.072 253.042 311.174C253.106 311.277 253.14 311.395 253.139 311.516V316.432C253.139 316.577 253.11 316.721 253.054 316.855C252.999 316.989 252.917 317.11 252.815 317.213C252.712 317.315 252.59 317.396 252.456 317.451C252.322 317.506 252.178 317.534 252.033 317.534L233.103 317.455Z" fill="#C5DAF0"/>
<path d="M272.213 147.186C272.213 147.186 268.949 145.453 269.678 136.57L262.936 135.319C262.936 135.319 263.693 143.286 260.282 145.813L272.213 147.186Z" fill="#EB8D65"/>
<g opacity="0.2">
<path d="M261.664 144.15L267.265 139.865L262.866 139.819C262.738 141.325 262.331 142.794 261.664 144.15Z" fill="black"/>
</g>
<path d="M273.504 133.123C273.037 135.819 271.566 138.371 269.188 139.243C266.596 140.272 263.791 140.651 261.02 140.347C253.639 139.742 255.098 122.959 258.603 119.699C262.107 116.439 272.391 118.503 273.642 123.956C274.288 126.776 273.948 130.557 273.504 133.123Z" fill="#EB8D65"/>
<path d="M262.945 131.047C263.283 131.047 263.557 130.773 263.557 130.435C263.557 130.098 263.283 129.824 262.945 129.824C262.608 129.824 262.334 130.098 262.334 130.435C262.334 130.773 262.608 131.047 262.945 131.047Z" fill="black"/>
<path d="M258.121 130.65C258.459 130.65 258.733 130.377 258.733 130.039C258.733 129.701 258.459 129.428 258.121 129.428C257.784 129.428 257.51 129.701 257.51 130.039C257.51 130.377 257.784 130.65 258.121 130.65Z" fill="black"/>
<path d="M257.061 128.734H257.065L258.685 128.714C258.759 128.71 258.829 128.678 258.88 128.624C258.931 128.57 258.959 128.499 258.959 128.425C258.958 128.35 258.929 128.279 258.877 128.226C258.826 128.173 258.755 128.142 258.681 128.139H258.678L257.058 128.159C256.984 128.163 256.914 128.195 256.863 128.249C256.812 128.303 256.783 128.374 256.784 128.448C256.784 128.523 256.813 128.594 256.865 128.647C256.917 128.7 256.987 128.732 257.061 128.734Z" fill="black"/>
<path d="M264.265 129.328C264.335 129.328 264.403 129.302 264.455 129.256C264.508 129.209 264.542 129.145 264.55 129.075C264.558 129.005 264.541 128.935 264.501 128.877C264.46 128.819 264.4 128.778 264.332 128.762L262.734 128.377C262.661 128.362 262.585 128.376 262.522 128.416C262.46 128.456 262.415 128.519 262.397 128.592C262.38 128.664 262.391 128.74 262.429 128.805C262.467 128.869 262.528 128.916 262.6 128.936L264.197 129.32C264.219 129.325 264.242 129.328 264.265 129.328Z" fill="black"/>
<path d="M269.282 138.921C269.423 139.37 269.521 139.565 269.926 139.325C271.51 138.385 274.657 136.334 275.872 128.655C276.961 121.774 272.717 118.938 269.332 117.925C266.415 117.053 260.34 117.669 257.063 119.451C254.631 120.774 256.41 124.32 256.41 124.32C257.627 124.376 257.361 121.145 260.232 121.145C262.452 121.145 264.407 124.43 266.486 124.517C268.388 124.597 268.779 125.755 268.713 126.497C268.3 131.009 268.787 137.336 269.282 138.921Z" fill="black"/>
<path d="M266.126 131.931C266.093 132.273 266.129 132.618 266.231 132.946C266.332 133.274 266.498 133.578 266.719 133.842C266.939 134.105 267.209 134.322 267.514 134.48C267.819 134.638 268.153 134.734 268.495 134.762C268.837 134.79 269.182 134.75 269.508 134.644C269.835 134.537 270.137 134.367 270.397 134.143C270.658 133.92 270.871 133.646 271.025 133.339C271.179 133.032 271.27 132.698 271.293 132.355C271.327 132.015 271.292 131.671 271.19 131.344C271.088 131.018 270.922 130.715 270.7 130.454C270.479 130.193 270.208 129.98 269.902 129.826C269.596 129.672 269.263 129.582 268.922 129.559C267.074 129.499 266.242 130.504 266.126 131.931Z" fill="#EB8D65"/>
<g opacity="0.2">
<path d="M260.231 133.827C260.282 133.827 260.331 133.809 260.37 133.776C260.408 133.743 260.433 133.697 260.441 133.647C260.448 133.597 260.438 133.546 260.411 133.503C260.383 133.46 260.342 133.428 260.293 133.414L259.049 133.032L259.919 131.095C259.939 131.045 259.939 130.988 259.919 130.938C259.898 130.887 259.859 130.847 259.809 130.825C259.76 130.802 259.704 130.8 259.652 130.818C259.601 130.836 259.559 130.873 259.534 130.922L258.566 133.077C258.554 133.105 258.548 133.134 258.548 133.164C258.548 133.194 258.554 133.224 258.567 133.251C258.579 133.278 258.597 133.302 258.62 133.322C258.642 133.342 258.668 133.357 258.697 133.365L260.169 133.817C260.189 133.824 260.21 133.827 260.231 133.827Z" fill="black"/>
</g>
<path d="M262.662 135.251C261.374 135.38 260.073 135.273 258.823 134.936C258.823 134.936 258.835 136.421 260.621 136.57C262.407 136.718 262.662 135.251 262.662 135.251Z" fill="white"/>
<path d="M256.859 119.68C254.671 121.145 255.102 123.953 255.512 126.388H258.223L259.358 122.446L260.745 126.388L271.304 126.754L270.031 121.517L256.859 119.68Z" fill="black"/>
<path d="M276.717 141.229C279.982 141.229 282.628 138.583 282.628 135.319C282.628 132.054 279.982 129.408 276.717 129.408C273.453 129.408 270.807 132.054 270.807 135.319C270.807 138.583 273.453 141.229 276.717 141.229Z" fill="black"/>
<path d="M247.446 194.167C249.214 198.232 283.031 199.92 283.495 192.77C283.792 188.221 280.075 183.972 280.075 175.105C280.075 166.239 286.728 157.333 280.081 150.687C278.15 148.756 276.962 145.373 272.903 145.369C272.599 147.737 258.224 147.745 258.115 145.424C257.566 145.432 257.14 145.441 256.874 145.454C242.871 146.057 250.085 162.03 250.22 173.736C250.384 187.435 245.623 189.981 247.446 194.167Z" fill="white"/>
<path d="M258.079 145.349C258.189 147.67 259.451 151.084 263.346 151.342C268.537 151.684 272.563 147.662 272.867 145.294H272.854C267.744 145.294 261.059 145.303 258.079 145.349Z" fill="#EB8D65"/>
<path d="M226.185 147.669C226.185 147.669 226.123 142.6 222.499 142.864C220.214 143.031 209.353 142.527 209.191 143.515C208.791 145.963 218.726 146.562 219.627 148.843L226.185 147.669Z" fill="#EB8D65"/>
<path d="M223.782 143.027C223.782 143.027 218.74 141.381 217.5 141.676C216.403 141.937 218.688 143.723 218.688 143.723L223.782 143.027Z" fill="#EB8D65"/>
<path d="M226.612 144.708L235.645 161.576L249.556 148.006C251.29 146.435 253.507 145.502 255.843 145.36C255.843 145.36 260.07 145.34 260.06 145.317C260.392 146.081 259.908 161.21 259.486 169.516C259.025 178.506 259.5 189.734 259.07 196.187C259.042 196.611 258.926 197.025 258.729 197.401C258.533 197.778 258.26 198.11 257.929 198.376C257.597 198.642 257.214 198.836 256.804 198.946C256.394 199.056 255.965 199.08 255.545 199.016C250.999 198.32 247.455 197.135 246.938 195.947C245.115 191.76 249.322 187.396 249.158 173.697C249.158 173.618 249.154 173.537 249.153 173.458L249.124 173.622C249.081 169.935 248.455 165.816 248.019 161.885L237.615 172.033C237.182 172.455 236.667 172.784 236.102 173C235.537 173.217 234.934 173.316 234.33 173.291C233.544 173.247 232.782 172.998 232.121 172.57C231.459 172.142 230.921 171.549 230.559 170.849L218.798 148.89L226.612 144.708Z" fill="#4283F0"/>
<path d="M280.71 175.382C280.71 184.249 284.719 188.22 284.422 192.769C284.24 195.611 282.789 199.205 271.836 199.975C270.949 200.038 270.072 199.758 269.387 199.193C268.701 198.628 268.258 197.821 268.15 196.939C266.05 179.485 269.87 156.242 270.944 148.403C271.576 145.058 271.725 145.261 273.311 145.26C277.371 145.264 280.291 146.617 282.219 148.546C288.866 155.193 280.71 166.52 280.71 175.382Z" fill="#4283F0"/>
<path d="M294.452 200.682L288.574 199.986L288.459 202.293C288.459 203.552 287.721 207.084 288.789 207.384C289.195 207.499 289.721 206.954 289.998 206.048C290.325 206.639 290.487 207.307 290.468 207.982C290.339 209.501 295.715 208.846 295.715 207.352C295.655 205.075 295.228 202.823 294.452 200.682Z" fill="#EB8D65"/>
<path d="M286.612 203.744L295.714 202.396L291.861 176.422C291.825 176.185 291.772 175.951 291.7 175.723L283.983 151.061L275.201 153.809L282.811 178.128L286.612 203.744Z" fill="#4283F0"/>
<path d="M274.577 155.285L273.53 151.853L275.547 150.533L274.403 145.289C272.901 145.21 271.766 145.216 271.33 145.233C270.335 148.562 268.76 163.316 268.372 168.899L274.577 155.285Z" fill="#4283F0"/>
<g opacity="0.24">
<path d="M274.577 155.285L273.53 151.853L275.547 150.533L274.403 145.289C272.901 145.21 271.766 145.216 271.33 145.233C270.335 148.562 268.76 163.316 268.372 168.899L274.577 155.285Z" fill="white"/>
</g>
<path d="M257.105 151.853L255.122 154.862L259.531 168.697C259.531 168.697 260.543 149.205 260.135 145.297C260.135 145.297 259.075 145.32 258.383 145.31C257.517 145.298 256.738 145.321 256.738 145.321L255.088 150.532L257.105 151.853Z" fill="#4283F0"/>
<g opacity="0.24">
<path d="M257.105 151.853L255.122 154.862L259.531 168.697C259.531 168.697 260.543 149.205 260.135 145.297C260.135 145.297 259.075 145.32 258.383 145.31C257.517 145.298 256.738 145.321 256.738 145.321L255.088 150.532L257.105 151.853Z" fill="white"/>
</g>
</g>
<defs>
<clipPath id="clip0_285_3968">
<rect width="272" height="320" fill="white" transform="translate(24)"/>
</clipPath>
</defs>
</svg>
