<svg width="265" height="320" viewBox="0 0 265 320" fill="none" xmlns="http://www.w3.org/2000/svg">
<g clip-path="url(#clip0_285_4270)">
<path d="M251.528 0.406494H35.7824C28.6282 0.406494 22.8286 6.20611 22.8286 13.3603V183.139C22.8286 190.294 28.6282 196.093 35.7824 196.093H251.528C258.682 196.093 264.482 190.294 264.482 183.139V13.3603C264.482 6.20611 258.682 0.406494 251.528 0.406494Z" fill="white"/>
<path d="M251.528 196.5H35.7823C32.24 196.496 28.8438 195.087 26.339 192.582C23.8341 190.077 22.4252 186.681 22.4214 183.139V13.361C22.4252 9.81858 23.8341 6.4224 26.339 3.91756C28.8438 1.41273 32.24 0.00383134 35.7823 0L251.528 0C255.07 0.00392939 258.466 1.41286 260.971 3.91767C263.476 6.42249 264.885 9.81861 264.889 13.361V183.139C264.885 186.682 263.476 190.078 260.971 192.582C258.466 195.087 255.07 196.496 251.528 196.5ZM35.7823 0.813162C32.4557 0.816993 29.2664 2.14023 26.9141 4.49258C24.5618 6.84493 23.2387 10.0343 23.2349 13.361V183.139C23.2388 186.466 24.5619 189.655 26.9142 192.007C29.2665 194.36 32.4557 195.683 35.7823 195.687H251.528C254.855 195.683 258.044 194.36 260.396 192.008C262.748 189.655 264.072 186.466 264.075 183.139V13.361C264.072 10.0343 262.749 6.84484 260.396 4.49247C258.044 2.1401 254.855 0.816895 251.528 0.813162H35.7823Z" fill="black"/>
<path opacity="0.2" d="M245.542 35.5854H232.295C229.503 35.5854 227.24 37.8489 227.24 40.6411V53.8881C227.24 56.6802 229.503 58.9437 232.295 58.9437H245.542C248.335 58.9437 250.598 56.6802 250.598 53.8881V40.6411C250.598 37.8489 248.335 35.5854 245.542 35.5854Z" fill="#4283F0"/>
<path opacity="0.2" d="M245.953 65.0898H232.808C229.988 65.0898 227.702 67.3761 227.702 70.1963V83.3416C227.702 86.1619 229.988 88.4481 232.808 88.4481H245.953C248.774 88.4481 251.06 86.1619 251.06 83.3416V70.1963C251.06 67.3761 248.774 65.0898 245.953 65.0898Z" fill="#4283F0"/>
<path opacity="0.2" d="M245.953 97.9502H232.808C229.988 97.9502 227.702 100.236 227.702 103.057V116.202C227.702 119.022 229.988 121.308 232.808 121.308H245.953C248.774 121.308 251.06 119.022 251.06 116.202V103.057C251.06 100.236 248.774 97.9502 245.953 97.9502Z" fill="#4283F0"/>
<path opacity="0.2" d="M245.492 129.129H232.346C229.526 129.129 227.24 131.416 227.24 134.236V147.381C227.24 150.201 229.526 152.488 232.346 152.488H245.492C248.312 152.488 250.598 150.201 250.598 147.381V134.236C250.598 131.416 248.312 129.129 245.492 129.129Z" fill="#4283F0"/>
<g opacity="0.15">
<path d="M150.293 35.5854H137.046C134.254 35.5854 131.991 37.8489 131.991 40.6411V53.8881C131.991 56.6802 134.254 58.9437 137.046 58.9437H150.293C153.086 58.9437 155.349 56.6802 155.349 53.8881V40.6411C155.349 37.8489 153.086 35.5854 150.293 35.5854Z" fill="#4283F0"/>
<path d="M118.544 35.5854H105.297C102.505 35.5854 100.241 37.8489 100.241 40.6411V53.8881C100.241 56.6802 102.505 58.9437 105.297 58.9437H118.544C121.336 58.9437 123.599 56.6802 123.599 53.8881V40.6411C123.599 37.8489 121.336 35.5854 118.544 35.5854Z" fill="#4283F0"/>
<path d="M87.2563 35.5854H74.0093C71.2171 35.5854 68.9536 37.8489 68.9536 40.6411V53.8881C68.9536 56.6802 71.2171 58.9437 74.0093 58.9437H87.2563C90.0484 58.9437 92.3119 56.6802 92.3119 53.8881V40.6411C92.3119 37.8489 90.0484 35.5854 87.2563 35.5854Z" fill="#4283F0"/>
<path d="M55.5063 35.5854H42.2593C39.4671 35.5854 37.2036 37.8489 37.2036 40.6411V53.8881C37.2036 56.6802 39.4671 58.9437 42.2593 58.9437H55.5063C58.2984 58.9437 60.5619 56.6802 60.5619 53.8881V40.6411C60.5619 37.8489 58.2984 35.5854 55.5063 35.5854Z" fill="#4283F0"/>
<path d="M182.043 35.5854H168.796C166.004 35.5854 163.74 37.8489 163.74 40.6411V53.8881C163.74 56.6802 166.004 58.9437 168.796 58.9437H182.043C184.835 58.9437 187.099 56.6802 187.099 53.8881V40.6411C187.099 37.8489 184.835 35.5854 182.043 35.5854Z" fill="#4283F0"/>
<path d="M213.792 35.5854H200.545C197.753 35.5854 195.49 37.8489 195.49 40.6411V53.8881C195.49 56.6802 197.753 58.9437 200.545 58.9437H213.792C216.585 58.9437 218.848 56.6802 218.848 53.8881V40.6411C218.848 37.8489 216.585 35.5854 213.792 35.5854Z" fill="#4283F0"/>
<path d="M150.704 65.0898H137.559C134.739 65.0898 132.453 67.3761 132.453 70.1963V83.3416C132.453 86.1619 134.739 88.4481 137.559 88.4481H150.704C153.525 88.4481 155.811 86.1619 155.811 83.3416V70.1963C155.811 67.3761 153.525 65.0898 150.704 65.0898Z" fill="#4283F0"/>
<path d="M182.454 65.0898H169.309C166.488 65.0898 164.202 67.3761 164.202 70.1963V83.3416C164.202 86.1619 166.488 88.4481 169.309 88.4481H182.454C185.274 88.4481 187.56 86.1619 187.56 83.3416V70.1963C187.56 67.3761 185.274 65.0898 182.454 65.0898Z" fill="#4283F0"/>
<path d="M214.204 65.0898H201.059C198.238 65.0898 195.952 67.3761 195.952 70.1963V83.3416C195.952 86.1619 198.238 88.4481 201.059 88.4481H214.204C217.024 88.4481 219.31 86.1619 219.31 83.3416V70.1963C219.31 67.3761 217.024 65.0898 214.204 65.0898Z" fill="#4283F0"/>
<path d="M55.4554 65.0898H42.3101C39.4899 65.0898 37.2036 67.3761 37.2036 70.1963V83.3416C37.2036 86.1619 39.4899 88.4481 42.3101 88.4481H55.4554C58.2757 88.4481 60.5619 86.1619 60.5619 83.3416V70.1963C60.5619 67.3761 58.2757 65.0898 55.4554 65.0898Z" fill="#4283F0"/>
<path d="M87.2054 65.0898H74.0601C71.2399 65.0898 68.9536 67.3761 68.9536 70.1963V83.3416C68.9536 86.1619 71.2399 88.4481 74.0601 88.4481H87.2054C90.0257 88.4481 92.3119 86.1619 92.3119 83.3416V70.1963C92.3119 67.3761 90.0257 65.0898 87.2054 65.0898Z" fill="#4283F0"/>
<path d="M118.954 65.0898H105.809C102.989 65.0898 100.703 67.3761 100.703 70.1963V83.3416C100.703 86.1619 102.989 88.4481 105.809 88.4481H118.954C121.775 88.4481 124.061 86.1619 124.061 83.3416V70.1963C124.061 67.3761 121.775 65.0898 118.954 65.0898Z" fill="#4283F0"/>
<path d="M150.704 97.9502H137.559C134.739 97.9502 132.453 100.236 132.453 103.057V116.202C132.453 119.022 134.739 121.308 137.559 121.308H150.704C153.525 121.308 155.811 119.022 155.811 116.202V103.057C155.811 100.236 153.525 97.9502 150.704 97.9502Z" fill="#4283F0"/>
<path d="M182.454 97.9502H169.309C166.488 97.9502 164.202 100.236 164.202 103.057V116.202C164.202 119.022 166.488 121.308 169.309 121.308H182.454C185.274 121.308 187.56 119.022 187.56 116.202V103.057C187.56 100.236 185.274 97.9502 182.454 97.9502Z" fill="#4283F0"/>
<path d="M214.204 97.9502H201.059C198.238 97.9502 195.952 100.236 195.952 103.057V116.202C195.952 119.022 198.238 121.308 201.059 121.308H214.204C217.024 121.308 219.31 119.022 219.31 116.202V103.057C219.31 100.236 217.024 97.9502 214.204 97.9502Z" fill="#4283F0"/>
<path d="M55.4554 97.9502H42.3101C39.4899 97.9502 37.2036 100.236 37.2036 103.057V116.202C37.2036 119.022 39.4899 121.308 42.3101 121.308H55.4554C58.2757 121.308 60.5619 119.022 60.5619 116.202V103.057C60.5619 100.236 58.2757 97.9502 55.4554 97.9502Z" fill="#4283F0"/>
<path d="M87.2054 97.9502H74.0601C71.2399 97.9502 68.9536 100.236 68.9536 103.057V116.202C68.9536 119.022 71.2399 121.308 74.0601 121.308H87.2054C90.0257 121.308 92.3119 119.022 92.3119 116.202V103.057C92.3119 100.236 90.0257 97.9502 87.2054 97.9502Z" fill="#4283F0"/>
<path d="M118.954 97.9502H105.809C102.989 97.9502 100.703 100.236 100.703 103.057V116.202C100.703 119.022 102.989 121.308 105.809 121.308H118.954C121.775 121.308 124.061 119.022 124.061 116.202V103.057C124.061 100.236 121.775 97.9502 118.954 97.9502Z" fill="#4283F0"/>
<path d="M150.704 129.591H137.559C134.739 129.591 132.453 131.878 132.453 134.698V147.843C132.453 150.663 134.739 152.95 137.559 152.95H150.704C153.525 152.95 155.811 150.663 155.811 147.843V134.698C155.811 131.878 153.525 129.591 150.704 129.591Z" fill="#4283F0"/>
<path d="M181.992 129.13H168.847C166.026 129.13 163.74 131.416 163.74 134.236V147.381C163.74 150.202 166.026 152.488 168.847 152.488H181.992C184.812 152.488 187.099 150.202 187.099 147.381V134.236C187.099 131.416 184.812 129.13 181.992 129.13Z" fill="#4283F0"/>
<path d="M213.742 129.13H200.596C197.776 129.13 195.49 131.416 195.49 134.236V147.381C195.49 150.202 197.776 152.488 200.596 152.488H213.742C216.562 152.488 218.848 150.202 218.848 147.381V134.236C218.848 131.416 216.562 129.13 213.742 129.13Z" fill="#4283F0"/>
<path d="M55.4554 129.591H42.3101C39.4899 129.591 37.2036 131.878 37.2036 134.698V147.843C37.2036 150.663 39.4899 152.95 42.3101 152.95H55.4554C58.2757 152.95 60.5619 150.663 60.5619 147.843V134.698C60.5619 131.878 58.2757 129.591 55.4554 129.591Z" fill="#4283F0"/>
<path d="M87.2054 129.591H74.0601C71.2399 129.591 68.9536 131.878 68.9536 134.698V147.843C68.9536 150.663 71.2399 152.95 74.0601 152.95H87.2054C90.0257 152.95 92.3119 150.663 92.3119 147.843V134.698C92.3119 131.878 90.0257 129.591 87.2054 129.591Z" fill="#4283F0"/>
<path d="M118.954 129.591H105.809C102.989 129.591 100.703 131.878 100.703 134.698V147.843C100.703 150.663 102.989 152.95 105.809 152.95H118.954C121.775 152.95 124.061 150.663 124.061 147.843V134.698C124.061 131.878 121.775 129.591 118.954 129.591Z" fill="#4283F0"/>
<path d="M150.243 158.251H137.097C134.277 158.251 131.991 160.537 131.991 163.357V176.503C131.991 179.323 134.277 181.609 137.097 181.609H150.243C153.063 181.609 155.349 179.323 155.349 176.503V163.357C155.349 160.537 153.063 158.251 150.243 158.251Z" fill="#4283F0"/>
<path d="M54.9935 158.251H41.8482C39.028 158.251 36.7417 160.537 36.7417 163.357V176.503C36.7417 179.323 39.028 181.609 41.8482 181.609H54.9935C57.8137 181.609 60.1 179.323 60.1 176.503V163.357C60.1 160.537 57.8137 158.251 54.9935 158.251Z" fill="#4283F0"/>
<path d="M86.743 158.251H73.5977C70.7775 158.251 68.4912 160.537 68.4912 163.357V176.503C68.4912 179.323 70.7775 181.609 73.5977 181.609H86.743C89.5633 181.609 91.8495 179.323 91.8495 176.503V163.357C91.8495 160.537 89.5633 158.251 86.743 158.251Z" fill="#4283F0"/>
<path d="M118.493 158.251H105.348C102.527 158.251 100.241 160.537 100.241 163.357V176.503C100.241 179.323 102.527 181.609 105.348 181.609H118.493C121.313 181.609 123.599 179.323 123.599 176.503V163.357C123.599 160.537 121.313 158.251 118.493 158.251Z" fill="#4283F0"/>
</g>
<path d="M264.482 13.361V21.6659H22.8296V13.361C22.8291 11.6597 23.1638 9.97495 23.8145 8.40303C24.4652 6.83111 25.4192 5.40277 26.622 4.19961C27.8249 2.99645 29.2529 2.04203 30.8247 1.39086C32.3964 0.739695 34.081 0.404541 35.7823 0.404541H251.528C253.23 0.404736 254.914 0.740018 256.486 1.39124C258.057 2.04247 259.486 2.99689 260.688 4.2C261.891 5.40312 262.845 6.83137 263.496 8.4032C264.147 9.97504 264.482 11.6597 264.482 13.361Z" fill="black"/>
<path d="M118.198 160.835H105.643C104.087 160.835 102.825 162.096 102.825 163.652V176.208C102.825 177.764 104.087 179.025 105.643 179.025H118.198C119.754 179.025 121.016 177.764 121.016 176.208V163.652C121.016 162.096 119.754 160.835 118.198 160.835Z" fill="white"/>
<path d="M54.0798 122.454L38.5781 119.649C38.1387 119.569 37.749 119.318 37.4945 118.952C37.24 118.585 37.1418 118.132 37.2212 117.692L39.6184 104.446L44.3898 101.269L57.4846 103.639C57.924 103.719 58.3137 103.969 58.5682 104.336C58.8227 104.703 58.921 105.156 58.8415 105.595L56.0361 121.097C55.9967 121.315 55.915 121.522 55.7954 121.708C55.6758 121.894 55.5207 122.055 55.339 122.181C55.1574 122.307 54.9526 122.396 54.7366 122.443C54.5205 122.49 54.2973 122.493 54.0798 122.454Z" fill="#4283F0"/>
<path opacity="0.29" d="M44.39 101.269L39.6187 104.446L43.6934 105.254L44.39 101.269Z" fill="white"/>
<g opacity="0.88">
<path d="M55.2914 113.416C55.2758 113.416 55.2601 113.415 55.2447 113.412L40.7391 110.729C40.6779 110.718 40.6236 110.683 40.5883 110.632C40.553 110.58 40.5395 110.517 40.5508 110.456C40.5621 110.394 40.5973 110.34 40.6486 110.305C40.7 110.27 40.7632 110.256 40.8245 110.267L55.33 112.95C55.3871 112.961 55.4382 112.992 55.4734 113.038C55.5087 113.084 55.5256 113.142 55.521 113.2C55.5164 113.257 55.4906 113.311 55.4485 113.351C55.4063 113.391 55.3509 113.414 55.2929 113.416H55.2914Z" fill="white"/>
<path d="M54.7715 116.458C54.7557 116.458 54.7399 116.457 54.7243 116.454L40.2192 113.772C40.1878 113.767 40.1577 113.757 40.1307 113.74C40.1036 113.724 40.0801 113.702 40.0617 113.676C40.0432 113.65 40.0301 113.621 40.0232 113.59C40.0163 113.559 40.0157 113.527 40.0215 113.496C40.0272 113.465 40.0392 113.436 40.0567 113.409C40.0742 113.383 40.0968 113.36 40.1232 113.343C40.1497 113.325 40.1793 113.313 40.2105 113.308C40.2416 113.302 40.2736 113.303 40.3045 113.309L54.8097 115.992C54.8671 116.002 54.9187 116.034 54.9543 116.08C54.99 116.126 55.0071 116.184 55.0025 116.242C54.9979 116.3 54.9718 116.354 54.9293 116.394C54.8868 116.434 54.8309 116.457 54.7726 116.458H54.7715Z" fill="white"/>
<path d="M46.261 117.696C46.2453 117.696 46.2296 117.695 46.2142 117.692L39.7802 116.502C39.7488 116.498 39.7187 116.487 39.6917 116.471C39.6646 116.454 39.6412 116.432 39.6227 116.407C39.6043 116.381 39.5912 116.352 39.5843 116.321C39.5774 116.29 39.5768 116.258 39.5825 116.227C39.5883 116.196 39.6002 116.166 39.6177 116.14C39.6352 116.113 39.6578 116.091 39.6843 116.073C39.7107 116.056 39.7404 116.044 39.7715 116.038C39.8027 116.032 39.8347 116.033 39.8656 116.04L46.2996 117.23C46.3566 117.241 46.4077 117.272 46.443 117.318C46.4782 117.364 46.4952 117.422 46.4906 117.48C46.486 117.538 46.4601 117.592 46.418 117.632C46.3759 117.672 46.3205 117.694 46.2625 117.696H46.261Z" fill="white"/>
</g>
<path d="M55.3608 110.943C55.3034 110.943 55.2461 110.938 55.1897 110.928L52.051 110.355C51.9272 110.333 51.8091 110.286 51.7034 110.218C51.5977 110.149 51.5066 110.061 51.4353 109.957C51.364 109.853 51.3138 109.737 51.2878 109.614C51.2617 109.49 51.2603 109.363 51.2835 109.24L51.8109 105.907C51.8566 105.66 51.9976 105.44 52.2035 105.296C52.4094 105.152 52.6637 105.094 52.9117 105.136L56.06 105.674C56.1849 105.695 56.3044 105.741 56.4114 105.809C56.5184 105.876 56.6109 105.965 56.6834 106.069C56.756 106.173 56.8071 106.29 56.8339 106.414C56.8607 106.537 56.8626 106.665 56.8394 106.79L56.3024 110.159C56.2613 110.379 56.1448 110.578 55.9728 110.721C55.8009 110.864 55.5845 110.943 55.3608 110.943ZM52.7517 105.493C52.6154 105.494 52.4835 105.542 52.3786 105.628C52.2736 105.715 52.2022 105.836 52.1764 105.97L51.649 109.303C51.6342 109.379 51.6345 109.457 51.6501 109.533C51.6657 109.609 51.6961 109.681 51.7397 109.745C51.7833 109.809 51.8392 109.863 51.9041 109.905C51.969 109.948 52.0416 109.977 52.1178 109.99L55.2565 110.563C55.4083 110.589 55.5644 110.555 55.6914 110.468C55.8183 110.381 55.9059 110.247 55.9353 110.096L56.4731 106.724C56.4874 106.648 56.4864 106.569 56.4702 106.493C56.4539 106.418 56.4227 106.346 56.3785 106.282C56.3342 106.218 56.2777 106.164 56.2122 106.123C56.1468 106.081 56.0737 106.053 55.9973 106.04L52.8489 105.502C52.8168 105.496 52.7843 105.493 52.7517 105.493Z" fill="white"/>
<path d="M108.186 175.934C108.154 175.934 108.121 175.934 108.088 175.929C107.936 175.915 107.79 175.87 107.657 175.797C107.524 175.723 107.408 175.623 107.317 175.502L104.019 171.165C103.844 170.935 103.767 170.644 103.806 170.357C103.846 170.07 103.997 169.81 104.228 169.635C104.458 169.459 104.749 169.383 105.036 169.422C105.323 169.461 105.583 169.613 105.758 169.843L108.332 173.229L118.212 164.211C118.318 164.114 118.442 164.039 118.577 163.99C118.712 163.941 118.855 163.92 118.998 163.926C119.142 163.933 119.282 163.967 119.412 164.028C119.542 164.089 119.659 164.175 119.755 164.281C119.852 164.387 119.927 164.511 119.976 164.646C120.024 164.781 120.046 164.924 120.04 165.067C120.033 165.211 119.998 165.351 119.938 165.481C119.877 165.611 119.791 165.728 119.685 165.824L108.922 175.647C108.721 175.831 108.459 175.933 108.186 175.934Z" fill="#4283F0"/>
<path d="M251.815 50.7949L238.748 59.5942C238.564 59.718 238.358 59.8044 238.141 59.8485C237.924 59.8926 237.701 59.8935 237.484 59.8511C237.267 59.8087 237.06 59.7239 236.876 59.6016C236.691 59.4792 236.533 59.3217 236.409 59.1381L228.89 47.9728L230.094 42.3686L241.134 34.9351C241.317 34.8114 241.523 34.7251 241.74 34.6811C241.957 34.6371 242.18 34.6363 242.398 34.6786C242.615 34.721 242.821 34.8057 243.006 34.928C243.19 35.0502 243.349 35.2076 243.472 35.3912L252.271 48.4578C252.395 48.6413 252.481 48.8472 252.525 49.064C252.569 49.2807 252.57 49.504 252.527 49.721C252.485 49.938 252.4 50.1446 252.278 50.3288C252.155 50.5131 251.998 50.6715 251.815 50.7949Z" fill="#09BA85"/>
<path opacity="0.29" d="M230.096 42.3682L228.892 47.9727L232.375 45.7103L230.096 42.3682Z" fill="white"/>
<g opacity="0.88">
<path d="M246.38 43.4715C246.369 43.4828 246.357 43.4928 246.343 43.5016L234.076 51.6941C234.025 51.7249 233.963 51.7347 233.904 51.7213C233.845 51.7079 233.794 51.6725 233.76 51.6223C233.727 51.5721 233.714 51.5109 233.725 51.4516C233.735 51.3922 233.768 51.3391 233.817 51.3033L246.084 43.1108C246.132 43.0789 246.191 43.066 246.248 43.0747C246.305 43.0833 246.358 43.1129 246.394 43.1577C246.431 43.2024 246.45 43.2593 246.448 43.3172C246.445 43.3752 246.421 43.4301 246.381 43.4715H246.38Z" fill="white"/>
<path d="M248.129 46.015C248.118 46.0262 248.105 46.0363 248.092 46.045L235.825 54.2375C235.773 54.2684 235.711 54.2781 235.653 54.2648C235.594 54.2514 235.542 54.2159 235.509 54.1657C235.476 54.1155 235.463 54.0544 235.473 53.995C235.484 53.9356 235.517 53.8825 235.565 53.8467L247.832 45.6542C247.881 45.6223 247.939 45.6095 247.997 45.6181C248.054 45.6268 248.106 45.6563 248.143 45.7011C248.18 45.7459 248.199 45.8027 248.196 45.8607C248.194 45.9186 248.17 45.9736 248.129 46.015Z" fill="white"/>
<path d="M242.893 52.8368C242.881 52.848 242.869 52.8581 242.856 52.8668L237.417 56.5006C237.391 56.5195 237.362 56.5331 237.331 56.5403C237.3 56.5476 237.268 56.5486 237.236 56.5431C237.205 56.5376 237.175 56.5257 237.148 56.5083C237.122 56.4909 237.099 56.4682 237.081 56.4417C237.064 56.4152 237.052 56.3854 237.046 56.3541C237.04 56.3228 237.041 56.2906 237.048 56.2596C237.055 56.2286 237.068 56.1993 237.087 56.1735C237.106 56.1478 237.129 56.1261 237.157 56.1098L242.598 52.476C242.646 52.4441 242.705 52.4312 242.762 52.4399C242.82 52.4485 242.872 52.4781 242.909 52.5229C242.945 52.5677 242.964 52.6245 242.962 52.6825C242.959 52.7404 242.936 52.7954 242.895 52.8368H242.893Z" fill="white"/>
</g>
<path d="M254.807 320H13.4121C13.3432 320 13.2772 319.973 13.2284 319.924C13.1797 319.875 13.1523 319.809 13.1523 319.74C13.1523 319.671 13.1797 319.605 13.2284 319.557C13.2772 319.508 13.3432 319.48 13.4121 319.48H254.807C254.876 319.48 254.942 319.508 254.991 319.557C255.04 319.605 255.067 319.671 255.067 319.74C255.067 319.809 255.04 319.875 254.991 319.924C254.942 319.973 254.876 320 254.807 320Z" fill="black"/>
<path d="M210.828 303.606C210.828 303.606 209.152 312.291 201.019 312.776C192.886 313.262 194.65 319.739 194.65 319.739H225.728V304.212L210.828 303.606Z" fill="#4283F0"/>
<path d="M220.414 145.156C220.414 145.156 220.316 142.545 220.336 148.468C220.414 170.562 221.539 195.798 222.476 210.565C223.981 234.305 227.099 309.15 227.099 309.15L205.192 308.978L186.884 144.259L220.414 145.156Z" fill="black"/>
<path d="M196.916 171.5C196.916 171.5 196.069 187.533 195.913 191.297C195.551 200.002 195.225 209.072 195.225 219.29L192.205 192.445C192.205 192.445 194.56 184.05 196.916 171.5Z" fill="black"/>
<path d="M170.76 303.606C170.76 303.606 169.085 312.291 160.952 312.776C152.819 313.262 154.583 319.739 154.583 319.739H185.661V304.212L170.76 303.606Z" fill="#4283F0"/>
<path d="M164.582 146.872C164.582 146.872 162.402 223.124 162.667 226.815L165.808 308.577L188.12 308.948L189.874 223.091C189.874 223.091 190.141 199.406 195.864 177.413C198.792 166.126 200.554 154.568 201.122 142.921L164.582 146.872Z" fill="black"/>
<path d="M220.635 145.154L220.702 145.158C220.702 145.158 220.654 143.87 220.635 145.154Z" fill="black"/>
<path d="M178.236 80.1988C178.302 80.1903 179.037 92.381 193.199 91.3181C203.003 90.5836 206.501 80.1814 206.724 80.1814C205.667 79.9587 203.887 79.6302 203.417 79.3797C201.873 78.5502 199.674 77.6869 199.177 74.6889C198.89 72.9609 199.377 64.1207 199.227 62.3723L184.466 65.7315C184.676 69.4239 186.148 77.9838 180.989 79.5007C180.131 79.7493 179.206 79.9802 178.236 80.1988Z" fill="#EB8D65"/>
<path d="M184.881 71.4903C190.825 71.9491 198.454 69.4272 199.891 61.496L201.187 54.3397C202.623 46.4088 199.622 39.2251 192.155 37.8727C184.687 36.5199 177.941 41.9385 176.505 49.8693L175.931 53.0374C175.753 54.1286 175.65 55.2307 175.621 56.336C175.525 59.2569 175.39 63.6994 176.836 66.9625C178.2 70.0433 181.084 71.1975 184.881 71.4903Z" fill="#EB8D65"/>
<path d="M198.21 37.4664C195.851 36.7305 193.403 36.3141 190.933 36.2283C190.852 35.7968 190.668 35.3914 190.397 35.0463C190.125 34.7013 189.775 34.4269 189.375 34.2464C188.069 33.7364 186.474 34.5578 185.413 36.141C184.859 35.1943 183.993 34.4698 182.963 34.092C180.04 33.182 179.895 37.3814 179.895 37.3814C179.895 37.3814 175.259 32.8075 175.115 38.641C174.939 45.6993 176.236 47.771 177.182 48.2906C179.051 49.3227 180.443 49.1479 181.182 50.6659C183.422 55.2635 181.227 68.214 183.817 69.8355C187.789 72.3195 195.92 72.4053 198.561 72.2167C199.576 72.1425 200.528 70.9664 200.955 70.0426C202.336 67.059 205.417 60.2954 206.274 57.4981C207.86 52.3382 207.741 40.5784 198.21 37.4664Z" fill="black"/>
<path d="M182.046 65.2107C184.339 64.962 185.931 62.3073 185.683 60.0147C185.435 57.7222 183.439 56.6593 181.146 56.9083L180.131 58.5729L180.076 65.4252L182.046 65.2107Z" fill="#EB8D65"/>
<path d="M161.707 104.958C162.129 109.906 164.177 140.776 164.582 146.871H220.391C220.706 141.374 222.122 117.337 223.318 106.588C224.459 96.3302 226.698 91.1948 225.056 88.1622C222.375 83.2061 215.046 80.3424 210.049 79.6658C206.998 79.2527 202.408 78.9565 202.408 78.9565H180.92C178.878 78.9565 166.978 79.917 164.348 81.9427C159.748 85.4867 160.814 94.4731 161.707 104.958Z" fill="#4283F0"/>
<path d="M160.937 98.7598C160.889 98.7599 160.844 98.7418 160.809 98.7092C160.775 98.6766 160.754 98.632 160.751 98.5846L160.301 90.7277C160.298 90.6785 160.315 90.6303 160.348 90.5936C160.38 90.5568 160.426 90.5346 160.476 90.5317C160.524 90.5294 160.572 90.5464 160.609 90.579C160.646 90.6116 160.668 90.6572 160.671 90.7061L161.122 98.5635C161.123 98.5878 161.12 98.6122 161.112 98.6353C161.104 98.6583 161.091 98.6795 161.075 98.6977C161.059 98.7159 161.039 98.7307 161.017 98.7413C160.995 98.7519 160.971 98.7581 160.947 98.7594L160.937 98.7598Z" fill="black"/>
<path d="M232.456 146.548C234.098 146.548 235.715 146.151 237.17 145.392C238.625 144.632 239.875 143.532 240.814 142.186C241.752 140.839 242.352 139.286 242.561 137.658C242.77 136.03 242.583 134.375 242.015 132.835C241.439 131.271 227.922 95.4777 225.349 88.8455L206.295 96.5651C207.742 100.294 212.984 114.428 217.195 125.815L210.199 125.054L207.996 145.313L231.354 146.488C231.72 146.528 232.088 146.548 232.456 146.548Z" fill="#4283F0"/>
<path d="M221.583 106.797L220.211 146.867L220.582 146.88L221.954 106.81L221.583 106.797Z" fill="black"/>
<path d="M120.92 64.0583L104.024 71.5107C103.658 71.672 103.243 71.6814 102.87 71.5367C102.497 71.3921 102.197 71.1054 102.035 70.7395L95.7773 56.5506L98.2198 50.5916L112.251 44.4029C112.432 44.323 112.627 44.2795 112.825 44.275C113.023 44.2706 113.22 44.3051 113.404 44.3767C113.589 44.4483 113.758 44.5556 113.901 44.6924C114.044 44.8292 114.159 44.9929 114.238 45.1741L121.691 62.0705C121.852 62.4364 121.862 62.8513 121.717 63.2241C121.572 63.5968 121.286 63.8969 120.92 64.0583Z" fill="#09BA85"/>
<path opacity="0.29" d="M98.2198 50.5923L95.7773 56.5513L100.078 54.7397L98.2198 50.5923Z" fill="white"/>
<g opacity="0.88">
<path d="M114.726 52.1666C114.711 52.1768 114.696 52.1855 114.68 52.1925L99.4904 58.8225C99.4276 58.8443 99.3589 58.8416 99.2981 58.815C99.2372 58.7884 99.1886 58.7398 99.1619 58.679C99.1352 58.6181 99.1324 58.5495 99.1541 58.4867C99.1758 58.4238 99.2203 58.3715 99.2788 58.3401L114.468 51.7101C114.528 51.6844 114.596 51.6818 114.657 51.7027C114.719 51.7236 114.771 51.7666 114.803 51.8234C114.835 51.8802 114.845 51.9468 114.83 52.0105C114.816 52.0741 114.779 52.1302 114.726 52.1681V52.1666Z" fill="white"/>
<path d="M116.01 55.0396C115.996 55.0498 115.98 55.0585 115.964 55.0656L100.774 61.6956C100.711 61.7185 100.642 61.7165 100.58 61.6901C100.519 61.6637 100.469 61.6148 100.443 61.5533C100.416 61.4919 100.413 61.4226 100.436 61.3594C100.458 61.2962 100.504 61.2439 100.563 61.2131L115.752 54.5831C115.812 54.5564 115.88 54.553 115.943 54.5737C116.005 54.5944 116.057 54.6376 116.09 54.6948C116.122 54.7521 116.132 54.8193 116.117 54.8834C116.102 54.9474 116.064 55.0036 116.01 55.0411V55.0396Z" fill="white"/>
<path d="M117.44 58.1976C117.426 58.2078 117.41 58.2165 117.394 58.2235L102.205 64.8535C102.142 64.8764 102.072 64.8745 102.011 64.848C101.949 64.8216 101.9 64.7727 101.873 64.7113C101.846 64.6499 101.843 64.5805 101.866 64.5173C101.888 64.4541 101.934 64.4018 101.993 64.371L117.183 57.741C117.243 57.7143 117.31 57.711 117.373 57.7317C117.435 57.7523 117.488 57.7955 117.52 57.8528C117.552 57.9101 117.562 57.9773 117.547 58.0413C117.532 58.1054 117.494 58.1616 117.44 58.199V58.1976Z" fill="white"/>
<path d="M110.298 64.7047C110.283 64.7148 110.268 64.7235 110.252 64.7306L103.514 67.6712C103.452 67.6929 103.383 67.6902 103.322 67.6636C103.261 67.637 103.212 67.5884 103.186 67.5276C103.159 67.4667 103.156 67.3981 103.178 67.3353C103.2 67.2725 103.244 67.2201 103.303 67.1887L110.04 64.2482C110.1 64.2225 110.168 64.2199 110.229 64.2408C110.291 64.2617 110.343 64.3047 110.375 64.3615C110.407 64.4183 110.417 64.4849 110.402 64.5485C110.388 64.6122 110.351 64.6683 110.298 64.7061V64.7047Z" fill="white"/>
</g>
<path d="M106.955 62.7634C106.878 62.5589 106.76 62.3722 106.609 62.2148C106.457 62.0574 106.275 61.9326 106.074 61.8479C105.872 61.7632 105.656 61.7204 105.437 61.7222C105.218 61.7239 105.003 61.7702 104.803 61.8581C104.422 62.0419 104.125 62.3633 103.971 62.7575C103.818 63.1517 103.82 63.5894 103.977 63.9822L104.512 66.1979C104.625 66.6665 104.563 67.1604 104.337 67.5863C104.111 68.0122 103.737 68.3407 103.285 68.5097C102.843 68.6755 102.355 68.6769 101.912 68.5138C101.468 68.3507 101.098 68.0338 100.868 67.6208C100.868 67.6208 97.5357 60.5814 97.4726 60.2949C96.9259 60.8282 95.9725 62.1402 95.7769 63.1293C95.7698 63.1345 96.7419 71.0345 97.2852 71.5912L102.923 80.287C105.228 82.6485 112.964 78.7193 112.964 78.7193L106.955 62.7634Z" fill="#EB8D65"/>
<path d="M130.121 127.693C128.233 127.693 126.377 127.204 124.733 126.275C123.09 125.346 121.715 124.008 120.741 122.39L96.4712 82.0741L115.232 70.7815L133.681 101.432L164.349 81.9472L177.342 99.3684L136.046 125.953C134.279 127.09 132.222 127.694 130.121 127.693Z" fill="#4283F0"/>
<path d="M162.018 109.407C161.977 109.407 161.936 109.393 161.903 109.367C161.871 109.341 161.848 109.305 161.838 109.265C161.828 109.225 161.832 109.182 161.849 109.144C161.866 109.106 161.896 109.075 161.933 109.056L167.232 106.322C167.276 106.299 167.327 106.295 167.373 106.31C167.42 106.325 167.459 106.358 167.482 106.402C167.505 106.445 167.509 106.496 167.494 106.543C167.479 106.59 167.446 106.629 167.402 106.652L162.103 109.386C162.077 109.399 162.048 109.407 162.018 109.407Z" fill="black"/>
<path d="M177.96 80.1145L180.591 76.0019C180.707 75.8217 180.865 75.6734 181.053 75.5707C181.24 75.4679 181.451 75.4141 181.665 75.4141H201.495C201.674 75.4141 201.851 75.4516 202.014 75.5243C202.177 75.597 202.323 75.7032 202.443 75.836L206.295 80.1145H177.96Z" fill="#4283F0"/>
<path d="M24.7849 244.832L24.144 244.903L32.0561 317.205L32.6969 317.135L24.7849 244.832Z" fill="black"/>
<path d="M45.2772 276.397L41.3848 314.905L42.0262 314.969L45.9186 276.462L45.2772 276.397Z" fill="black"/>
<path d="M51.9708 310.25H23.0889V319.623H51.9708V310.25Z" fill="black"/>
<path opacity="0.2" d="M51.9708 310.25H23.0889V319.623H51.9708V310.25Z" fill="white"/>
<path d="M69.3825 292.991C74.8538 285.72 72.2456 274.525 63.5569 267.988C54.8682 261.45 43.3892 262.045 37.9179 269.317C32.4466 276.589 35.0548 287.784 43.7435 294.321C52.4322 300.858 63.9112 300.263 69.3825 292.991Z" fill="#09BA85"/>
<path opacity="0.2" d="M69.3825 292.991C74.8538 285.72 72.2456 274.525 63.5569 267.988C54.8682 261.45 43.3892 262.045 37.9179 269.317C32.4466 276.589 35.0548 287.784 43.7435 294.321C52.4322 300.858 63.9112 300.263 69.3825 292.991Z" fill="white"/>
<path opacity="0.5" d="M69.3812 292.992C69.0138 293.483 68.6129 293.947 68.1813 294.383C62.1585 298.231 53.2686 297.625 46.2163 292.318C37.5283 285.782 34.9207 274.587 40.3928 267.315C40.7607 266.826 41.1605 266.362 41.5897 265.925C47.6155 262.074 56.5024 262.683 63.5577 267.987C72.2453 274.526 74.8529 285.721 69.3812 292.992Z" fill="white"/>
<path d="M29.0747 265.402C37.6821 258.758 40.0215 247.363 34.2999 239.951C28.5784 232.539 16.9624 231.916 8.35507 238.561C-0.252317 245.205 -2.59173 256.6 3.12984 264.012C8.85141 271.424 20.4673 272.047 29.0747 265.402Z" fill="#09BA85"/>
<path opacity="0.2" d="M26.3507 263.496C19.6847 268.645 11.2131 269.43 5.07226 266.078C4.36154 265.452 3.71243 264.759 3.13381 264.01C-2.59062 256.6 -0.251338 245.203 8.35571 238.561C15.0217 233.415 23.4933 232.627 29.6312 235.976C30.3433 236.602 30.9934 237.296 31.5722 238.047C37.2952 245.457 34.9559 256.854 26.3507 263.496Z" fill="white"/>
</g>
<defs>
<clipPath id="clip0_285_4270">
<rect width="264.889" height="320" fill="white"/>
</clipPath>
</defs>
</svg>
