<svg width="32" height="32" viewBox="0 0 32 32" fill="none" xmlns="http://www.w3.org/2000/svg">
<path d="M5.5861 16.5566C4.25264 16.5566 3.17139 17.6376 3.17139 18.9714C3.17139 19.0742 3.17979 19.1754 3.19273 19.2746C3.34243 20.4649 4.35546 21.3854 5.58578 21.3854C6.8494 21.3854 7.88538 20.4141 7.99047 19.177C7.99597 19.1094 8.00049 19.0406 8.00049 18.971C8.00082 17.6376 6.91988 16.5566 5.5861 16.5566ZM4.37745 18.0615L4.86958 18.5539C4.83142 18.6196 4.80135 18.6904 4.78195 18.766H4.08806C4.12363 18.5035 4.22419 18.2636 4.37745 18.0615ZM4.08483 19.1841H4.78421C4.80394 19.2585 4.83304 19.329 4.87184 19.3936L4.37842 19.8867C4.22548 19.6863 4.12266 19.4463 4.08483 19.1841ZM5.37722 20.4713C5.11564 20.4348 4.87798 20.3323 4.67686 20.1807L5.1677 19.6895C5.23237 19.7273 5.30318 19.7551 5.37722 19.7745V20.4713ZM5.37722 18.1682C5.30124 18.1882 5.2301 18.218 5.16382 18.2571L4.67201 17.7653C4.8741 17.6117 5.11402 17.5102 5.37722 17.4736V18.1682ZM5.7953 17.473C6.0585 17.5095 6.29875 17.6117 6.50051 17.765L6.00903 18.2568C5.94307 18.2176 5.87129 18.1879 5.79563 18.1679L5.7953 17.473ZM5.7953 20.4707V19.7749C5.86967 19.7551 5.93984 19.7277 6.0045 19.6895L6.49566 20.1807C6.29454 20.3323 6.05656 20.4342 5.7953 20.4707ZM6.79507 19.889L6.30004 19.3933C6.33884 19.3283 6.3702 19.2588 6.38993 19.1844H7.08382C7.04696 19.4457 6.94834 19.6876 6.79507 19.889ZM6.3909 18.766C6.37117 18.6904 6.34143 18.6196 6.30327 18.5539L6.79604 18.0615C6.94834 18.2636 7.0489 18.5035 7.08511 18.7664H6.3909V18.766Z" fill="#4283F0"/>
<path d="M25.6359 16.5566C24.3024 16.5566 23.2212 17.6376 23.2212 18.9714C23.2212 19.0742 23.2296 19.1754 23.2425 19.2746C23.3922 20.4649 24.4053 21.3854 25.6353 21.3854C26.8989 21.3854 27.9349 20.4141 28.0403 19.177C28.0458 19.1094 28.0503 19.0406 28.0503 18.971C28.0509 17.6376 26.9697 16.5566 25.6359 16.5566ZM24.4273 18.0615L24.9191 18.5539C24.8809 18.6196 24.8508 18.6904 24.8314 18.766H24.1375C24.1734 18.5035 24.274 18.2636 24.4273 18.0615ZM24.135 19.1841H24.8343C24.8541 19.2585 24.8832 19.329 24.922 19.3936L24.4289 19.8867C24.2753 19.6863 24.1721 19.4463 24.135 19.1841ZM25.427 20.4713C25.1654 20.4348 24.9278 20.3323 24.7267 20.1807L25.2175 19.6895C25.2822 19.7273 25.353 19.7551 25.427 19.7745V20.4713ZM25.427 18.1682C25.351 18.1882 25.2799 18.218 25.2136 18.2571L24.7218 17.7653C24.9239 17.6117 25.1635 17.5102 25.427 17.4736V18.1682ZM25.8454 17.473C26.1086 17.5095 26.3489 17.6117 26.5506 17.765L26.0588 18.2568C25.9929 18.2176 25.9211 18.1873 25.8454 18.1679V17.473ZM25.8454 20.4707V19.7749C25.9198 19.7551 25.99 19.7277 26.0546 19.6895L26.5458 20.1807C26.3447 20.3323 26.1064 20.4342 25.8454 20.4707ZM26.8449 19.889L26.3498 19.394C26.3886 19.3286 26.4203 19.2595 26.4397 19.1848H27.1336C27.0968 19.4457 26.9985 19.6876 26.8449 19.889ZM26.4407 18.766C26.421 18.6904 26.3916 18.6196 26.3531 18.5539L26.8455 18.0615C26.9981 18.2636 27.0984 18.5035 27.1349 18.7664H26.4407V18.766Z" fill="#4283F0"/>
<path d="M31.4342 15.3072V13.5204C31.4342 13.233 31.2253 12.9895 30.9414 12.9452C30.2601 12.8385 29.0524 12.637 28.5098 12.4699C27.7319 12.23 24.7261 10.9573 23.6853 10.7183C22.6441 10.4794 17.9498 9.20348 13.4538 10.762C12.693 11.0255 9.27039 12.6616 7.25791 13.5123C6.66523 13.5253 0.798841 14.7481 0.486494 15.5862C0.174146 16.4247 0.0761732 16.8314 0.0186184 17.0442C-0.0389363 17.2569 0.0186184 18.2751 0.454483 18.9842C0.898754 19.2355 1.75399 19.4043 2.74277 19.5174C2.73145 19.457 2.71917 19.3975 2.71141 19.3364C2.69427 19.2057 2.68619 19.0864 2.68619 18.9726C2.68619 17.3737 3.98666 16.0725 5.58591 16.0725C7.18516 16.0725 8.48564 17.3734 8.48564 18.9726C8.48564 19.0547 8.48014 19.1362 8.474 19.2164C8.4588 19.3959 8.42647 19.5701 8.37958 19.7379C8.38185 19.7379 8.38734 19.7379 8.38734 19.7379L22.7812 19.4482C22.7747 19.411 22.7663 19.3742 22.7615 19.3364C22.7443 19.2064 22.7363 19.0867 22.7363 18.9726C22.7363 17.3737 24.0367 16.0729 25.636 16.0729C27.2352 16.0729 28.536 17.3734 28.536 18.9726C28.536 18.9787 28.5354 18.9839 28.5351 18.9897L28.5965 18.9846L31.0575 18.5212C31.0575 18.5212 32 18.0194 32 16.6387C32.0003 15.7178 31.4342 15.3072 31.4342 15.3072ZM17.1557 13.6132L11.7802 13.7778C11.8791 12.9724 11.4022 12.7916 11.4022 12.7916C13.5391 10.8519 17.8461 10.7862 17.8461 10.7862L17.1557 13.6132ZM23.1886 13.3672L18.29 13.5317L18.7339 10.7866C21.2657 10.7536 22.712 11.3123 22.712 11.3123L23.4353 12.4796L23.1886 13.3672ZM25.9503 13.3503H24.5855L23.221 11.4766C24.2447 11.884 25.064 12.2856 25.5519 12.5394C25.8481 12.6933 26.0098 13.0221 25.9503 13.3503Z" fill="#4283F0"/>
</svg>
