<svg width="128" height="128" viewBox="0 0 128 128" fill="none" xmlns="http://www.w3.org/2000/svg">
<circle cx="64" cy="64" r="64" fill="#4283F0"/>
<path fill-rule="evenodd" clip-rule="evenodd" d="M63.9983 28C83.8782 28 100 44.1218 100 64.0017C100 83.8782 83.8782 100 63.9983 100C44.1218 100 28 83.8782 28 64.0017C28 44.1218 44.1218 28 63.9983 28ZM53.6012 58.909L59.4939 64.4757L73.582 49.9708C74.7383 48.8043 75.461 47.8598 76.883 49.3254L81.4983 54.0584C83.0177 55.5542 82.9404 56.4383 81.5117 57.8333L62.1327 77.125C59.1141 80.0797 59.6418 80.2613 56.5862 77.2292L45.8294 66.5329C45.1941 65.8471 45.2579 65.148 45.9605 64.4622L51.3187 58.9023C52.1322 58.0451 52.7776 58.119 53.6012 58.909Z" fill="white"/>
</svg>
