<svg width="28" height="28" viewBox="0 0 28 28" fill="none" xmlns="http://www.w3.org/2000/svg">
<g clip-path="url(#clip0_1213_4773)">
<path d="M7.92324 12.0289L5.38379 20.3996V25.3773H6.56623V27.3805H10.7786V25.3773H17.345V27.3805H21.6813V25.3773H22.8031V20.3996L20.2637 12.0289H7.92324ZM9.68167 13.594H18.5054L19.9354 18.7275H8.25156L9.68167 13.594ZM11.0264 23.1681H7.30959V21.1858H11.0264V23.1681ZM20.4423 23.1681H16.8494V21.1858H20.4423V23.1681Z" fill="#4283F0"/>
<path d="M0 0.619469V27.2566H3.71681V4.33628H24.2832V27.2566H28V0.619469H0Z" fill="#4283F0"/>
<path d="M15.5254 7.77248C15.5254 6.93656 14.7209 5.80802 14.5597 5.59021L14.0663 4.92379L13.5672 5.58612C13.4054 5.80071 12.5986 6.91501 12.5986 7.77248C12.5986 8.5794 13.2551 9.23591 14.0621 9.23591C14.8689 9.23591 15.5254 8.5794 15.5254 7.77248Z" fill="#4283F0"/>
<path d="M19.4902 9.01142C19.4902 8.1755 18.6858 7.04696 18.5246 6.82915L18.0311 6.16273L17.5321 6.82506C17.3703 7.03965 16.5635 8.15395 16.5635 9.01142C16.5635 9.81834 17.22 10.4748 18.0269 10.4748C18.8337 10.4748 19.4902 9.81834 19.4902 9.01142Z" fill="#4283F0"/>
<path d="M11.6846 9.01142C11.6846 8.1755 10.8801 7.04696 10.7189 6.82915L10.2255 6.16273L9.72641 6.82506C9.56461 7.03965 8.75781 8.15395 8.75781 9.01142C8.75781 9.81834 9.41433 10.4748 10.2212 10.4748C11.028 10.4748 11.6846 9.81834 11.6846 9.01142Z" fill="#4283F0"/>
</g>
<defs>
<clipPath id="clip0_1213_4773">
<rect width="28" height="28" fill="white"/>
</clipPath>
</defs>
</svg>
