<svg width="26" height="28" viewBox="0 0 26 28" fill="none" xmlns="http://www.w3.org/2000/svg">
<g clip-path="url(#clip0_1206_4730)">
<path d="M9.90527 6.4645V1.22361H2.82552V2.33787L3.22884 2.46547C3.42996 2.6841 3.69887 2.82859 3.99219 2.87563C4.54362 2.98045 4.33171 2.78904 4.73503 3.20376C5.08851 3.58203 5.5587 3.83077 6.07031 3.91014C6.63314 3.99672 6.36198 3.83038 6.70833 4.28383C6.90981 4.56185 7.18094 4.7819 7.49447 4.92185C8.36947 5.291 8.0459 4.84666 8.70215 5.60545C8.81789 5.73726 8.95791 5.84556 9.11458 5.92446C9.39975 6.06851 9.66481 6.2493 9.90299 6.46222L9.90527 6.4645ZM21.4808 14.875C21.5856 14.8763 21.6877 14.9087 21.7741 14.9679C21.8606 15.0272 21.9275 15.1107 21.9666 15.208C22.0057 15.3052 22.0151 15.4119 21.9937 15.5144C21.9722 15.617 21.9209 15.711 21.8462 15.7845C21.7714 15.858 21.6766 15.9077 21.5736 15.9273C21.4707 15.947 21.3642 15.9358 21.2677 15.8951C21.1711 15.8543 21.0887 15.7859 21.031 15.6985C20.9732 15.611 20.9426 15.5084 20.943 15.4036C20.9436 15.3336 20.958 15.2644 20.9854 15.1999C21.0127 15.1355 21.0525 15.077 21.1024 15.0279C21.1524 14.9788 21.2115 14.9401 21.2764 14.9138C21.3413 14.8876 21.4108 14.8744 21.4808 14.875ZM24.541 14.8226C24.6458 14.8239 24.7479 14.8563 24.8343 14.9155C24.9208 14.9748 24.9878 15.0583 25.0268 15.1555C25.0659 15.2528 25.0753 15.3594 25.0539 15.462C25.0324 15.5646 24.9811 15.6586 24.9064 15.7321C24.8316 15.8055 24.7368 15.8553 24.6339 15.8749C24.5309 15.8946 24.4244 15.8834 24.3279 15.8427C24.2313 15.8019 24.1489 15.7335 24.0912 15.6461C24.0334 15.5586 24.0028 15.456 24.0033 15.3512C24.0035 15.2811 24.0177 15.2118 24.045 15.1472C24.0722 15.0825 24.112 15.024 24.162 14.9748C24.212 14.9257 24.2712 14.8869 24.3363 14.8608C24.4013 14.8347 24.4709 14.8217 24.541 14.8226ZM24.4818 16.8187C24.5865 16.82 24.6884 16.8523 24.7749 16.9114C24.8613 16.9706 24.9282 17.054 24.9674 17.1511C25.0065 17.2482 25.0161 17.3548 24.9948 17.4573C24.9736 17.5598 24.9225 17.6538 24.8479 17.7274C24.7734 17.8009 24.6788 17.8508 24.576 17.8708C24.4732 17.8907 24.3668 17.8798 24.2702 17.8394C24.1736 17.799 24.0911 17.731 24.033 17.6438C23.975 17.5567 23.944 17.4543 23.944 17.3496C23.9452 17.208 24.0025 17.0726 24.1033 16.9731C24.204 16.8736 24.3401 16.8181 24.4818 16.8187ZM22.9961 15.8821C23.1011 15.8835 23.2033 15.916 23.2899 15.9754C23.3764 16.0349 23.4434 16.1187 23.4823 16.2162C23.5212 16.3137 23.5304 16.4206 23.5086 16.5233C23.4867 16.626 23.435 16.72 23.3598 16.7932C23.2846 16.8665 23.1893 16.9159 23.0861 16.935C22.9828 16.9542 22.8762 16.9423 22.7798 16.9009C22.6833 16.8595 22.6012 16.7904 22.544 16.7023C22.4868 16.6143 22.457 16.5112 22.4583 16.4062C22.4589 16.3362 22.4733 16.267 22.5007 16.2025C22.528 16.1381 22.5678 16.0796 22.6177 16.0305C22.6677 15.9814 22.7268 15.9427 22.7917 15.9164C22.8566 15.8902 22.9261 15.877 22.9961 15.8776V15.8821ZM24.541 12.8584C24.6457 12.8597 24.7477 12.892 24.8341 12.9512C24.9205 13.0103 24.9875 13.0937 25.0266 13.1908C25.0658 13.2879 25.0753 13.3945 25.0541 13.497C25.0328 13.5995 24.9817 13.6935 24.9072 13.7671C24.8327 13.8406 24.7381 13.8905 24.6353 13.9105C24.5325 13.9304 24.4261 13.9195 24.3295 13.8791C24.2328 13.8387 24.1503 13.7707 24.0923 13.6835C24.0342 13.5964 24.0033 13.494 24.0033 13.3893C24.0036 13.3191 24.0177 13.2496 24.0449 13.1849C24.0721 13.1202 24.1119 13.0615 24.1618 13.0121C24.2118 12.9628 24.271 12.9238 24.3361 12.8974C24.4012 12.871 24.4708 12.8578 24.541 12.8584ZM23.0143 13.8655C23.119 13.8669 23.221 13.8992 23.3074 13.9583C23.3938 14.0175 23.4608 14.1009 23.4999 14.198C23.5391 14.2951 23.5486 14.4016 23.5274 14.5042C23.5061 14.6067 23.455 14.7007 23.3805 14.7742C23.306 14.8478 23.2114 14.8977 23.1086 14.9176C23.0058 14.9376 22.8994 14.9267 22.8028 14.8863C22.7061 14.8459 22.6236 14.7779 22.5656 14.6907C22.5075 14.6035 22.4766 14.5012 22.4766 14.3965C22.4778 14.2548 22.535 14.1195 22.6358 14.02C22.7366 13.9205 22.8727 13.8649 23.0143 13.8655ZM16.9987 13.0999L18.3294 13.0794L18.3431 13.9385L20.5557 14.8886L20.5739 16.1419L18.3887 17.3997L18.4023 18.3112L17.0716 18.3317L16.9964 13.0908L16.9987 13.0999ZM15.472 13.0885H16.4906V18.2861H15.4697V18.1015L11.653 18.874C11.6666 18.8368 11.6735 18.7974 11.6735 18.7578V16.5088C11.6664 16.4209 11.6265 16.3389 11.5617 16.2791C11.4969 16.2193 11.4119 16.1861 11.3237 16.1861C11.2356 16.1861 11.1506 16.2193 11.0858 16.2791C11.021 16.3389 10.9811 16.4209 10.974 16.5088V18.7578C10.9769 18.842 11.0091 18.9226 11.0651 18.9857L10.1947 19.1611C8.85482 19.2044 7.84538 19.7946 7.55143 21.5651L6.42578 25.6894C6.95443 26.4596 7.07975 27.0748 6.72656 27.5123C6.21387 28.1413 5.30241 27.9681 4.58464 27.9681H1.22819C0.316732 27.8883 -0.031901 27.2845 0.0182292 26.2978C0.0182292 25.2565 0.193685 24.7666 0.633464 23.7913C0.862847 23.2826 1.13578 22.7947 1.44922 22.333C2.26953 20.9476 2.8278 19.7376 2.88477 18.915C3.03743 16.7959 0 19.4232 0 15.6998V14.1595C0.000601335 13.9409 0.0877001 13.7314 0.242263 13.5769C0.396826 13.4223 0.606286 13.3352 0.82487 13.3346H4.78516V10.6002C3.96922 10.5223 3.20607 10.1621 2.62728 9.58169C2.30007 9.25564 2.04045 8.8682 1.86332 8.4416C1.68618 8.01499 1.59502 7.5576 1.59505 7.09568V1.22817H0.729167C0.572765 1.21864 0.425894 1.14979 0.318519 1.03567C0.211144 0.921554 0.151357 0.770766 0.151357 0.614075C0.151357 0.457383 0.211144 0.306595 0.318519 0.192478C0.425894 0.0783596 0.572765 0.00951124 0.729167 -2.03014e-05H11.9993C12.0831 -0.00512672 12.1671 0.00696825 12.246 0.0355202C12.325 0.0640722 12.3972 0.108477 12.4584 0.166002C12.5195 0.223527 12.5682 0.292955 12.6015 0.370013C12.6348 0.447071 12.652 0.530129 12.652 0.614075C12.652 0.698021 12.6348 0.781078 12.6015 0.858136C12.5682 0.935194 12.5195 1.00462 12.4584 1.06215C12.3972 1.11967 12.325 1.16408 12.246 1.19263C12.1671 1.22118 12.0831 1.23328 11.9993 1.22817H11.1312V7.09568C11.1309 7.55776 11.0394 8.01524 10.8619 8.44186C10.6843 8.86847 10.4243 9.25583 10.0967 9.58169C9.51848 10.1616 8.75621 10.5218 7.94108 10.6002V13.3346H15.4697V13.0885H15.472ZM9.29915 23.9394L9.96452 22.0208C10.1605 21.4534 9.96452 20.8086 9.55664 20.6058L8.8252 20.2321C8.56315 21.0661 7.9821 22.7226 7.72233 23.5566L8.93457 24.1719C9.07357 24.2425 9.23079 24.1377 9.29915 23.944V23.9394Z" fill="#4283F0"/>
</g>
<defs>
<clipPath id="clip0_1206_4730">
<rect width="25.0788" height="28" fill="white"/>
</clipPath>
</defs>
</svg>
