<svg width="26" height="28" viewBox="0 0 26 28" fill="none" xmlns="http://www.w3.org/2000/svg">
<g clip-path="url(#clip0_1213_4747)">
<path fill-rule="evenodd" clip-rule="evenodd" d="M10.1195 6.73112C10.1402 6.60412 10.1105 6.47405 10.0368 6.36856C9.96317 6.26306 9.85127 6.19044 9.72491 6.16612C9.59855 6.14179 9.46769 6.16769 9.36012 6.2383C9.25255 6.3089 9.17674 6.41867 9.14879 6.54427L8.95966 7.51953C8.94409 7.64447 8.97654 7.77065 9.05045 7.87257C9.12436 7.9745 9.23422 8.04455 9.35781 8.06857C9.4814 8.0926 9.6095 8.0688 9.71621 8.00198C9.82292 7.93517 9.90027 7.83033 9.93264 7.70866L10.1195 6.73568V6.73112ZM13.1683 7.29167C13.1697 7.16416 13.1217 7.04106 13.0345 6.94806C12.9472 6.85507 12.8274 6.79937 12.7001 6.79261C12.5728 6.78585 12.4477 6.82854 12.3511 6.91176C12.2545 6.99499 12.1938 7.11232 12.1817 7.23926L12.1293 8.22819C12.1226 8.35933 12.1683 8.48774 12.2564 8.58517C12.3444 8.6826 12.4675 8.74107 12.5987 8.74772C12.7298 8.75437 12.8582 8.70865 12.9556 8.62062C13.0531 8.53259 13.1115 8.40946 13.1182 8.27832L13.1683 7.29167ZM12.9883 10.6481L13.0134 10.2539C13.0147 10.1264 12.9668 10.0033 12.8795 9.9103C12.7923 9.81731 12.6725 9.76161 12.5452 9.75485C12.4178 9.74809 12.2928 9.79078 12.1962 9.874C12.0996 9.95723 12.0389 10.0746 12.0267 10.2015L12.0017 10.6572H9.3607V10.6276L9.54755 9.6569C9.57263 9.52818 9.54555 9.39476 9.47226 9.28601C9.39897 9.17725 9.28549 9.10207 9.15676 9.07699C9.02804 9.05191 8.89462 9.07899 8.78587 9.15228C8.67711 9.22556 8.60193 9.33905 8.57685 9.46777L8.38772 10.4408C8.37173 10.512 8.37173 10.586 8.38772 10.6572H6.36656C5.02216 10.6572 4.33629 11.8216 3.92385 13.1045L2.8734 16.3561L2.36526 15.4036C0.0934479 15.2669 -0.166318 16.5498 2.09638 17.7005C-0.423805 19.332 -0.0751719 22.1872 0.170922 25.3545C0.168575 25.394 0.168575 25.4335 0.170922 25.473V27.2367C0.172123 27.4391 0.253244 27.6329 0.396632 27.7759C0.54002 27.9189 0.734068 27.9994 0.936547 28H4.18817C4.39065 27.9994 4.5847 27.9189 4.72809 27.7759C4.87148 27.6329 4.9526 27.4391 4.9538 27.2367V26.6214H20.3688V27.2367C20.37 27.4391 20.4512 27.6329 20.5946 27.7759C20.7379 27.9189 20.932 27.9994 21.1345 28H24.3952C24.5977 27.9994 24.7917 27.9189 24.9351 27.7759C25.0785 27.6329 25.1596 27.4391 25.1608 27.2367V25.8695C25.4138 21.7406 25.5664 20.0726 23.9418 18.4023L23.5384 17.7871C26.0108 16.6341 25.8034 15.2669 23.4701 15.4036L23.0143 16.2559L22.2259 13.0931C21.9001 11.7897 21.1254 10.6481 19.7809 10.6481H17.0899C17.1188 10.563 17.1236 10.4715 17.1035 10.3838L16.9235 9.45866C16.8912 9.33699 16.8138 9.23215 16.7071 9.16534C16.6004 9.09852 16.4723 9.07472 16.3487 9.09874C16.2251 9.12277 16.1153 9.19282 16.0413 9.29474C15.9674 9.39667 15.935 9.52285 15.9505 9.64779L16.1328 10.5729C16.1372 10.5986 16.1441 10.6238 16.1533 10.6481H12.9883ZM9.26728 3.8737H9.22854H7.55601C7.5204 3.87458 7.48531 3.88248 7.45275 3.89693C7.42019 3.91138 7.3908 3.93211 7.36625 3.95793C7.3417 3.98374 7.32248 4.01414 7.30969 4.04739C7.2969 4.08064 7.29078 4.11608 7.29169 4.15169V5.02441C7.29169 5.09633 7.32026 5.1653 7.37111 5.21615C7.42196 5.267 7.49093 5.29557 7.56285 5.29557H17.7735C17.8454 5.29557 17.9143 5.267 17.9652 5.21615C18.0161 5.1653 18.0446 5.09633 18.0446 5.02441V4.15169C18.0455 4.11551 18.0392 4.07952 18.026 4.04582C18.0128 4.01213 17.9929 3.98143 17.9677 3.95552C17.9424 3.92961 17.9122 3.90903 17.8788 3.89497C17.8455 3.88092 17.8097 3.87369 17.7735 3.8737H16.5043L16.4359 3.82357C16.003 1.77279 14.6358 0.720052 13.2093 0.55599V0H12.1087V0.610677C10.7211 0.895508 9.49058 2.01888 9.26728 3.8737ZM7.93883 6.58984C7.97962 6.46885 7.97203 6.33676 7.91764 6.22123C7.86324 6.10571 7.76627 6.0157 7.64702 5.97006C7.52776 5.92442 7.39547 5.92668 7.27785 5.97638C7.16022 6.02607 7.06638 6.11934 7.01597 6.23665L6.66278 7.16178C6.61534 7.28446 6.61858 7.42097 6.67178 7.54126C6.72499 7.66155 6.8238 7.75578 6.94648 7.80322C7.06916 7.85066 7.20566 7.84743 7.32595 7.79422C7.44624 7.74102 7.54047 7.64221 7.58791 7.51953L7.93883 6.60807V6.58984ZM5.37079 12.8333C5.44203 12.8118 5.5069 12.7731 5.55973 12.7206C5.61256 12.6682 5.65174 12.6036 5.67385 12.5326L5.73993 12.3594C5.88046 12.2192 6.04758 12.1084 6.23149 12.0337C6.4154 11.9589 6.61239 11.9217 6.8109 11.9242H19.1976C20.223 11.9242 20.8451 12.79 21.0615 13.7881L21.8522 17.0693H3.96259L4.94696 13.7881C5.05095 13.4524 5.19316 13.1297 5.37079 12.8265V12.8333ZM5.59866 9.93717C5.55212 10.0599 5.55623 10.196 5.61007 10.3156C5.66392 10.4353 5.76309 10.5287 5.88577 10.5752C6.00845 10.6217 6.14459 10.6176 6.26424 10.5638C6.38389 10.5099 6.47725 10.4108 6.52379 10.2881L6.87698 9.36296C6.92351 9.24028 6.9194 9.10414 6.86556 8.98448C6.81172 8.86483 6.71255 8.77147 6.58987 8.72494C6.46719 8.6784 6.33105 8.68251 6.21139 8.73635C6.09174 8.79019 5.99838 8.88936 5.95185 9.01204L5.60549 9.93717H5.59866ZM18.7191 6.15234C18.6892 6.09399 18.6481 6.04211 18.5981 5.99965C18.5481 5.95719 18.4903 5.92499 18.4278 5.90489C18.3654 5.88479 18.2996 5.87718 18.2343 5.8825C18.1689 5.88781 18.1052 5.90595 18.0469 5.93587C17.9885 5.9658 17.9367 6.00692 17.8942 6.0569C17.8517 6.10687 17.8195 6.16472 17.7994 6.22714C17.7793 6.28956 17.7717 6.35533 17.7771 6.42069C17.7824 6.48605 17.8005 6.54972 17.8304 6.60807L18.2656 7.49675C18.3234 7.61459 18.4255 7.70468 18.5497 7.7472C18.6738 7.78972 18.8098 7.78118 18.9276 7.72347C19.0454 7.66576 19.1355 7.56359 19.1781 7.43945C19.2206 7.31531 19.212 7.17937 19.1543 7.06152L18.7191 6.15234ZM19.569 10.1423C19.6315 10.2522 19.7334 10.3341 19.8542 10.3715C19.975 10.4088 20.1054 10.3987 20.219 10.3432C20.3326 10.2878 20.4207 10.1911 20.4655 10.0729C20.5103 9.95466 20.5083 9.82383 20.46 9.70703L20.0248 8.81836C19.9658 8.70112 19.8628 8.61209 19.7382 8.57085C19.6136 8.52961 19.4778 8.53955 19.3605 8.59847C19.2433 8.65739 19.1543 8.76048 19.113 8.88504C19.0718 9.00961 19.0817 9.14546 19.1406 9.2627L19.5736 10.1514L19.569 10.1423ZM16.3584 6.54427C16.3333 6.41555 16.2582 6.30206 16.1494 6.22877C16.0406 6.15549 15.9072 6.1284 15.7785 6.15348C15.6498 6.17856 15.5363 6.25375 15.463 6.36251C15.3897 6.47126 15.3626 6.60468 15.3877 6.7334L15.5768 7.7041C15.6058 7.82839 15.6817 7.93665 15.7887 8.00626C15.8957 8.07587 16.0254 8.10143 16.1508 8.07759C16.2761 8.05375 16.3874 7.98236 16.4614 7.87836C16.5353 7.77435 16.5662 7.64578 16.5476 7.51953L16.3584 6.54883V6.54427ZM6.25946 21.4557L3.3633 21.0911C2.67971 21.016 2.49514 21.3031 2.72756 21.8932L3.04202 22.6543C3.13066 22.8323 3.26617 22.9828 3.43394 23.0895C3.63059 23.2042 3.85348 23.2662 4.08108 23.2695L6.66506 23.29C7.28941 23.29 7.56057 23.0394 7.36461 22.4652C7.29465 22.2097 7.15369 21.9792 6.95809 21.8005C6.76249 21.6219 6.52025 21.5023 6.25946 21.4557ZM19.0586 21.4557L21.9571 21.0911C22.6406 21.016 22.8229 21.3031 22.5905 21.8932L22.2783 22.6543C22.189 22.8319 22.0537 22.9822 21.8864 23.0895C21.6889 23.2042 21.4653 23.2661 21.237 23.2695L18.653 23.29C18.0287 23.29 17.7598 23.0394 17.9558 22.4652C18.0248 22.2096 18.1652 21.9789 18.3605 21.8002C18.5558 21.6214 18.7979 21.5019 19.0586 21.4557Z" fill="#4283F0"/>
</g>
<defs>
<clipPath id="clip0_1213_4747">
<rect width="25.318" height="28" fill="white"/>
</clipPath>
</defs>
</svg>
