<svg width="28" height="28" viewBox="0 0 28 28" fill="none" xmlns="http://www.w3.org/2000/svg">
<g clip-path="url(#clip0_1206_4614)">
<path d="M24.1504 17.6355H27.8215V12.7835H22.3955C22.7198 13.1751 23.0124 13.6772 23.1422 14.1738C23.4185 15.0662 22.935 16.0323 22.0619 16.3295C21.1699 16.6331 20.1958 16.1454 19.9046 15.217C19.6857 14.5188 20.1336 14.2387 18.9961 13.8297C18.5566 13.6713 18.2655 13.2708 18.2165 12.8287C18.1948 12.6324 18.2192 12.4355 18.2986 12.2431C18.2197 12.2625 17.4438 12.4116 17.304 12.4154L17.1616 13.2108C16.222 13.7577 15.5898 14.7751 15.5898 15.9407V22.4154C15.5898 23.0679 16.1189 23.597 16.7715 23.597H17.49V25.7022C17.49 26.9712 18.5188 27.9999 19.7878 27.9999C21.0568 27.9999 22.0856 26.9712 22.0856 25.7022V23.597H24.0729V24.5916C24.0729 24.9255 24.3436 25.1963 24.6775 25.1963H27.8215V21.9563V21.955H25.3368C24.9317 21.955 24.6033 21.6266 24.6033 21.2215C24.6033 20.8165 24.9317 20.4881 25.3368 20.4881H27.8215V19.1024H24.1504C23.7453 19.1024 23.4169 18.774 23.4169 18.369C23.4169 17.9639 23.7453 17.6355 24.1504 17.6355ZM19.7282 20.358C18.6951 20.358 17.6695 19.4874 17.6695 18.2751C17.6695 17.1336 18.5949 16.2082 19.7364 16.2082C20.878 16.2082 21.8033 17.1336 21.8033 18.2751C21.8034 19.4609 20.811 20.358 19.7282 20.358Z" fill="#4283F0"/>
<path d="M21.9684 4.12445H19.6017C19.131 4.12445 18.7278 4.46182 18.6448 4.92524L18.5288 5.57301C19.1165 5.70481 19.5981 6.14433 19.7813 6.75011C19.9301 7.24213 19.8809 8.16411 19.4007 9.09554C19.4966 9.04036 19.6103 8.9842 19.9354 8.74921L20.4153 6.06865H21.8147C21.9794 5.42098 22.026 4.74351 21.9684 4.12445Z" fill="#4283F0"/>
<path d="M25.2544 4.12439C25.2425 4.89248 25.1592 5.46691 25.0249 6.06864H25.5583C25.5583 6.24982 25.5594 6.70449 25.5594 6.86166C25.5594 7.18148 25.8187 7.44069 26.1384 7.44069H27.8214V5.70672V4.12439H25.2544Z" fill="#4283F0"/>
<path d="M5.35554 20.4697L5.29631 19.972C4.39736 20.0643 3.44645 19.9908 2.57369 19.7325L2.65911 20.4502L0.397293 26.1701C0.12566 26.8572 0.462316 27.6342 1.14936 27.9059C1.83645 28.1776 2.61345 27.8407 2.88508 27.1539L5.27115 21.1196C5.35275 20.9133 5.38173 20.69 5.35554 20.4697Z" fill="#4283F0"/>
<path d="M8.96003 19.8457L8.79553 18.533C8.03286 19.1438 7.18367 19.5693 6.25858 19.8026L6.27838 19.9606L4.97042 26.3957C4.82331 27.1196 5.29083 27.8258 6.01484 27.9729C6.73841 28.12 7.44486 27.6527 7.59202 26.9285L8.94363 20.2784C8.97256 20.1361 8.97808 19.9899 8.96003 19.8457Z" fill="#4283F0"/>
<path d="M15.8854 11.5311C15.7795 11.1721 15.4025 10.9671 15.0435 11.073L12.627 11.7862C12.8551 12.1737 12.973 12.6309 12.9438 13.106L13.2679 13.0103L13.0763 13.7476C12.9821 14.1099 13.1995 14.4799 13.5618 14.574C13.9237 14.6682 14.2939 14.4511 14.3882 14.0885L14.7848 12.5626L15.4271 12.373C15.7862 12.267 15.9914 11.8901 15.8854 11.5311Z" fill="#4283F0"/>
<path d="M5.21548 4.95447C6.52859 4.95447 7.59308 3.84537 7.59308 2.47723C7.59308 1.1091 6.52859 0 5.21548 0C3.90238 0 2.83789 1.1091 2.83789 2.47723C2.83789 3.84537 3.90238 4.95447 5.21548 4.95447Z" fill="#4283F0"/>
<path d="M8.60606 14.9318C8.50631 15.1046 8.39546 15.2807 8.27252 15.4552C7.26217 16.8905 5.92982 17.5792 4.31145 17.5025C2.78113 17.4297 1.89459 16.6908 1.38163 15.8238C1.33875 15.7514 1.26848 15.6993 1.18672 15.6794C1.10496 15.6595 1.0185 15.6734 0.947188 15.7181L0.325118 16.1078C0.182001 16.1975 0.136282 16.3843 0.221649 16.53C1.02802 17.9061 2.3631 18.7668 4.24709 18.8564C6.35485 18.9562 8.13515 18.0277 9.40773 16.1971C9.65076 15.8474 9.85266 15.4966 10.019 15.1676L8.60606 14.9318Z" fill="#4283F0"/>
<path d="M10.8884 11.7824L6.97011 11.1285L5.20053 7.08348L7.57052 10.1193L8.24083 10.2311V7.3696C8.24083 6.44539 7.5218 5.69617 6.63477 5.69617H3.77051C2.88348 5.69617 2.17773 6.44539 2.17773 7.3696V14.8546C2.58111 15.8415 3.25584 16.305 4.36551 16.3578C5.6499 16.4189 6.65626 15.7867 7.3865 14.7284C5.68178 14.4439 5.77984 14.462 5.68501 14.44C4.71704 14.2163 4.15666 13.399 4.06276 12.9091L3.15495 8.17149L5.13748 12.7032C5.26654 12.9983 5.5041 13.224 5.79312 13.3322C5.93723 13.3862 5.59488 13.3201 10.5255 14.143C11.1512 14.2475 11.7395 13.8033 11.8396 13.1518C11.9392 12.5039 11.5175 11.8874 10.8884 11.7824Z" fill="#4283F0"/>
<path d="M24.1294 2.78161C24.0324 2.41176 23.6661 2.19367 23.311 2.29473C22.9686 2.39218 22.7431 2.7616 22.8451 3.15267C23.0472 3.92327 23.0814 5.07909 22.8716 6.04739C22.6983 6.75247 22.6067 7.07775 22.1624 7.84223C21.9205 8.2741 21.3627 8.89168 21.212 9.01861C20.0503 10.1119 18.6983 10.6253 17.2356 11.0351C17.1317 11.0641 17.0855 11.1569 17.1004 11.2446C17.1171 11.3427 17.207 11.409 17.3022 11.3914C18.8688 11.1014 20.3242 10.6964 21.6911 9.6175C21.8687 9.49106 22.5493 8.86549 22.8878 8.37221C23.2442 7.86777 23.5506 7.38209 23.897 6.33827C24.3436 4.87839 24.2612 3.28676 24.1294 2.78161Z" fill="#4283F0"/>
<path d="M18.8024 7.04626C18.6903 6.67559 18.3111 6.46974 17.9552 6.58656C17.6176 6.69735 17.3913 7.0742 17.5221 7.49552C17.5544 7.53287 17.5854 7.74117 17.5891 7.79187C17.6372 8.12076 17.5529 8.44659 17.4258 8.72571C17.2016 9.18722 16.9047 9.41095 16.5739 9.65857C16.5177 9.70095 16.4905 9.77719 16.5115 9.85036C16.538 9.94278 16.6314 9.99528 16.7202 9.96761C17.0757 9.85659 17.4088 9.77166 17.9271 9.34576C17.9879 9.28604 18.2442 9.04301 18.3743 8.82327C18.7907 8.16314 18.899 7.36569 18.8024 7.04626Z" fill="#4283F0"/>
<path d="M22.1585 14.4538C21.9756 13.7523 21.4525 13.1619 20.8726 12.8386C20.2625 12.5205 19.798 12.5274 19.3977 12.5276C19.3283 12.5278 19.2632 12.5731 19.2392 12.6453C19.2089 12.7366 19.2554 12.8361 19.3429 12.8676L19.3617 12.8744C19.7089 12.9995 20.0631 13.1191 20.4161 13.5058C20.7118 13.8469 20.8649 14.2252 20.8538 14.6405C20.8529 14.6455 20.8507 14.6489 20.8478 14.6552C20.8362 15.1876 21.3068 15.5062 21.7324 15.3613C22.0565 15.251 22.2904 14.8865 22.1585 14.4538Z" fill="#4283F0"/>
</g>
<defs>
<clipPath id="clip0_1206_4614">
<rect width="28" height="28" fill="white"/>
</clipPath>
</defs>
</svg>
