<svg width="28" height="28" viewBox="0 0 28 28" fill="none" xmlns="http://www.w3.org/2000/svg">
<path d="M14.2625 9.625H8.75C8.225 9.625 7.875 9.275 7.875 8.75C7.875 7.6125 7.35 6.65 6.475 5.95C6.2125 5.775 6.125 5.5125 6.125 5.25C6.125 2.8 8.1375 0.875 10.5 0.875H21C21.525 0.875 21.875 1.225 21.875 1.75V5.25C21.875 5.775 21.525 6.125 21 6.125H18.9875C17.2375 6.125 15.575 7.35 15.05 9.0125C14.9625 9.3625 14.6125 9.625 14.2625 9.625Z" fill="#4283F0"/>
<path d="M21.0001 12.25C20.8251 12.25 20.7376 12.25 20.6501 12.1625L20.3876 11.9875C18.1126 10.85 16.4501 8.75001 15.8376 6.30001C15.7501 5.86251 16.0126 5.33751 16.4501 5.25001C16.8876 5.16251 17.4126 5.42501 17.5001 5.86251C18.0251 7.87501 19.3376 9.53751 21.1751 10.4125L21.4376 10.5875C21.8751 10.7625 22.0501 11.2875 21.7876 11.725C21.6126 12.075 21.3501 12.25 21.0001 12.25Z" fill="#4283F0"/>
<path d="M18.55 17.2375L17.15 15.925C16.1875 15.05 15.6625 13.7375 15.6625 12.425C15.6625 11.025 15.3125 9.625 14.7 8.3125C14.6125 8.05 14.35 7.875 14 7.875H8.75001C8.40001 7.875 8.05001 8.1375 7.96251 8.4875L7.70001 9.275C5.51251 15.225 5.68751 21.7 7.96251 27.475C8.05001 27.825 8.40001 28 8.75001 28H19.25C19.6875 28 20.0375 27.65 20.125 27.2125L20.65 23.275C20.9125 21.0875 20.125 18.9 18.55 17.2375ZM14 12.425C14 14.175 14.7 15.925 16.0125 17.15L16.3625 17.5H13.3C12.6 15.575 12.25 13.5625 12.25 11.55V9.625H13.475C13.825 10.5 14 11.4625 14 12.425ZM7.87501 17.5C7.96251 14.875 8.40001 12.3375 9.27501 9.8L9.36251 9.625H10.5V11.55C10.5 13.5625 10.85 15.575 11.4625 17.5H7.87501ZM16.275 24.325C16.1875 24.4125 15.925 24.5 15.75 24.5C15.4875 24.5 15.225 24.4125 15.05 24.15C13.825 22.6625 12.775 21 12.075 19.25H14C14.6125 20.65 15.4875 21.875 16.45 23.1C16.7125 23.45 16.7125 23.975 16.275 24.325Z" fill="#4283F0"/>
</svg>
