<svg width="31" height="28" viewBox="0 0 31 28" fill="none" xmlns="http://www.w3.org/2000/svg">
<g clip-path="url(#clip0_1206_4603)">
<path d="M16.4471 6.91358C16.3573 6.82061 16.2497 6.74667 16.1307 6.69618C16.0117 6.64568 15.8838 6.61966 15.7545 6.61966C15.6253 6.61966 15.4973 6.64568 15.3783 6.69618C15.2593 6.74667 15.1517 6.82061 15.0619 6.91358L14.0126 7.96049C13.7278 7.77453 13.4299 7.60949 13.1212 7.46667C12.8115 7.32556 12.4941 7.2019 12.1706 7.09629V5.49136C12.1719 5.36356 12.1477 5.23678 12.0994 5.11846C12.0511 5.00013 11.9797 4.89263 11.8893 4.80226C11.7989 4.71189 11.6914 4.64046 11.5731 4.59216C11.4548 4.54386 11.328 4.51967 11.2002 4.52099H9.18292C9.05668 4.52021 8.93157 4.54471 8.81495 4.59306C8.69833 4.6414 8.59257 4.7126 8.50391 4.80247C8.41067 4.89103 8.33685 4.99799 8.28712 5.11657C8.23739 5.23516 8.21284 5.36278 8.21502 5.49136V6.97284C7.87889 7.049 7.54879 7.14968 7.22737 7.27407C6.91628 7.39265 6.61353 7.53206 6.32119 7.69136L5.15823 6.54321C5.07447 6.45003 4.97206 6.3755 4.85763 6.32445C4.74321 6.27341 4.61933 6.24699 4.49403 6.24691C4.36552 6.24665 4.23827 6.27232 4.1199 6.32239C4.00153 6.37245 3.89448 6.44587 3.80515 6.53827L2.39033 7.95802C2.29819 8.04754 2.22495 8.15464 2.17493 8.27296C2.12492 8.39129 2.09915 8.51845 2.09915 8.64691C2.09915 8.77538 2.12492 8.90253 2.17493 9.02086C2.22495 9.13919 2.29819 9.24628 2.39033 9.3358L3.43724 10.3877C3.2513 10.6716 3.08625 10.9687 2.94342 11.2765C2.80273 11.5873 2.67909 11.9054 2.57305 12.2296H0.970577C0.842546 12.2265 0.71525 12.2499 0.596695 12.2983C0.47814 12.3468 0.37089 12.4192 0.281688 12.5111C0.19015 12.6006 0.117941 12.7079 0.0695251 12.8264C0.0211093 12.9449 -0.00248315 13.072 0.000206659 13.2V15.2222C-0.000294976 15.3484 0.0243362 15.4735 0.0726637 15.59C0.120991 15.7066 0.192047 15.8124 0.281688 15.9012C0.370154 15.9946 0.477099 16.0685 0.595706 16.1182C0.714314 16.168 0.841983 16.1925 0.970577 16.1901H2.45206C2.53093 16.5258 2.6324 16.8558 2.75576 17.1778C2.87667 17.4935 3.01601 17.8018 3.17305 18.1012L2.01749 19.237C1.92428 19.3225 1.85032 19.4268 1.80051 19.543C1.7507 19.6592 1.72619 19.7847 1.7286 19.9111C1.72806 20.0397 1.7536 20.167 1.80368 20.2854C1.85376 20.4038 1.92734 20.5108 2.01996 20.6L3.43971 22.0346C3.62669 22.209 3.87289 22.306 4.1286 22.306C4.38432 22.306 4.63051 22.209 4.81749 22.0346L5.86687 20.9679C6.15165 21.1539 6.44955 21.3189 6.75823 21.4617C7.06923 21.6018 7.38736 21.7254 7.71132 21.8321V23.4444C7.71066 23.5721 7.73532 23.6985 7.78385 23.8166C7.83238 23.9346 7.90384 24.0418 7.99407 24.1321C8.08431 24.2223 8.19154 24.2937 8.30957 24.3423C8.4276 24.3908 8.55407 24.4155 8.68169 24.4148H10.7039C10.8303 24.4151 10.9555 24.3902 11.0721 24.3414C11.1887 24.2926 11.2944 24.2211 11.3829 24.1309C11.4755 24.0425 11.5488 23.9358 11.5981 23.8177C11.6474 23.6995 11.6716 23.5724 11.6693 23.4444V21.963C12.0053 21.8863 12.3354 21.7857 12.657 21.6617C12.9723 21.5361 13.2806 21.3935 13.5805 21.2346L14.7237 22.3802C14.8113 22.4729 14.917 22.5467 15.0342 22.5971C15.1514 22.6476 15.2776 22.6736 15.4051 22.6736C15.5327 22.6736 15.6589 22.6476 15.7761 22.5971C15.8933 22.5467 15.9989 22.4729 16.0866 22.3802L17.5212 20.963C17.6924 20.777 17.7845 20.5317 17.778 20.279C17.7806 20.1519 17.7579 20.0256 17.7112 19.9073C17.6646 19.7891 17.595 19.6813 17.5064 19.5901L16.4397 18.5383C16.6257 18.2535 16.7907 17.9556 16.9335 17.6469C17.0736 17.3368 17.1972 17.0194 17.3039 16.6963H18.9138C19.0416 16.6976 19.1684 16.6734 19.2867 16.6251C19.405 16.5768 19.5125 16.5054 19.6029 16.415C19.6933 16.3247 19.7647 16.2172 19.813 16.0988C19.8613 15.9805 19.8855 15.8537 19.8842 15.7259V13.7037C19.8855 13.5774 19.8612 13.4521 19.8129 13.3354C19.7645 13.2187 19.693 13.113 19.6027 13.0247C19.5142 12.9313 19.4073 12.8574 19.2887 12.8077C19.17 12.758 19.0424 12.7335 18.9138 12.7358H17.4323C17.3515 12.4066 17.2509 12.0825 17.1311 11.7654C17.0129 11.451 16.8735 11.1449 16.7138 10.8494L17.8595 9.68889C17.9531 9.60367 18.0275 9.49948 18.0778 9.38325C18.128 9.26702 18.1529 9.14142 18.1508 9.01481C18.1514 8.88625 18.1258 8.75892 18.0757 8.64051C18.0257 8.5221 17.9521 8.41508 17.8595 8.32592L16.4471 6.91358ZM27.6348 17.7778C27.5191 17.6973 27.3762 17.6659 27.2374 17.6904C27.0986 17.7149 26.9752 17.7934 26.894 17.9086L26.42 18.5654C26.2482 18.494 26.0716 18.4346 25.8916 18.3877C25.7101 18.3409 25.5263 18.3038 25.3409 18.2765L25.1854 17.4025C25.1738 17.3332 25.1485 17.267 25.1111 17.2076C25.0737 17.1482 25.0249 17.0968 24.9675 17.0563C24.91 17.0159 24.8452 16.9873 24.7766 16.9721C24.7081 16.9569 24.6372 16.9555 24.5681 16.9679L23.4718 17.1605C23.4032 17.1716 23.3374 17.1963 23.2785 17.2332C23.2195 17.2701 23.1686 17.3184 23.1286 17.3753C23.086 17.4322 23.0558 17.4975 23.04 17.5668C23.0243 17.6362 23.0233 17.708 23.0372 17.7778L23.1755 18.5778C23.0052 18.6482 22.8402 18.7307 22.6817 18.8247C22.5218 18.9216 22.3684 19.0288 22.2224 19.1457L21.4817 18.6346C21.4267 18.5917 21.3634 18.561 21.2957 18.5444C21.228 18.5278 21.1576 18.5257 21.0891 18.5383C21.0187 18.5506 20.9516 18.5771 20.8917 18.6162C20.8319 18.6552 20.7806 18.706 20.7409 18.7654L20.1064 19.6691C20.0662 19.7263 20.0377 19.7909 20.0225 19.8591C20.0074 19.9273 20.0058 19.9979 20.018 20.0667C20.0301 20.1355 20.0558 20.2012 20.0934 20.2601C20.131 20.319 20.1799 20.3699 20.2372 20.4099L20.9039 20.8815C20.8374 21.0553 20.783 21.2335 20.7409 21.4148C20.6895 21.5992 20.6483 21.7863 20.6175 21.9753L19.7533 22.116C19.6838 22.1273 19.6173 22.1526 19.5578 22.1903C19.4984 22.2281 19.4473 22.2776 19.4076 22.3358C19.3659 22.3927 19.3364 22.4576 19.3211 22.5265C19.3058 22.5953 19.305 22.6666 19.3187 22.7358L19.5064 23.8321C19.5173 23.9008 19.5422 23.9665 19.5795 24.0251C19.6169 24.0837 19.666 24.134 19.7237 24.1728C19.7799 24.2158 19.8447 24.2463 19.9137 24.262C19.9827 24.2778 20.0543 24.2785 20.1237 24.2642L20.9237 24.1259C20.9946 24.296 21.0771 24.461 21.1706 24.6198C21.2645 24.7824 21.3684 24.9391 21.4817 25.0889L20.9681 25.8296C20.9253 25.8846 20.8945 25.948 20.8779 26.0156C20.8614 26.0833 20.8593 26.1537 20.8718 26.2222C20.8845 26.2919 20.9108 26.3583 20.9494 26.4176C20.988 26.477 21.038 26.5281 21.0965 26.5679L22.0002 27.2123C22.118 27.2902 22.2614 27.3194 22.4002 27.2938C22.4694 27.2831 22.5357 27.2589 22.5955 27.2224C22.6552 27.186 22.7072 27.1381 22.7484 27.0815L23.2175 26.4025C23.3893 26.4761 23.5669 26.5355 23.7484 26.5802C23.9292 26.6296 24.1132 26.6667 24.299 26.6914L24.4496 27.5654C24.4605 27.6354 24.4856 27.7024 24.5234 27.7622C24.5612 27.8221 24.6109 27.8736 24.6693 27.9136C24.7264 27.9549 24.7914 27.9839 24.8603 27.9988C24.9291 28.0137 25.0003 28.0141 25.0693 28L26.1656 27.8099C26.2341 27.7983 26.2995 27.7731 26.358 27.7358C26.4166 27.6985 26.467 27.6498 26.5064 27.5926C26.5494 27.5364 26.5798 27.4715 26.5956 27.4025C26.6113 27.3335 26.6121 27.2619 26.5977 27.1926L26.4595 26.3901C26.6296 26.3193 26.7946 26.2368 26.9533 26.1432C27.1138 26.0444 27.2669 25.9407 27.415 25.8296L28.1558 26.3432C28.2122 26.3852 28.2766 26.4152 28.345 26.4315C28.4134 26.4478 28.4844 26.45 28.5537 26.438C28.623 26.426 28.6891 26.4 28.748 26.3616C28.807 26.3233 28.8575 26.2733 28.8965 26.2148L29.5409 25.3086C29.6188 25.1909 29.648 25.0475 29.6224 24.9086C29.6003 24.7691 29.524 24.644 29.4101 24.5605L28.7311 24.0914C28.8047 23.9204 28.8641 23.7437 28.9088 23.563C28.9573 23.3818 28.9953 23.1979 29.0224 23.0123L29.894 22.8593C29.9636 22.8483 30.0302 22.8234 30.0899 22.7862C30.1497 22.749 30.2014 22.7001 30.2419 22.6425C30.2824 22.585 30.311 22.5199 30.3259 22.4511C30.3408 22.3822 30.3417 22.3111 30.3286 22.242L30.1385 21.1457C30.127 21.0769 30.1018 21.0111 30.0645 20.9521C30.0272 20.8932 29.9785 20.8423 29.9212 20.8025C29.8639 20.7605 29.7987 20.7307 29.7294 20.715C29.6602 20.6993 29.5885 20.698 29.5187 20.7111L28.7212 20.8518C28.649 20.6824 28.5665 20.5175 28.4743 20.358C28.3776 20.1905 28.2687 20.0304 28.1484 19.879L28.6619 19.1383C28.7043 19.0831 28.7346 19.0197 28.7508 18.952C28.767 18.8843 28.7687 18.814 28.7558 18.7457C28.744 18.6754 28.718 18.6083 28.6793 18.5484C28.6407 18.4886 28.5902 18.4372 28.5311 18.3975L27.6348 17.7778ZM24.4842 20.5531C24.742 20.5064 25.0068 20.5131 25.2619 20.5728C25.5082 20.6289 25.7413 20.732 25.9484 20.8765C26.1543 21.0228 26.3304 21.2072 26.4669 21.4198C26.6762 21.748 26.7839 22.1307 26.7765 22.5199C26.769 22.9091 26.6467 23.2875 26.4249 23.6074C26.2779 23.8127 26.0936 23.9886 25.8817 24.1259C25.6613 24.2668 25.415 24.3625 25.1573 24.4074C24.8996 24.4523 24.6355 24.4456 24.3805 24.3877C23.8825 24.2761 23.4491 23.9715 23.1755 23.5407C23.0343 23.3208 22.9386 23.0748 22.894 22.8173C22.8474 22.5594 22.8541 22.2947 22.9138 22.0395C22.9675 21.7938 23.0681 21.5607 23.2101 21.3531C23.3563 21.1471 23.5407 20.9711 23.7533 20.8346C23.9732 20.6934 24.2192 20.5977 24.4767 20.5531H24.4842ZM9.94095 10.5037C10.4715 10.5009 10.9972 10.6051 11.4866 10.8099C11.9567 11.0103 12.3848 11.2976 12.7484 11.6568C13.1081 12.0194 13.3948 12.4477 13.5928 12.9185C13.7965 13.408 13.9013 13.9328 13.9013 14.463C13.9013 14.9931 13.7965 15.518 13.5928 16.0074C13.1965 16.9601 12.4393 17.7173 11.4866 18.1136C10.9972 18.3173 10.4723 18.4221 9.94218 18.4221C9.41206 18.4221 8.88717 18.3173 8.39774 18.1136C7.92693 17.9156 7.49859 17.6289 7.13601 17.2691C6.77684 16.9056 6.48951 16.4775 6.2891 16.0074C6.08541 15.518 5.98056 14.9931 5.98056 14.463C5.98056 13.9328 6.08541 13.408 6.2891 12.9185C6.6876 11.9667 7.44394 11.2095 8.39527 10.8099C8.88378 10.6049 9.4087 10.5007 9.93848 10.5037H9.94095Z" fill="#4283F0"/>
<path fill-rule="evenodd" clip-rule="evenodd" d="M25.5703 0C26.4542 3.54321 30.7357 6.51852 30.2617 10.2296C29.9826 12.4519 28.1975 13.6864 25.9036 13.8148C23.3184 13.958 21.1086 12.7383 20.8789 10.1802C20.5333 6.35309 24.4518 3.6 25.5703 0ZM22.3036 8.57284C22.2989 8.44766 22.3437 8.32566 22.4283 8.23324C22.5128 8.14082 22.6304 8.08541 22.7555 8.07901C22.8832 8.06492 23.0113 8.10113 23.1127 8.17996C23.2141 8.25879 23.2808 8.37403 23.2987 8.50123C23.3451 9.09143 23.5133 9.66562 23.7925 10.1877C24.0814 10.697 24.5097 11.1133 25.0271 11.3877C25.9654 11.9062 24.3851 13.2839 22.8962 10.6222C22.5595 9.99133 22.3562 9.29797 22.2987 8.58519L22.3036 8.57284Z" fill="#4283F0"/>
</g>
<defs>
<clipPath id="clip0_1206_4603">
<rect width="30.3407" height="28" fill="white"/>
</clipPath>
</defs>
</svg>
