<svg width="32" height="28" viewBox="0 0 32 28" fill="none" xmlns="http://www.w3.org/2000/svg">
<g clip-path="url(#clip0_1206_4735)">
<path fill-rule="evenodd" clip-rule="evenodd" d="M7.5423 6.51282C6.10182 6.70182 5.33816 8.04524 4.86311 9.52404L3.57587 13.5671L2.94502 12.3846C0.135571 12.2186 -0.193901 13.8072 2.61044 15.2323C-0.525926 17.2551 -0.0942929 20.795 0.212193 24.7206C0.209568 24.77 0.209568 24.8194 0.212193 24.8687V27.0525C0.212867 27.3035 0.312914 27.5442 0.490468 27.7217C0.668023 27.8993 0.908645 27.9993 1.15974 28H5.19258C5.4419 27.9967 5.67992 27.8954 5.85527 27.7182C6.03063 27.5409 6.12927 27.3018 6.12992 27.0525V26.2862H25.2495V27.0525C25.2502 27.3035 25.3502 27.5442 25.5278 27.7217C25.7053 27.8993 25.946 27.9993 26.1971 28H30.2401C30.4912 27.9993 30.7318 27.8993 30.9094 27.7217C31.0869 27.5442 31.187 27.3035 31.1877 27.0525V25.3719C31.5018 20.2638 31.6985 18.1874 29.6757 16.116L29.1649 15.3498C32.2297 13.8966 31.9743 12.2134 29.0755 12.382L28.5136 13.4394L27.5379 9.51893C27.1472 7.91754 26.1868 6.48983 24.519 6.48983H24.4629C24.4442 7.06968 24.2401 7.62826 23.8805 8.08355C25.1039 8.12953 25.8471 9.18179 26.1077 10.3822L27.0859 14.4482H4.91164L6.12992 10.3924C6.25343 9.97639 6.42484 9.57613 6.64072 9.19967C6.75112 8.97671 6.90683 8.77925 7.0979 8.6199C7.37651 8.34681 7.73387 8.16813 8.11952 8.10909C7.75513 7.65634 7.54564 7.09861 7.52187 6.51792L7.5423 6.51282ZM14.6885 0H17.5388C17.6551 0.000670343 17.7665 0.0471684 17.8487 0.129408C17.931 0.211647 17.9775 0.322994 17.9781 0.439296V5.01104C17.9784 5.0482 17.9733 5.0852 17.9628 5.12086H21.753C21.8932 5.12086 22.0277 5.17656 22.1269 5.27571C22.226 5.37486 22.2817 5.50933 22.2817 5.64955V6.40044C22.2817 6.54089 22.2261 6.67563 22.127 6.77518C22.0279 6.87474 21.8935 6.931 21.753 6.93168H10.2598C10.1189 6.93168 9.98379 6.87571 9.88416 6.77608C9.78454 6.67646 9.72857 6.54133 9.72857 6.40044V5.64955C9.72924 5.5091 9.78551 5.37463 9.88506 5.27555C9.98462 5.17648 10.1194 5.12086 10.2598 5.12086H14.2697C14.2604 5.08501 14.2561 5.04806 14.2569 5.01104V0.439296C14.2569 0.324103 14.3021 0.213512 14.3828 0.131345C14.4636 0.0491775 14.5733 0.00200918 14.6885 0ZM10.9136 7.62383H21.2473L22.0876 13.0256H19.7302L18.6447 10.16V13.0256H16.198L15.115 10.16V13.0256H12.8828V10.16L11.7999 13.0256H10.0836L10.9136 7.62638V7.62383ZM15.35 0.840281H16.8824C16.923 0.840615 16.9632 0.84894 17.0005 0.86478C17.0379 0.88062 17.0718 0.903665 17.1002 0.9326C17.1287 0.961534 17.1512 0.995791 17.1664 1.03341C17.1816 1.07104 17.1893 1.11129 17.1889 1.15187V1.59372C17.1883 1.6748 17.1558 1.75237 17.0984 1.8097C17.0411 1.86704 16.9635 1.89954 16.8824 1.90021H15.35C15.2691 1.89889 15.192 1.86618 15.1348 1.80899C15.0776 1.75179 15.0448 1.6746 15.0435 1.59372V1.14677C15.0428 1.10633 15.0503 1.06616 15.0655 1.02867C15.0806 0.99117 15.1032 0.957107 15.1318 0.928508C15.1604 0.89991 15.1944 0.87736 15.2319 0.862202C15.2694 0.847045 15.3096 0.83959 15.35 0.840281ZM7.7594 19.8884L4.16841 19.4363C3.32047 19.3418 3.09316 19.6917 3.38176 20.4298L3.76998 21.3723C3.87965 21.5934 4.04739 21.7806 4.25525 21.9137C4.49981 22.0558 4.77693 22.1324 5.05977 22.1359L8.26254 22.1615C9.02876 22.1615 9.371 21.8499 9.12837 21.1398C9.04234 20.8229 8.86796 20.5369 8.62557 20.3154C8.38318 20.0938 8.08277 19.9457 7.7594 19.8884ZM23.6251 19.8884L27.2161 19.4363C28.0641 19.3418 28.2914 19.6917 28.0028 20.4298L27.6145 21.3723C27.5049 21.5934 27.3371 21.7806 27.1293 21.9137C26.8847 22.0558 26.6076 22.1324 26.3248 22.1359L23.122 22.1615C22.3558 22.1615 22.0135 21.8499 22.2562 21.1398C22.3422 20.8229 22.5166 20.5369 22.759 20.3154C23.0013 20.0938 23.3018 19.9457 23.6251 19.8884Z" fill="#4283F0"/>
</g>
<defs>
<clipPath id="clip0_1206_4735">
<rect width="31.3841" height="28" fill="white"/>
</clipPath>
</defs>
</svg>
