<svg width="28" height="28" viewBox="0 0 28 28" fill="none" xmlns="http://www.w3.org/2000/svg">
<path d="M9.13497 24.8622V26.3218C9.13497 27.1378 8.47588 27.7812 7.67547 27.7812C6.87507 27.7812 6.21597 27.1378 6.21597 26.3218V24.8622H4.74072V20.0913C4.74072 19.0398 5.44696 18.1767 6.40421 17.9099L8.11483 13.8452C8.36596 13.2489 8.94663 12.8251 9.63711 12.8251H18.3785C19.069 12.8251 19.6496 13.2488 19.9008 13.8452L21.5956 17.9099C22.553 18.1767 23.2591 19.0399 23.2591 20.0913V24.8622H21.7682V26.3218C21.7682 27.1378 21.1091 27.7812 20.3087 27.7812C19.4927 27.7812 18.8492 27.1378 18.8492 26.3218V24.8622H9.13497ZM7.76954 22.2414C8.58558 22.2414 9.24478 21.5823 9.24478 20.7662C9.24478 19.9501 8.58569 19.2909 7.76954 19.2909C6.95338 19.2909 6.29429 19.95 6.29429 20.7662C6.29439 21.5822 6.95349 22.2414 7.76954 22.2414ZM21.6114 20.7662C21.6114 19.9501 20.9523 19.2909 20.1361 19.2909C19.3201 19.2909 18.6609 19.95 18.6609 20.7662C18.6609 21.5822 19.32 22.2414 20.1361 22.2414C20.9523 22.2414 21.6114 21.5822 21.6114 20.7662ZM20.1362 17.8314L18.6767 14.316C18.614 14.1434 18.4414 14.0178 18.2373 14.0178H9.76268C9.57433 14.0178 9.40174 14.1434 9.33896 14.316L7.87946 17.8314H20.1362ZM10.8364 8.04038C10.6429 8.18442 10.606 8.44375 10.7458 8.63308C10.8817 8.82656 11.1574 8.86353 11.3427 8.72769C11.532 8.5878 11.5773 8.32016 11.4373 8.13083C11.2933 7.94161 11.0299 7.90048 10.8364 8.04038ZM11.388 6.78497C11.2069 6.92081 11.1739 7.16778 11.3016 7.34891C11.4292 7.53003 11.6884 7.56711 11.8655 7.43531C12.0466 7.30363 12.0837 7.0525 11.9519 6.87138C11.8201 6.69025 11.5691 6.65328 11.388 6.78497ZM10.3343 9.27522C10.1531 9.41106 10.1202 9.65803 10.2479 9.83916C10.3755 10.0203 10.6348 10.0574 10.8118 9.92556C10.9929 9.79387 11.03 9.54275 10.8982 9.36163C10.7624 9.18061 10.5112 9.14353 10.3343 9.27522ZM12.4746 5.61597C12.347 5.44305 12.1124 5.41012 11.9436 5.53361C11.7707 5.66125 11.7378 5.8917 11.8613 6.06452C11.9847 6.23744 12.2276 6.27036 12.3923 6.14687C12.561 6.01934 12.6023 5.78069 12.4746 5.61597ZM12.7216 8.08566C12.5446 8.24206 12.5363 8.50555 12.6887 8.67836C12.8492 8.85533 13.1168 8.86769 13.2855 8.71544C13.4585 8.55903 13.4749 8.2915 13.3185 8.11858C13.1661 7.94161 12.8986 7.92925 12.7216 8.08566ZM12.5281 9.3123C12.3511 9.4687 12.3428 9.73219 12.4952 9.905C12.6474 10.082 12.9191 10.0985 13.0921 9.94208C13.265 9.78567 13.2814 9.51814 13.125 9.34522C12.9727 9.16825 12.7051 9.15589 12.5281 9.3123ZM12.347 10.6788C12.17 10.8352 12.1577 11.0986 12.3141 11.2715C12.4705 11.4485 12.738 11.465 12.9109 11.3086C13.0838 11.1522 13.1003 10.8847 12.9438 10.7118C12.7874 10.5348 12.5199 10.5224 12.347 10.6788ZM12.9233 6.82205C12.7545 6.97025 12.7463 7.22127 12.8904 7.38598C13.0386 7.55475 13.2979 7.56711 13.4583 7.41891C13.623 7.2707 13.6353 7.01969 13.4913 6.85497C13.3432 6.69025 13.0921 6.678 12.9233 6.82205ZM13.1291 5.56248C12.9727 5.70248 12.9604 5.94114 13.0962 6.09755C13.2321 6.25395 13.4749 6.26631 13.6313 6.12631C13.7877 5.98631 13.8 5.74766 13.66 5.59125C13.5201 5.439 13.2814 5.42664 13.1291 5.56248ZM15.0554 7.41475C15.2118 7.24183 15.1995 6.98261 15.0349 6.83025C14.8661 6.67789 14.6068 6.6862 14.4504 6.85497C14.2981 7.01958 14.3104 7.27891 14.4791 7.43531C14.6479 7.59172 14.9072 7.57936 15.0554 7.41475ZM15.2489 8.67016C15.4053 8.49723 15.393 8.23802 15.2284 8.08981C15.0596 7.92925 14.8003 7.93745 14.6439 8.11037C14.4916 8.27498 14.504 8.53431 14.6727 8.69072C14.8414 8.84713 15.1007 8.83477 15.2489 8.67016ZM14.7673 9.34522C14.6151 9.50983 14.6273 9.76916 14.7961 9.92556C14.9649 10.0778 15.2242 10.0696 15.3724 9.905C15.5288 9.73208 15.5165 9.47286 15.3518 9.3205C15.1831 9.16825 14.9238 9.17645 14.7673 9.34522ZM14.8703 6.11406C15.0143 5.95766 15.002 5.71484 14.8497 5.57484C14.6933 5.4308 14.4505 5.439 14.3063 5.59541C14.1623 5.74766 14.1746 5.99463 14.3311 6.13462C14.4833 6.27867 14.7261 6.26631 14.8703 6.11406ZM16.1174 6.14698C16.2408 5.98238 16.2079 5.74361 16.0433 5.61597C15.8787 5.49248 15.6399 5.52541 15.5123 5.69002C15.3888 5.85058 15.4217 6.09339 15.5905 6.21688C15.7552 6.34047 15.9939 6.31159 16.1174 6.14698ZM16.6731 7.48475C16.8048 7.31183 16.7678 7.06081 16.5949 6.92913C16.422 6.79744 16.171 6.83452 16.0392 7.00733C15.9075 7.18025 15.9444 7.43127 16.1174 7.56295C16.2944 7.69464 16.5414 7.66587 16.6731 7.48475ZM17.2287 8.83072C17.3687 8.64959 17.3316 8.38622 17.1464 8.24622C16.9652 8.10622 16.7059 8.14745 16.566 8.32847C16.4261 8.50959 16.4673 8.77297 16.6484 8.90881C16.8295 9.04881 17.0888 9.01589 17.2287 8.83072ZM17.661 9.51398C17.4798 9.37398 17.2205 9.41522 17.0806 9.59634C16.9407 9.77747 16.9819 10.0408 17.163 10.1767C17.3482 10.3125 17.6075 10.2796 17.7475 10.0943C17.8832 9.91736 17.8461 9.64983 17.661 9.51398ZM7.36386 0.21875V1.65495H13.2282V2.97139L11.6724 3.8092V4.76667H16.3399V3.8092L14.7841 2.97139V1.65495H20.6484V0.21875H7.36386Z" fill="#4283F0"/>
</svg>
