<svg width="28" height="28" viewBox="0 0 28 28" fill="none" xmlns="http://www.w3.org/2000/svg">
<g clip-path="url(#clip0_1206_4574)">
<path d="M18.5722 10.8321C18.4377 10.2595 18.0047 9.81197 17.4419 9.66404C16.8553 9.51004 15.8599 9.32568 14.4426 9.32568C14.276 9.32568 14.1686 9.32896 14.1476 9.32989L14.0179 9.33504L13.8602 9.32989C13.8392 9.32896 13.7296 9.32568 13.5559 9.32568C12.1391 9.32568 11.1433 9.51004 10.5571 9.66404C9.99383 9.81197 9.56076 10.2595 9.42639 10.8316L8.05903 16.6444C7.99417 16.9174 7.98252 17.1867 8.0231 17.4448C8.04645 17.5932 8.0721 17.7351 8.09917 17.8699C8.25831 18.6614 9.00546 19.1836 9.79925 19.1005V17.7332C9.79925 17.4751 10.0078 17.2665 10.2659 17.2665C10.524 17.2665 10.7326 17.4751 10.7326 17.7332V18.9479C11.0461 18.8965 11.357 18.8532 11.6659 18.8158V17.2666C11.6659 17.0085 11.8745 16.7999 12.1326 16.7999C12.3906 16.7999 12.5992 17.0085 12.5992 17.2666V18.7259C12.9137 18.7025 13.2246 18.6871 13.5326 18.6792V16.7999C13.5326 16.5419 13.7411 16.3333 13.9992 16.3333C14.2573 16.3333 14.4659 16.5419 14.4659 16.7999V18.6792C14.7739 18.6871 15.0847 18.7026 15.3992 18.7259V17.2666C15.3992 17.0085 15.6078 16.7999 15.8659 16.7999C16.124 16.7999 16.3325 17.0085 16.3325 17.2666V18.8159C16.642 18.8533 16.9527 18.8962 17.2659 18.9475V17.7332C17.2659 17.4752 17.4745 17.2666 17.7325 17.2666C17.9906 17.2666 18.1992 17.4752 18.1992 17.7332V19.1006C18.9916 19.1832 19.7401 18.6614 19.8997 17.87C19.9263 17.7356 19.952 17.5942 19.9758 17.4458C20.0164 17.1873 20.0038 16.9175 19.9399 16.6445L18.5722 10.8321Z" fill="#4283F0"/>
<path d="M23.6639 18.0275C23.7801 17.2887 23.7498 16.5355 23.5743 15.7893L21.912 8.72812C21.3903 7.05276 19.5217 6.2669 17.733 5.90153V4.66668H19.0457C19.5372 4.66668 19.9968 4.42539 20.2768 4.02174C20.5564 3.61853 20.6198 3.10288 20.4476 2.64416L19.8204 0.971146C19.6025 0.390143 19.0392 0 18.419 0H9.58032C8.96011 0 8.39682 0.390143 8.17845 0.971584L7.55124 2.64366C7.37903 3.10288 7.44296 3.61853 7.72252 4.02174C8.00203 4.42539 8.46217 4.66668 8.95311 4.66668H10.2663V5.90618C8.47246 6.27625 6.60388 7.07004 6.07844 8.7594L4.42452 15.7893C4.24902 16.5355 4.21916 17.2887 4.33587 18.0279C4.8758 21.4491 6.31923 23.3334 8.39961 23.3334H8.48175L8.55875 23.3054C8.58347 23.2966 11.09 22.4001 13.9996 22.4001C16.9089 22.4001 19.4153 23.2966 19.4405 23.3054L19.5175 23.3334H19.5997C21.6801 23.3335 23.1235 21.4491 23.6639 18.0275ZM11.1996 4.66668H16.7997V5.74468C15.3404 5.54819 14.1205 5.59533 14.0206 5.60047C13.9026 5.5944 12.6687 5.54726 11.1996 5.74747V4.66668ZM20.898 17.5916C20.8718 17.754 20.8448 17.908 20.8149 18.0541C20.5778 19.2338 19.532 20.051 18.3649 20.051C18.202 20.051 18.0364 20.0346 17.8702 20.0015C16.536 19.735 15.234 19.6001 13.9997 19.6001C12.7654 19.6001 11.4633 19.735 10.1296 20.0015C8.77439 20.274 7.45417 19.398 7.18401 18.0531C7.15459 17.9066 7.12708 17.753 7.10187 17.5907C7.04215 17.2127 7.05845 16.8221 7.15043 16.4305L8.51823 10.6181C8.73195 9.70862 9.42216 8.9974 10.32 8.7617C10.9589 8.59321 12.0397 8.39256 13.5564 8.39256C13.75 8.39256 13.8723 8.39677 13.898 8.3977L14.0193 8.40284L14.1061 8.3977C14.1215 8.39677 14.2456 8.39256 14.4431 8.39256C15.9597 8.39256 17.0401 8.59321 17.6799 8.7617C18.5768 8.99735 19.2674 9.70856 19.4812 10.6186L20.849 16.4305C20.9409 16.822 20.9572 17.2126 20.898 17.5916Z" fill="#4283F0"/>
<path d="M4.08772 20.7793C3.74936 20.9039 3.4045 21.0887 3.11006 21.3678C2.59441 21.8554 2.33306 22.5167 2.33399 23.3595C2.33585 23.4043 2.6415 27.7458 7.93309 27.9884V24.2378C6.73094 24.1052 5.10086 23.3931 4.08772 20.7793Z" fill="#4283F0"/>
<path d="M13.9996 23.3333C11.2826 23.3333 8.89842 24.1752 8.87507 24.1836L8.86621 24.1869V28H19.1329V24.1864L19.1236 24.1832C19.1007 24.1752 16.7165 23.3333 13.9996 23.3333Z" fill="#4283F0"/>
<path d="M24.8894 21.3678C24.5945 21.0887 24.2496 20.9034 23.9118 20.7793C22.8982 23.3931 21.2686 24.1052 20.0664 24.2378V27.9884C25.3575 27.7458 25.6632 23.4039 25.6664 23.3334C25.6664 22.5167 25.4046 21.8554 24.8894 21.3678Z" fill="#4283F0"/>
</g>
<defs>
<clipPath id="clip0_1206_4574">
<rect width="28" height="28" fill="white"/>
</clipPath>
</defs>
</svg>
