<svg width="27" height="28" viewBox="0 0 27 28" fill="none" xmlns="http://www.w3.org/2000/svg">
<g clip-path="url(#clip0_164_3549)">
<path fill-rule="evenodd" clip-rule="evenodd" d="M19.4004 3.37923L9.85742 9.17839H12.5713L19.6169 4.89681L20.6514 4.2679L23.6341 9.17839H25.3704C25.7487 9.17839 26.0905 9.33333 26.3389 9.57943C26.5872 9.8278 26.7422 10.1696 26.7422 10.5456V26.6305C26.7422 27.0065 26.5872 27.3483 26.3411 27.5944V27.5967C26.0928 27.8451 25.751 27.9977 25.3727 27.9977H1.37174C0.99349 27.9977 0.651693 27.8451 0.40332 27.5967V27.5944C0.154948 27.3483 0 27.0065 0 26.6328V10.5456C0 10.1696 0.154948 9.82552 0.401042 9.57943C0.649414 9.33106 0.991211 9.17839 1.36947 9.17839H1.93913L16.7549 0.175456C16.944 0.0615234 17.1582 0 17.3792 0C17.4749 0 17.5706 0.0113932 17.6641 0.0341797C17.974 0.109375 18.2428 0.305339 18.4069 0.578776L19.9176 3.06478L19.4004 3.37923ZM1.34212 10.3952C1.28971 10.4521 1.24642 10.516 1.21452 10.5866V12.5667H25.5231V10.5456C25.5231 10.5023 25.5072 10.4635 25.4798 10.4385H25.4775C25.4502 10.4111 25.4115 10.3929 25.3682 10.3929H1.36947C1.36035 10.3929 1.35124 10.3929 1.34212 10.3952ZM3.64128 19.3024H7.9821V20.9271H3.64128V19.3024ZM3.64128 23.1488H15.7751V24.6139H3.64128V23.1488ZM19.6442 19.3024H23.985V20.9271H19.6442V19.3024ZM14.3099 19.3024H18.6507V20.9271H14.3099V19.3024ZM8.97559 19.3024H13.3164V20.9271H8.97559V19.3024ZM25.5231 17.1217H1.21452V26.6305C1.21452 26.6738 1.23047 26.7126 1.26009 26.7399H1.26237C1.29199 26.7695 1.33073 26.7855 1.36947 26.7855H25.3704C25.4115 26.7855 25.4502 26.7673 25.4798 26.7399C25.5094 26.7103 25.5254 26.6716 25.5254 26.6305V17.1217H25.5231Z" fill="#4283F0"/>
</g>
<defs>
<clipPath id="clip0_164_3549">
<rect width="26.7376" height="28" fill="white"/>
</clipPath>
</defs>
</svg>
