<svg width="32" height="28" viewBox="0 0 32 28" fill="none" xmlns="http://www.w3.org/2000/svg">
<g clip-path="url(#clip0_1678_1024)">
<path fill-rule="evenodd" clip-rule="evenodd" d="M6.96075 25.4423V18.0688H10.2778C11.6831 18.3195 13.0884 19.0842 14.4938 19.9679H17.0689C18.2362 20.0388 18.8464 21.2188 17.7121 21.9961C16.8106 22.6595 15.618 22.6215 14.395 22.5127C13.5518 22.4696 13.5164 23.6015 14.395 23.6065C14.7014 23.6293 15.0331 23.5584 15.3218 23.5584C16.8461 23.5559 18.102 23.2647 18.8692 22.062L19.2541 21.1605L23.0852 19.2614C25.002 18.631 26.3668 20.6338 24.9513 22.0316C22.1762 24.0497 19.3301 25.7107 16.4207 27.0527C14.3064 28.339 12.1921 28.2935 10.0803 27.0527L6.96075 25.4423ZM9.63972 8.86463L21.9837 12.0298L20.1783 18.7652L7.83433 15.6L9.63972 8.86463ZM15.4433 11.8348C16.5397 12.1285 17.1879 13.2502 16.8942 14.3466C16.6005 15.443 15.4762 16.0912 14.3823 15.7975C13.2859 15.5038 12.6377 14.3821 12.9315 13.2857C13.2226 12.1943 14.352 11.5436 15.4433 11.8348ZM11.5312 10.47L19.5326 12.4729C19.3858 13.0198 19.7124 13.587 20.2619 13.7339L19.5504 16.3976C19.0034 16.2508 18.4362 16.5774 18.2894 17.1269L10.2854 15.124C10.4323 14.5771 10.1056 14.0099 9.55616 13.863L10.2677 11.1992C10.8171 11.3461 11.3843 11.0194 11.5312 10.47ZM31.1145 10.6396H24.9843V1.81778H31.1145V10.6396ZM23.9841 2.55969V9.93064H20.667C19.2617 9.67997 17.8564 8.91527 16.4511 8.03156H13.8759C12.7112 7.96067 12.0984 6.78071 13.2328 6.00335C14.1342 5.33994 15.3268 5.37792 16.5498 5.48933C17.393 5.53238 17.4285 4.398 16.5498 4.39546C16.2434 4.37268 15.9117 4.44357 15.6231 4.44357C14.0988 4.44611 12.8428 4.7373 12.0756 5.94005L11.6907 6.84148L7.85965 8.74055C5.94285 9.37105 4.57804 7.36815 5.99349 5.97043C8.76867 3.94981 11.6122 2.28875 14.5241 0.94674C16.6385 -0.339568 18.7528 -0.29399 20.8645 0.94674L23.9841 2.55969ZM0 17.3624H5.9631V26.1842H0V17.3624Z" fill="#4283F0"/>
</g>
<defs>
<clipPath id="clip0_1678_1024">
<rect width="31.1145" height="28" fill="white"/>
</clipPath>
</defs>
</svg>
