<svg width="16" height="16" viewBox="0 0 16 16" fill="none" xmlns="http://www.w3.org/2000/svg">
<path fill-rule="evenodd" clip-rule="evenodd" d="M8 0C9.58225 0 11.129 0.469192 12.4446 1.34824C13.7602 2.22729 14.7855 3.47672 15.391 4.93853C15.9965 6.40034 16.155 8.00887 15.8463 9.56072C15.5376 11.1126 14.7757 12.538 13.6569 13.6569C12.538 14.7757 11.1126 15.5376 9.56072 15.8463C8.00887 16.155 6.40034 15.9965 4.93853 15.391C3.47672 14.7855 2.22729 13.7602 1.34824 12.4446C0.469192 11.129 0 9.58225 0 8C0 5.87827 0.842855 3.84344 2.34315 2.34315C3.84344 0.842855 5.87827 0 8 0ZM6.89062 3.97396H7.86849C7.95472 3.9743 8.03732 4.00871 8.09829 4.06968C8.15926 4.13065 8.19367 4.21325 8.19401 4.29948V8.07292H11.6328C11.719 8.07326 11.8016 8.10767 11.8626 8.16864C11.9236 8.22961 11.958 8.31221 11.9583 8.39844V9.375C11.958 9.46123 11.9236 9.54383 11.8626 9.6048C11.8016 9.66577 11.719 9.70018 11.6328 9.70052H6.5638V4.29688C6.56415 4.21042 6.59873 4.12763 6.65999 4.06662C6.72124 4.00561 6.80417 3.97135 6.89062 3.97135V3.97396Z" fill="#4283F0"/>
</svg>
