<svg width="20" height="19" viewBox="0 0 20 19" fill="none" xmlns="http://www.w3.org/2000/svg">
<path d="M19.9478 7.07016C19.8169 6.67484 19.4577 6.39405 19.0327 6.35667L13.2602 5.84501L10.9776 0.629634C10.8093 0.247415 10.426 0 10.0001 0C9.5742 0 9.19089 0.247415 9.02258 0.630528L6.73996 5.84501L0.966512 6.35667C0.542308 6.39495 0.184023 6.67484 0.0523363 7.07016C-0.0793501 7.46549 0.0422653 7.8991 0.363165 8.17243L4.72652 11.9079L3.43987 17.4406C3.34572 17.8474 3.50747 18.2679 3.85324 18.5119C4.03909 18.6429 4.25654 18.7097 4.47581 18.7097C4.66487 18.7097 4.85241 18.6599 5.02072 18.5616L10.0001 15.6565L14.9776 18.5616C15.3418 18.7755 15.801 18.756 16.146 18.5119C16.4919 18.2671 16.6535 17.8465 16.5594 17.4406L15.2727 11.9079L19.6361 8.17318C19.957 7.8991 20.0795 7.46623 19.9478 7.07016Z" fill="white"/>
<path d="M19.4732 7.22736L19.4734 7.22791C19.5398 7.4278 19.48 7.64891 19.3114 7.79298L19.3109 7.79332L14.9476 11.5281L14.717 11.7255L14.7857 12.0212L16.0723 17.5536C16.1198 17.7583 16.0401 17.9743 15.8572 18.1037L15.8572 18.1037C15.6726 18.2344 15.4255 18.2448 15.2308 18.1305L15.2296 18.1298L10.2521 15.2247L10.0001 15.0776L9.74812 15.2247L4.76875 18.1297L4.76853 18.1299C4.67708 18.1833 4.57663 18.2097 4.47581 18.2097C4.35833 18.2097 4.24186 18.1741 4.14151 18.1033C3.95959 17.975 3.8794 17.7596 3.92691 17.5537C3.92694 17.5536 3.92696 17.5534 3.92699 17.5533L5.21352 12.0212L5.28228 11.7255L5.05169 11.5281L0.688335 7.79261L0.68738 7.79179C0.520054 7.64927 0.460095 7.42816 0.52671 7.22818C0.593839 7.02666 0.779671 6.87568 1.01113 6.85467C1.01124 6.85466 1.01134 6.85465 1.01145 6.85464L6.7841 6.34305L7.0792 6.3169L7.198 6.04551L9.48035 0.831635C9.48042 0.83149 9.48048 0.831344 9.48054 0.831199C9.56743 0.63391 9.76837 0.5 10.0001 0.5C10.232 0.5 10.4331 0.634168 10.5198 0.83082C10.5199 0.830925 10.5199 0.83103 10.52 0.831135L12.8021 6.04548L12.9209 6.31689L13.2161 6.34305L18.9886 6.85471L18.9889 6.85474C19.2205 6.87512 19.4067 7.02655 19.4732 7.22736Z" stroke="#F79811" stroke-opacity="0.8"/>
</svg>
