<svg width="16" height="16" viewBox="0 0 16 16" fill="none" xmlns="http://www.w3.org/2000/svg">
<g clip-path="url(#clip0_162_2512)">
<path d="M0.185645 1.08236C-0.0618815 0.834831 -0.0618815 0.433398 0.185645 0.185742C0.433171 -0.0619141 0.834603 -0.0619141 1.08226 0.185742L7.99984 7.10332L14.9174 0.185742C15.1649 -0.0619141 15.5664 -0.0619141 15.8142 0.185742C16.0617 0.433268 16.0617 0.834831 15.8142 1.08236L8.89632 7.9998L15.814 14.9175C16.0616 15.165 16.0616 15.5665 15.814 15.8141C15.5664 16.0618 15.1649 16.0618 14.9173 15.8141L7.99971 8.89655L1.08226 15.8141C0.834733 16.0618 0.433301 16.0618 0.185645 15.8141C-0.0618815 15.5666 -0.0618815 15.1652 0.185645 14.9175L7.10322 7.9998L0.185645 1.08236Z" fill="black"/>
</g>
<defs>
<clipPath id="clip0_162_2512">
<rect width="15.9997" height="16" fill="white"/>
</clipPath>
</defs>
</svg>
