<svg width="16" height="16" viewBox="0 0 16 16" fill="none" xmlns="http://www.w3.org/2000/svg">
<g clip-path="url(#clip0_1341_1099)">
<path fill-rule="evenodd" clip-rule="evenodd" d="M15.9154 1.60807V2.98047C15.9154 3.14844 15.7578 3.28646 15.5651 3.28646H10.1367C9.76693 4.05729 8.97917 4.58984 8.06641 4.58984C7.15495 4.58984 6.36719 4.05729 5.9974 3.28646H0.35026C0.158854 3.28646 0 3.14844 0 2.98047V1.60807C0 1.4401 0.157552 1.30208 0.35026 1.30208H5.9974C6.36719 0.53125 7.15495 0 8.06641 0C8.97786 0 9.76562 0.532552 10.1354 1.30208H15.5638C15.7578 1.30208 15.9154 1.4401 15.9154 1.60807ZM6.45443 14.6979C6.08464 15.4688 5.29687 16 4.38411 16C3.47266 16 2.6849 15.4688 2.3151 14.6979H0.35026C0.157552 14.6979 0 14.5599 0 14.3919V13.0195C0 12.8516 0.157552 12.7135 0.35026 12.7135H2.3151C2.6849 11.9427 3.47266 11.4102 4.38411 11.4102C5.29557 11.4102 6.08333 11.9427 6.45312 12.7135H15.5638C15.7565 12.7135 15.9141 12.8516 15.9141 13.0195V14.3919C15.9141 14.5599 15.7552 14.6979 15.5638 14.6979H6.45443ZM13.5573 9.07943C13.1875 9.85026 12.3997 10.3828 11.4883 10.3828C10.5768 10.3828 9.78906 9.85026 9.41797 9.07943H0.35026C0.158854 9.07943 0 8.94141 0 8.77344V7.40234C0 7.23438 0.157552 7.09635 0.35026 7.09635H9.41797C9.78776 6.32552 10.5755 5.79427 11.487 5.79427C12.3984 5.79427 13.1862 6.32682 13.556 7.09635H15.5638C15.7565 7.09635 15.9141 7.23438 15.9141 7.40234V8.77344C15.9141 8.94141 15.7565 9.07943 15.5638 9.07943H13.5573Z" fill="white"/>
</g>
<defs>
<clipPath id="clip0_1341_1099">
<rect width="15.9154" height="16" fill="white"/>
</clipPath>
</defs>
</svg>
