<svg width="24" height="24" viewBox="0 0 24 24" fill="none" xmlns="http://www.w3.org/2000/svg">
<path d="M12.88 2.42667C12.1215 1.85778 11.0785 1.85778 10.32 2.42667L2.85333 8.02667C2.31615 8.42956 2 9.06185 2 9.73333V19.8667C2 21.0449 2.95513 22 4.13333 22H8.29333C8.94135 22 9.46667 21.4747 9.46667 20.8267V15.6C9.46667 14.4218 10.4218 13.4667 11.6 13.4667C12.7782 13.4667 13.7333 14.4218 13.7333 15.6V20.8267C13.7333 21.4747 14.2587 22 14.9067 22H19.0667C20.2449 22 21.2 21.0449 21.2 19.8667V9.73333C21.2 9.06185 20.8839 8.42956 20.3467 8.02667L12.88 2.42667Z" fill="black"/>
</svg>
