<svg width="16" height="16" viewBox="0 0 16 16" fill="none" xmlns="http://www.w3.org/2000/svg">
<g clip-path="url(#clip0_428_5527)">
<path fill-rule="evenodd" clip-rule="evenodd" d="M10.9205 13.8387C10.1926 14.6369 9.34499 15.3517 8.39317 15.9298C8.27598 16.0158 8.11713 16.0262 7.98692 15.9429C6.58067 15.0483 5.39968 13.9741 4.47129 12.8061C3.19004 11.1994 2.38405 9.41813 2.10801 7.70198C1.82676 5.9624 2.08978 4.28792 2.95567 2.92724C3.29681 2.38948 3.73301 1.89989 4.26426 1.47672C5.48562 0.504061 6.88015 -0.0102615 8.27077 0.000155152C9.60931 0.0105718 10.9309 0.50927 12.0729 1.55224C12.4739 1.91682 12.8111 2.33479 13.0872 2.78792C14.0182 4.32177 14.2187 6.2775 13.8098 8.25927C13.4062 10.2176 12.4036 12.2072 10.9205 13.8348V13.8387ZM8.00515 3.09391C9.65619 3.09391 10.9934 4.43245 10.9934 6.08219C10.9934 7.73323 9.65489 9.07047 8.00515 9.07047C6.3541 9.07047 5.01687 7.73323 5.01687 6.08219C5.01556 4.43114 6.3541 3.09391 8.00515 3.09391Z" fill="#4283F0"/>
</g>
<defs>
<clipPath id="clip0_428_5527">
<rect width="12.0117" height="16" fill="white" transform="translate(2)"/>
</clipPath>
</defs>
</svg>
