<svg width="24" height="24" viewBox="0 0 24 24" fill="none" xmlns="http://www.w3.org/2000/svg">
<path fill-rule="evenodd" clip-rule="evenodd" d="M9 5.05439C8.93535 6.69671 9 17.0273 9 17.0273C9.1602 17.0273 9.32039 17.053 9.47434 17.1043L15 18.9462V6.97325C14.8398 6.97325 14.6796 6.94759 14.5257 6.89628L9 5.05439ZM8.52566 3.10432C8.83356 3.00169 9.16644 3.00169 9.47434 3.10432L15 4.9462L20.2889 3.18324C21.1307 2.90264 22 3.5292 22 4.41653V17.6399C22 18.2856 21.5869 18.8588 20.9743 19.0629L15.4743 20.8963C15.1664 20.9989 14.8336 20.9989 14.5257 20.8963L9 19.0544L3.7111 20.8174C2.86931 21.098 2 20.4714 2 19.5841V6.36068C2 5.71503 2.41315 5.14182 3.02566 4.93765L8.52566 3.10432Z" fill="black"/>
</svg>
