<svg width="20" height="20" viewBox="0 0 20 20" fill="none" xmlns="http://www.w3.org/2000/svg">
    <path d="M12.0101 1.21632C13.1867 1.58045 14.2469 2.24754 15.0843 3.1507C15.9905 4.1175 16.5988 5.32504 16.8363 6.62867V6.67427C16.8705 6.87129 16.895 7.05854 16.9096 7.23439C16.9275 7.43955 16.9373 7.64634 16.9373 7.85313V9.50257C16.9373 9.96011 16.9373 10.4258 16.9698 10.8931C17.0127 11.7315 17.255 12.5476 17.6765 13.2736C18.1508 14.0172 18.7843 14.6461 19.5311 15.1152C19.7429 15.2537 19.8965 15.4652 19.9626 15.7095C20.0121 15.9002 20.0076 16.1009 19.9496 16.2892C19.8924 16.4773 19.7849 16.6462 19.6386 16.7777C19.4473 16.9453 19.2009 17.0364 18.9466 17.0333H13.3877V17.0463C12.7136 20.9867 7.26375 20.9753 6.60593 17.0333H1.04215C0.774017 17.0393 0.514093 16.9406 0.317568 16.7581C0.177773 16.6245 0.0766091 16.4557 0.02474 16.2694C-0.0271291 16.0832 -0.0277815 15.8864 0.0228515 15.6997C0.093122 15.4476 0.256703 15.2316 0.480394 15.0957C1.40199 14.472 2.04679 13.793 2.45385 13.018C2.86092 12.2429 3.04817 11.3181 3.04817 10.2043V7.85313C3.04817 7.66425 3.05794 7.45909 3.07748 7.23927C3.09702 7.01946 3.1247 6.82895 3.16052 6.62705C3.39491 5.36238 3.97399 4.18701 4.83392 3.23054C5.69385 2.27407 6.80123 1.57366 8.03392 1.20655C8.78455 -0.402181 11.2595 -0.405437 12.0101 1.21632ZM14.2734 3.90784C13.5125 3.08612 12.534 2.49721 11.4517 2.20956C11.3597 2.1843 11.2758 2.13584 11.2079 2.06884C11.1401 2.00184 11.0906 1.91854 11.0641 1.82692C10.7857 0.871124 9.27303 0.849956 8.99297 1.81878C8.96571 1.91318 8.91401 1.99873 8.84311 2.06677C8.77221 2.13481 8.68461 2.18294 8.58916 2.2063C7.50054 2.48097 6.51335 3.06167 5.74436 3.87972C4.97537 4.69776 4.45675 5.71893 4.24983 6.82244C4.21944 6.99395 4.19664 7.16492 4.18144 7.33534C4.16679 7.49817 4.16028 7.661 4.16028 7.85313V10.2043C4.16028 11.4923 3.93558 12.5751 3.4357 13.5309C2.95699 14.446 2.23729 15.2227 1.23103 15.9277H18.7609C17.9433 15.3842 17.2511 14.6726 16.7305 13.8403C16.2197 12.967 15.9239 11.9847 15.8675 10.9745C15.8317 10.5056 15.8333 9.99756 15.8349 9.50908V7.85313C15.8349 7.67402 15.8349 7.4998 15.8138 7.32883C15.7926 7.15786 15.7796 7.00318 15.7552 6.86477L15.7454 6.82081C15.5458 5.72908 15.0372 4.71753 14.28 3.90621L14.2734 3.90784Z" fill="black" fill-opacity="0.6"/>
</svg>
