<svg width="16" height="16" viewBox="0 0 16 16" fill="none" xmlns="http://www.w3.org/2000/svg">
<g clip-path="url(#clip0_428_5517)">
<g clip-path="url(#clip1_428_5517)">
<path d="M4.38515 6.51163C4.92032 7.47702 5.53714 8.40354 6.33796 9.24841C7.14137 10.0985 8.14045 10.8721 9.43368 11.533C9.52957 11.5796 9.62028 11.5796 9.70191 11.5472C9.82502 11.5006 9.95071 11.3982 10.0738 11.2751C10.1697 11.1792 10.2889 11.0263 10.4133 10.8591C10.9109 10.2047 11.5264 9.39225 12.3959 9.79914C12.4154 9.80821 12.4296 9.81858 12.4491 9.82635L15.3491 11.4941C15.3582 11.4993 15.3686 11.5083 15.3763 11.5135C15.7586 11.7766 15.9167 12.1822 15.9206 12.6422C15.9206 13.11 15.7482 13.6361 15.4955 14.0805C15.1612 14.6675 14.6688 15.0563 14.1012 15.3129C13.5609 15.5617 12.9596 15.6951 12.3817 15.7807C11.4746 15.9141 10.6245 15.8286 9.75504 15.5617C8.90498 15.2986 8.04844 14.8645 7.11286 14.2866L7.04418 14.2425C6.61526 13.9743 6.15136 13.6879 5.69652 13.3497C4.03268 12.0927 2.33645 10.2773 1.23111 8.27914C0.3046 6.60234 -0.200772 4.79207 0.075239 3.06733C0.228146 2.12138 0.633739 1.26095 1.34126 0.693384C1.95807 0.195787 2.78869 -0.0763357 3.86423 0.0195553C3.98733 0.0286261 4.09748 0.0998964 4.15579 0.206154L6.0153 3.34982C6.28742 3.70229 6.32111 4.05216 6.17209 4.40203C6.04899 4.68841 5.80019 4.95276 5.46068 5.19896C5.3609 5.28449 5.24169 5.37131 5.11599 5.46202C4.70003 5.76394 4.22706 6.11252 4.38904 6.522L4.38515 6.51163Z" fill="#4283F0"/>
</g>
</g>
<defs>
<clipPath id="clip0_428_5517">
<rect width="16" height="16" fill="white"/>
</clipPath>
<clipPath id="clip1_428_5517">
<rect width="16" height="15.9206" fill="white"/>
</clipPath>
</defs>
</svg>
