<svg width="20" height="20" viewBox="0 0 20 20" fill="none" xmlns="http://www.w3.org/2000/svg">
<path d="M9.20785 0.792318C9.20785 0.68571 9.22933 0.583496 9.26807 0.489746C9.30859 0.39209 9.36735 0.304688 9.43994 0.232096C9.58317 0.0887044 9.78141 0 10 0C10.1071 0 10.2095 0.0214844 10.3032 0.0603841C10.3052 0.0611979 10.307 0.0621745 10.3092 0.063151C10.4043 0.103516 10.4894 0.161296 10.5604 0.232259C10.7038 0.375488 10.7925 0.57373 10.7925 0.79248C10.7925 0.797363 10.7922 0.802246 10.7915 0.806966V9.20866H19.193C19.1978 9.20817 19.203 9.20768 19.2077 9.20768C19.3145 9.20768 19.4168 9.22917 19.5106 9.26807C19.5129 9.26888 19.5147 9.26986 19.5166 9.27083C19.6117 9.3112 19.6968 9.36898 19.7677 9.43994C19.9111 9.58317 20.0002 9.78141 20.0002 10C20.0002 10.1064 19.9785 10.2088 19.9398 10.3026C19.8994 10.4002 19.8407 10.4876 19.7677 10.5602C19.6953 10.6327 19.6082 10.6914 19.5106 10.7319V10.7321C19.4168 10.7708 19.3145 10.7923 19.2077 10.7923C19.203 10.7923 19.1978 10.792 19.193 10.7913L10.7915 10.7915V19.193C10.7922 19.1978 10.7925 19.2028 10.7925 19.2077C10.7925 19.3145 10.7708 19.417 10.7321 19.5106C10.7311 19.5129 10.7301 19.5147 10.7292 19.5166C10.6888 19.6117 10.6312 19.6968 10.5604 19.7677C10.4167 19.9113 10.2186 20 10 20C9.89355 20 9.79118 19.9785 9.69743 19.9396C9.59977 19.8993 9.51237 19.8405 9.43978 19.7677C9.36735 19.6955 9.30859 19.6082 9.26807 19.5106C9.22917 19.417 9.20752 19.3145 9.20752 19.2077C9.20752 19.2028 9.20785 19.1978 9.2085 19.193V10.7915H0.806966C0.802246 10.7922 0.797363 10.7925 0.792318 10.7925C0.685872 10.7925 0.583496 10.771 0.489746 10.7321C0.39209 10.6917 0.304688 10.633 0.232096 10.5602C0.159668 10.4878 0.100911 10.4007 0.0603841 10.3031C0.0214844 10.2093 0 10.1069 0 10C0 9.89339 0.0214844 9.79118 0.0603841 9.69743C0.100911 9.59977 0.159668 9.51237 0.232259 9.43978C0.375651 9.29639 0.57373 9.20768 0.79248 9.20768C0.797526 9.20768 0.802409 9.20801 0.807129 9.20866H9.20882V0.806966C9.20817 0.802083 9.20785 0.797201 9.20785 0.792318Z" fill="white"/>
</svg>
