<svg width="16" height="16" viewBox="0 0 16 16" fill="none" xmlns="http://www.w3.org/2000/svg">
<path d="M6.50891 0H6.51099V0.000911466C8.30775 0.0014323 9.93472 0.730214 11.1121 1.90783C12.2875 3.08375 13.0156 4.70928 13.0168 6.50461H13.0177V6.50891V6.51412H13.0168C13.0161 7.23769 12.8974 7.93405 12.679 8.5834C12.6424 8.69239 12.6041 8.79708 12.5648 8.89708V8.89799C12.3765 9.37455 12.1332 9.82508 11.8425 10.2401L15.6293 13.6436L15.6316 13.6457L15.6521 13.6647L15.6535 13.6661C15.8673 13.8696 15.9837 14.1422 15.9984 14.4187C16.0128 14.6922 15.9277 14.9719 15.7408 15.1962L15.7393 15.1983L15.7165 15.2247L15.712 15.2293L15.693 15.2501L15.6909 15.2529C15.4871 15.4667 15.2151 15.5828 14.9383 15.5974C14.6652 15.6118 14.3853 15.5271 14.1608 15.3398L14.1588 15.3384L14.1323 15.3156L14.1285 15.3125L10.2554 11.8315C10.1408 11.9122 10.0239 11.9889 9.90555 12.0613C9.745 12.1596 9.57872 12.2522 9.40906 12.3367C8.53679 12.7718 7.5511 13.0166 6.50904 13.0166V13.0176H6.50695V13.0166C4.71019 13.0161 3.08297 12.2873 1.90561 11.1097C0.729824 9.9338 0.00208335 8.30801 0.000911466 6.5132H0V6.50891V6.50682H0.000911466C0.0014323 4.71006 0.730214 3.08284 1.90783 1.90548C3.08375 0.730214 4.70928 0.00208335 6.50461 0.000911466V0H6.50891ZM6.51099 1.45965V1.46056H6.50891H6.50461V1.45965C5.11319 1.46056 3.85198 2.02606 2.93896 2.9387C2.02606 3.85133 1.46004 5.11384 1.45965 6.50695H1.46056V6.50904V6.51333H1.45965C1.46056 7.90475 2.02567 9.16531 2.9387 10.0786C3.85133 10.9916 5.11384 11.5576 6.50682 11.5579V11.557H6.50891H6.5132V11.5579C7.90462 11.557 9.16531 10.9918 10.0786 10.0789C10.9915 9.16622 11.5575 7.9041 11.5578 6.51112H11.557V6.50904V6.50474H11.5578C11.557 5.11332 10.9914 3.85211 10.0789 2.93909C9.16622 2.02606 7.9041 1.46004 6.51099 1.45965Z" fill="black" fill-opacity="0.2"/>
</svg>
