<svg width="17" height="16" viewBox="0 0 17 16" fill="none" xmlns="http://www.w3.org/2000/svg">
    <g clip-path="url(#clip0_4785_2123)">
        <path fill-rule="evenodd" clip-rule="evenodd" d="M8.49987 0C12.9176 0 16.4999 3.58242 16.4999 7.99987C16.4999 12.4177 12.9174 15.9999 8.49987 15.9999C4.08229 16 0.5 12.4177 0.5 7.99987C0.5 3.58242 4.08229 0 8.49987 0ZM10.6971 0.845703C13.3818 1.73802 15.3961 4.10052 15.7841 6.97865L15.5298 6.95143C15.4846 7.14609 15.4431 7.15104 15.4431 7.38542C15.4431 7.59219 15.7035 7.7306 15.7035 8.16706C15.7035 8.28399 15.4289 8.51784 15.4168 8.55859L15.009 8.08021V8.68815L14.947 8.68581L14.8371 7.56406L14.6094 7.63581L14.3384 6.8013L13.4458 7.73294L13.4352 8.4151L13.1438 8.61055L12.8342 6.86081L12.6491 6.99609L12.2298 6.43034L11.6031 6.44896L11.363 6.17461L11.1173 6.24219L10.634 5.68828L10.5406 5.75182L10.8401 6.51719H11.1876V6.34349H11.3612C11.4865 6.68958 11.6217 6.48464 11.6217 6.69102C11.6217 7.41328 10.7297 7.94427 10.1453 8.08021C10.1766 8.21081 10.1645 8.34102 10.3189 8.34102C10.6461 8.34102 10.4835 8.28372 10.8401 8.25417C10.8236 8.99206 9.99375 9.87331 9.63945 10.4227L9.79805 11.5542C9.83984 11.7999 9.28776 12.0599 9.1 12.3366L9.1901 12.7701L8.93581 12.8728C8.89128 13.3181 8.45899 13.8121 7.97409 13.8121H7.45326C7.45326 13.2023 7.01888 12.3322 7.01888 11.9013C7.01888 11.5354 7.19245 11.4862 7.19245 11.0329C7.19245 10.6142 6.75846 10.0137 6.75846 9.90404V9.20924H6.41094C6.35938 9.01562 6.39089 8.94883 6.15052 8.94883H6.06367C5.68425 8.94883 5.74831 9.1224 5.36888 9.1224H5.02135C4.70807 9.1224 4.153 8.11706 4.153 7.99336V6.9513C4.153 6.50156 4.56458 6.01198 4.84779 5.82214V5.38815L5.23867 4.99076L5.45573 4.95378C5.92175 4.95378 5.86641 4.69336 6.15052 4.69336H6.93229V5.3013L7.79167 5.66823L7.87266 5.2974C8.26211 5.38867 8.36341 5.56198 8.84323 5.56198H9.0168C9.34635 5.56198 9.36406 5.12474 9.36406 4.78047L8.66836 4.84922L8.36576 4.18984L8.06484 4.26992C8.11888 4.50586 8.14844 4.40781 8.14844 4.60677C8.14844 4.72396 8.05195 4.73698 7.97461 4.78047L7.6737 4.0168L7.02669 3.55469L6.94076 3.63906L7.49167 4.21875C7.41849 4.42669 7.4099 5.02721 7.10612 4.60664L7.39023 4.46992L6.68216 3.72786L6.25794 3.89375L5.83919 4.29479C5.79544 4.61784 5.70742 4.78034 5.3694 4.78034C5.1444 4.78034 5.28021 4.72214 4.93503 4.69349V3.82513H5.71654L5.46328 3.24674L5.3694 3.30404V3.13021L6.63854 2.54505C6.61458 2.36289 6.58542 2.46055 6.58542 2.26185C6.58542 2.25 6.6707 2.08971 6.67227 2.08789L7.00052 2.29167L6.92201 1.91784L6.41563 2.02201L6.32161 1.56758C6.72318 1.35612 7.60677 0.611849 7.88776 0.611849H8.14844C8.42279 0.611849 9.15768 0.882552 9.27721 1.04583L8.58034 0.97526L9.0974 1.40117L9.14701 1.21953L9.53294 1.1138L9.53763 0.872266H9.71159V1.13268L10.6971 0.845703ZM15.7296 9.35352C15.7095 9.46315 15.6874 9.57174 15.6629 9.67956L15.6229 9.39935L15.7296 9.35352ZM15.4794 10.3383C15.4603 10.3964 15.4408 10.4547 15.4202 10.5122H15.3564V10.3383H15.4794ZM2.03099 12.1328C1.55911 11.4176 1.20664 10.6171 1.00026 9.75964L2.40924 10.4391L2.41641 10.8595C2.41641 11.0139 2.15273 11.3426 2.06914 11.4674L2.03099 12.1328Z" fill="white"/>
    </g>
    <defs>
        <clipPath id="clip0_4785_2123">
            <rect width="16" height="16" fill="white" transform="translate(0.5)"/>
        </clipPath>
    </defs>
</svg>
